<svg width="40" height="40" viewBox="0 0 40 40" fill="none" xmlns="http://www.w3.org/2000/svg">
<path d="M39.8039 19.9299C39.7986 19.927 39.2465 19.602 38.8865 19.1133C38.6639 18.8111 38.4735 18.4201 38.2717 18.0058C37.839 17.1184 37.3519 16.141 36.4094 15.8394C37.0415 15.1181 37.001 14.055 36.9538 13.0914C36.9317 12.6303 36.9102 12.195 36.9604 11.8221C37.0403 11.2195 37.3674 10.6672 37.371 10.6618C37.4456 10.5365 37.4432 10.3806 37.3674 10.2565C37.291 10.133 37.1478 10.0616 37.0069 10.0718C37.0009 10.0736 36.5199 10.1054 35.84 9.80918C35.4884 9.65688 35.1213 9.40505 34.7334 9.13882C33.9126 8.57639 32.9976 7.95939 32.0229 8.19384C32.316 7.1865 31.6958 6.23193 31.1371 5.37569C30.8852 4.98954 30.6476 4.62558 30.502 4.27901C30.2674 3.71838 30.2692 3.07619 30.2698 3.06959C30.271 2.92389 30.1898 2.79018 30.0615 2.72242C29.9344 2.65467 29.7768 2.66427 29.6574 2.74761C29.6532 2.75001 29.2539 3.02343 28.5197 3.11517C28.1407 3.16134 27.6972 3.13195 27.2281 3.10077C26.242 3.03422 25.1473 2.96767 24.4239 3.65841C24.1451 2.67446 23.1483 2.17619 22.2482 1.73308C21.8358 1.53041 21.446 1.33853 21.1452 1.11488C20.6593 0.752715 20.3358 0.198676 20.3328 0.193279C20.26 0.0679616 20.1197 -0.00878764 19.9776 0.000806079C19.8326 0.00800137 19.7031 0.0967462 19.6422 0.22866C19.6404 0.232857 19.4351 0.672964 18.8495 1.12747C18.5469 1.36311 18.15 1.56399 17.7304 1.77685C16.8595 2.21816 15.9009 2.71583 15.6144 3.65602C14.9041 2.89931 13.7771 2.95627 12.7654 3.00844C12.2957 3.03242 11.8516 3.0558 11.4726 3.00244C10.7402 2.89931 10.3444 2.61989 10.3432 2.61869C10.2268 2.53175 10.0705 2.51796 9.93854 2.58332C9.80782 2.64868 9.72485 2.78299 9.72425 2.92989C9.72425 2.93649 9.7171 3.57806 9.47357 4.13569C9.32315 4.47987 9.07962 4.84024 8.82176 5.22219C8.26665 6.04365 7.66081 6.95865 7.87748 7.93601C6.92663 7.72495 6.02354 8.31136 5.21237 8.84921C4.81961 9.10944 4.44894 9.35528 4.09498 9.50219C3.41095 9.7864 2.92986 9.74682 2.92747 9.74682C2.78421 9.73243 2.64097 9.79899 2.56099 9.9225C2.4816 10.046 2.47742 10.2037 2.55084 10.3308C2.55383 10.3362 2.87256 10.8933 2.94299 11.4971C2.98716 11.8706 2.95912 12.3053 2.92927 12.7658C2.86421 13.784 2.79497 14.9172 3.53631 15.6482C2.63083 15.9648 2.15689 16.9187 1.73668 17.7876C1.53135 18.2121 1.33676 18.6132 1.10696 18.9214C0.662874 19.5162 0.227737 19.7285 0.226544 19.7297C0.0934371 19.7908 0.00569557 19.9216 0.000323561 20.0685C-0.00564534 20.2154 0.0713582 20.3533 0.199093 20.4246C0.204465 20.4276 0.76314 20.7478 1.12844 21.2275C1.35585 21.5261 1.55224 21.9146 1.76056 22.326C2.18315 23.1612 2.65768 24.0744 3.51243 24.4126C2.85644 25.1291 2.90121 26.2042 2.95135 27.1762C2.97582 27.6481 2.9991 28.093 2.94598 28.4743C2.84331 29.2107 2.56455 29.6076 2.56396 29.6094C2.47681 29.7275 2.46309 29.8852 2.52875 30.0165C2.5944 30.1479 2.72811 30.2312 2.87435 30.2312C2.88092 30.2312 3.52318 30.2402 4.07411 30.483C4.41672 30.6341 4.77544 30.8788 5.15566 31.1378C5.8588 31.6169 6.62938 32.1422 7.4501 32.1422C7.58381 32.1422 7.71931 32.1248 7.856 32.0942C7.65067 33.047 8.23264 33.9512 8.76686 34.7642C9.02591 35.1582 9.27003 35.5305 9.41686 35.8861C9.69979 36.5727 9.66039 37.0571 9.66039 37.0589C9.64487 37.2046 9.71291 37.3467 9.83528 37.4271C9.89914 37.4691 9.97256 37.49 10.0466 37.49C10.114 37.49 10.1815 37.4727 10.2418 37.4373C10.2471 37.4343 10.8016 37.1141 11.4027 37.0433C11.774 36.999 12.2067 37.0272 12.6657 37.0571C13.6775 37.1219 14.8068 37.192 15.535 36.4473C15.8501 37.3569 16.7998 37.833 17.6647 38.2557C18.0873 38.462 18.4872 38.6575 18.7934 38.8883C19.3855 39.3344 19.5968 39.7715 19.598 39.7728C19.6589 39.9065 19.7896 39.9946 19.9353 40C19.9406 40 19.946 40 19.9508 40C20.0911 40 20.2212 39.9239 20.2898 39.7997C20.2928 39.7943 20.6109 39.2337 21.0884 38.8667C21.3857 38.6383 21.7725 38.441 22.1819 38.2318C22.9967 37.8156 23.8885 37.3509 24.2412 36.5241C24.9664 37.2958 26.1071 37.216 27.1278 37.1411C27.5969 37.1075 28.0392 37.0745 28.4201 37.1207C29.1542 37.2082 29.5553 37.4804 29.5565 37.481C29.6234 37.529 29.7022 37.553 29.781 37.553C29.843 37.553 29.9051 37.5386 29.9618 37.5086C30.0913 37.4403 30.1719 37.3048 30.1701 37.1579C30.1695 37.1513 30.1636 36.5085 30.3964 35.9473C30.5396 35.6001 30.776 35.2349 31.0261 34.8482C31.5364 34.0591 32.088 33.1849 31.9447 32.2681C32.0689 32.2932 32.193 32.3094 32.3154 32.3094C33.1164 32.3094 33.8792 31.8088 34.5758 31.3525C34.9691 31.094 35.341 30.8506 35.6962 30.7049C36.3814 30.4243 36.8625 30.4674 36.8643 30.4662C37.0093 30.4812 37.1508 30.4153 37.2313 30.2924C37.3119 30.1694 37.3167 30.0117 37.2439 29.8846C37.2403 29.8792 36.9251 29.3204 36.8571 28.716C36.8153 28.3424 36.8452 27.9083 36.8774 27.4484C36.9443 26.4759 37.0075 25.402 36.3706 24.6669C37.2982 24.3742 37.7912 23.4161 38.2293 22.5454C38.4406 22.1239 38.6412 21.7258 38.8758 21.4212C39.3288 20.8336 39.7669 20.6273 39.7681 20.6267C39.9024 20.5679 39.9914 20.4384 39.9997 20.2915C40.0051 20.1422 39.9305 20.0031 39.8039 19.9299ZM20.7452 34.4746L24.6185 27.747H32.2807C29.8204 31.6181 25.5914 34.2486 20.7452 34.4746ZM7.84764 27.7476H15.5087L19.3813 34.4752C14.5358 34.248 10.308 31.6175 7.84764 27.7476ZM5.57528 19.9371C5.57528 17.5411 6.15844 15.2812 7.1833 13.2857L11.0124 19.9371L7.1833 26.588C6.15784 24.5931 5.57528 22.3332 5.57528 19.9371ZM19.3825 5.39967L15.5099 12.1261H7.84824C10.3092 8.2562 14.537 5.62692 19.3825 5.39967ZM32.2801 12.1261H24.6197L20.7476 5.39967C25.5926 5.62692 29.8198 8.2568 32.2801 12.1261ZM24.1708 26.9681H15.9558L11.9083 19.9371L15.957 12.905H24.1714L28.2189 19.9359L24.1708 26.9681ZM28.6678 20.7148L32.2676 26.9681H25.0673L28.6678 20.7148ZM20.063 34.1023L16.4047 27.747H23.7219L20.063 34.1023ZM15.0599 26.9681H7.86077L11.4606 20.716L15.0599 26.9681ZM11.4606 19.1589L7.86077 12.9056H15.0617L11.4606 19.1589ZM16.4064 12.1261L20.0654 5.77143L23.7237 12.1261H16.4064ZM25.0685 12.9056H32.2682L28.6684 19.1583L25.0685 12.9056ZM32.9457 26.588L29.1166 19.9365L32.9457 13.2863C33.9705 15.2812 34.5537 17.5417 34.5537 19.9371C34.5531 22.3332 33.9705 24.5931 32.9457 26.588ZM34.2946 9.78279C34.6958 10.058 35.1112 10.3428 35.5308 10.5251C35.8818 10.6774 36.1916 10.7608 36.4405 10.8045C36.3384 11.0582 36.2351 11.3778 36.1898 11.7183C36.1307 12.1614 36.1546 12.6537 36.1778 13.1292C36.2375 14.356 36.2232 15.1907 35.5099 15.5906C35.3762 15.6655 35.0527 15.7771 34.7746 15.8526C34.115 13.4596 32.8932 11.2998 31.2583 9.52737C31.4785 9.33429 31.7334 9.15741 31.8898 9.07047C32.5881 8.67893 33.2954 9.09804 34.2946 9.78279ZM27.1749 3.87846C27.6602 3.91144 28.1598 3.94503 28.614 3.88866C28.9937 3.8413 29.3028 3.75495 29.5398 3.66621C29.5798 3.93663 29.652 4.26522 29.7851 4.58121C29.9576 4.99374 30.2263 5.40507 30.4865 5.80321C31.1574 6.83033 31.5663 7.55705 31.1526 8.26459C31.0726 8.4013 30.8375 8.67593 30.6303 8.88579C28.8976 7.21349 26.7756 5.94711 24.4143 5.24077C24.5074 4.95056 24.6477 4.64956 24.742 4.48767C25.1467 3.79572 25.9662 3.79692 27.1749 3.87846ZM18.0795 2.47299C18.5135 2.25293 18.9623 2.02508 19.3234 1.74447C19.6261 1.50942 19.8481 1.27677 20.0069 1.0795C20.1782 1.29176 20.4074 1.537 20.682 1.74147C21.0395 2.00709 21.4794 2.22415 21.905 2.43342C23.0039 2.97366 23.7243 3.38978 23.7279 4.21065C23.7285 4.36714 23.6634 4.73291 23.5912 5.02072C22.4583 4.7503 21.2789 4.60279 20.0648 4.60279H20.0642C18.7994 4.60279 17.5716 4.76109 16.3957 5.0537C16.3288 4.75689 16.2972 4.4295 16.296 4.24302C16.293 3.44015 17.0004 3.02103 18.0795 2.47299ZM9.46342 5.6605C9.72964 5.26655 10.0048 4.85942 10.1833 4.44989C10.3206 4.1357 10.3981 3.80832 10.4423 3.53849C10.6781 3.63083 10.9855 3.72197 11.3639 3.77533C11.8176 3.83949 12.3189 3.81311 12.8048 3.78793C14.0111 3.72437 14.833 3.73636 15.2276 4.4349C15.3296 4.61658 15.4801 4.96556 15.566 5.28395C13.2459 6.00408 11.1634 7.26804 9.45984 8.92356C9.23899 8.72989 8.86294 8.29698 8.75968 8.1129C8.35678 7.39756 8.777 6.67743 9.46342 5.6605ZM4.39104 10.2229C4.81364 10.0472 5.23325 9.76901 5.63854 9.50038C6.64788 8.83122 7.36118 8.42229 8.05357 8.82522C8.26308 8.94694 8.65225 9.23416 8.89041 9.50518C7.29134 11.232 6.08502 13.3283 5.41053 15.6512C5.3986 15.6482 5.38906 15.6404 5.37592 15.638C5.10255 15.5918 4.51759 15.3963 4.33315 15.289C3.62524 14.8777 3.62405 14.043 3.70284 12.8168C3.73328 12.3419 3.76491 11.8508 3.71298 11.4065C3.67299 11.0654 3.5751 10.744 3.47601 10.4891C3.72611 10.4478 4.03828 10.3698 4.39104 10.2229ZM2.45175 21.9722C2.23687 21.5477 2.01483 21.1094 1.74444 20.7538C1.53672 20.4804 1.289 20.2543 1.07472 20.0852C1.2693 19.9228 1.49733 19.6961 1.72713 19.3885C2.0017 19.0209 2.22135 18.567 2.43384 18.1275C2.96269 17.035 3.36918 16.3179 4.16901 16.3095C4.39822 16.3089 4.85961 16.3533 5.20043 16.457C4.94079 17.5759 4.79933 18.7391 4.79933 19.9365C4.79933 21.1831 4.95152 22.3943 5.23266 23.5558C5.0518 23.5911 4.86498 23.6481 4.68531 23.7129C4.50744 23.7488 4.3421 23.774 4.24779 23.7752C3.44139 23.798 3.00626 23.0677 2.45175 21.9722ZM5.59019 30.492C5.19804 30.2246 4.79275 29.9482 4.38567 29.7689C4.0723 29.631 3.747 29.553 3.4778 29.5087C3.56972 29.2718 3.66046 28.9624 3.71358 28.5823C3.77685 28.1278 3.75118 27.6235 3.72611 27.136C3.66344 25.9224 3.67477 25.098 4.37075 24.7016C4.48893 24.6345 4.68232 24.5451 4.89004 24.4666C5.08582 24.4252 5.28161 24.3748 5.43979 24.3257C6.12561 26.6282 7.3367 28.704 8.93278 30.4147C8.90771 30.4333 8.88027 30.4483 8.85937 30.4734C8.67673 30.6917 8.2195 31.0922 8.03029 31.1996C7.31999 31.6031 6.60252 31.1816 5.59019 30.492ZM12.7135 36.2782C12.2408 36.2477 11.7525 36.2159 11.3096 36.268C10.97 36.3082 10.65 36.4072 10.3964 36.5055C10.3558 36.2549 10.2782 35.9419 10.1319 35.5869C9.95705 35.1624 9.6801 34.7408 9.41269 34.3337C8.74656 33.3198 8.34007 32.6026 8.73999 31.9077C8.86534 31.69 9.16677 31.2769 9.44253 31.0419C9.46342 31.0245 9.47476 31.0011 9.49087 30.9807C11.1795 32.6128 13.2376 33.8624 15.529 34.5802C15.5278 34.5861 15.5237 34.5909 15.5225 34.5975C15.4765 34.8722 15.2819 35.4598 15.1751 35.6451C14.765 36.3562 13.9335 36.3562 12.7135 36.2782ZM21.8274 37.5356C21.4054 37.7515 20.9685 37.9745 20.6151 38.2461C20.3429 38.4548 20.1179 38.7036 19.9496 38.9183C19.7878 38.7234 19.5622 38.4938 19.256 38.2635C18.8901 37.9877 18.4383 37.7671 18.0013 37.5536C16.9138 37.0224 16.1999 36.614 16.1916 35.8105C16.1892 35.5815 16.2327 35.1432 16.3294 34.8056C17.525 35.109 18.7755 35.2715 20.0636 35.2715C21.2323 35.2715 22.3694 35.1342 23.4641 34.883C23.5453 35.175 23.6211 35.5635 23.6228 35.7314C23.6324 36.5523 22.9185 36.9786 21.8274 37.5356ZM30.3731 34.4219C30.1146 34.8212 29.8478 35.2337 29.6771 35.6469C29.5458 35.964 29.4748 36.2932 29.4366 36.5636C29.1996 36.4767 28.8898 36.391 28.5102 36.346C28.0554 36.2926 27.5546 36.328 27.0699 36.3628C25.866 36.4503 25.0434 36.4557 24.6346 35.7644C24.5068 35.5485 24.2967 35.0838 24.2263 34.7259C24.2257 34.7235 24.2239 34.7211 24.2233 34.7187C24.2209 34.7097 24.2186 34.6995 24.2162 34.6905C26.5357 34.0309 28.6331 32.8365 30.3641 31.2439C30.4865 31.3771 30.6226 31.5048 30.7634 31.6211C30.8786 31.753 30.9819 31.8801 31.0273 31.9569C31.4445 32.6626 31.0386 33.3911 30.3731 34.4219ZM35.4001 29.9812C34.9769 30.1551 34.5561 30.4309 34.149 30.6977C33.1367 31.3609 32.421 31.7674 31.7298 31.3609C31.623 31.2985 31.469 31.1918 31.312 31.0671C31.1861 30.9255 31.0595 30.7948 30.9407 30.6827C32.5983 28.9894 33.8685 26.9136 34.6056 24.5991C34.9041 24.6752 35.3261 24.8245 35.4819 24.9163C36.188 25.3306 36.185 26.1653 36.1003 27.3915C36.0668 27.8663 36.0334 28.3568 36.0835 28.8011C36.1223 29.1423 36.2184 29.4643 36.3157 29.7203C36.0662 29.7599 35.7541 29.8361 35.4001 29.9812ZM38.2598 20.9415C37.9792 21.3048 37.7524 21.7558 37.5334 22.1917C36.9896 23.2734 36.5736 23.9827 35.7779 23.9827C35.7755 23.9827 35.7731 23.9827 35.7713 23.9827C35.5547 23.9815 35.1524 23.9359 34.8253 23.8436C35.153 22.5958 35.3291 21.2869 35.3291 19.9371C35.3291 18.8117 35.2043 17.715 34.9739 16.6579C35.2568 16.5829 35.6209 16.5164 35.8048 16.5164C36.6219 16.52 37.0362 17.2443 37.574 18.3482C37.7829 18.7757 37.9977 19.2176 38.2622 19.5768C38.4657 19.8526 38.7098 20.0829 38.9211 20.2549C38.7254 20.4144 38.4932 20.6375 38.2598 20.9415Z" fill="black" fill-opacity="0.5"/>
</svg>
