<svg width="50" height="50" viewBox="0 0 50 50" fill="none" xmlns="http://www.w3.org/2000/svg">
<path d="M20.3776 38.0746C19.0587 38.0746 17.6055 37.609 16.3694 36.7724C14.6619 35.6166 13.5693 33.8764 13.2926 31.8722C13.24 31.4906 13.5067 31.1384 13.8884 31.0857C14.2703 31.0333 14.6221 31.2998 14.6748 31.6815C15.1962 35.4592 18.9281 36.9019 20.8707 36.6483C24.871 36.126 26.7814 34.3046 26.549 31.2347C26.421 29.5453 25.596 28.3167 24.0969 27.5831C22.933 27.0135 21.8128 26.9616 21.8016 26.9612C21.4577 26.9471 21.1755 26.6844 21.1369 26.3424C21.0983 26.0004 21.3148 25.6813 21.6468 25.591C23.0807 25.2004 23.7235 23.7437 23.8471 22.5107C23.9887 21.0958 23.5232 19.3625 22.1638 18.6797C20.6106 17.8995 19.0169 18.3405 18.0433 19.0132C17.3598 19.4855 16.9037 20.3164 16.8993 20.3246C16.7177 20.6645 16.295 20.7927 15.9552 20.6111C15.6154 20.4295 15.4872 20.0068 15.6687 19.6669C15.6933 19.6211 16.2806 18.5352 17.2502 17.8652C18.5526 16.9652 20.6921 16.379 22.79 17.4328C23.6774 17.8785 24.3741 18.6494 24.8048 19.662C25.1857 20.5573 25.3386 21.6184 25.2353 22.6497C25.0998 24.0031 24.5655 25.1529 23.7505 25.9421C24.0573 26.0424 24.3822 26.1693 24.7101 26.3297C26.6576 27.2828 27.7745 28.9424 27.9402 31.1292C28.0332 32.3578 27.8463 33.4564 27.3846 34.3945C26.9808 35.215 26.3657 35.9167 25.5562 36.4799C24.4252 37.2671 22.9095 37.7892 21.0513 38.0318C20.8321 38.0605 20.6068 38.0746 20.3776 38.0746Z" fill="black" fill-opacity="0.5"/>
<path d="M32.1234 33.9004C30.0971 33.9005 28.4907 32.0993 28.4124 32.01C28.1584 31.7203 28.1873 31.2796 28.477 31.0255C28.7667 30.7714 29.2074 30.8003 29.4614 31.0901C29.4768 31.1074 31.1237 32.9396 32.7393 32.4057C34.2967 31.8913 35.7941 30.3074 35.3293 27.4039C34.9626 25.4066 33.445 23.4406 30.9733 23.839C29.7378 24.038 29.3496 24.467 28.8123 25.0607C28.4163 25.4983 27.9676 25.9942 27.1663 26.4046C25.2553 27.3834 22.3721 26.8853 22.2503 26.8635C21.871 26.7961 21.6182 26.4338 21.6857 26.0544C21.7532 25.6751 22.1155 25.4223 22.4948 25.4898C22.547 25.4988 25.048 25.9218 26.5302 25.1627C27.1043 24.8686 27.4314 24.5072 27.7777 24.1245C28.3657 23.4748 29.032 22.7384 30.7513 22.4614C34.0013 21.9381 36.2054 24.4293 36.7032 27.1608C36.7041 27.1656 36.7048 27.1703 36.7056 27.175C36.962 28.7672 36.7379 30.2314 36.0576 31.4094C35.4182 32.5167 34.422 33.3194 33.1769 33.7307C32.8175 33.8494 32.4644 33.9004 32.1234 33.9004Z" fill="black" fill-opacity="0.5"/>
<path d="M29.0919 19.8687C25.8292 19.8687 24.2646 16.6293 24.1996 16.4911C24.0353 16.1426 24.1846 15.7269 24.5332 15.5626C24.8811 15.3986 25.2962 15.5472 25.4609 15.8948C25.4817 15.9377 26.7302 18.4734 29.0925 18.4734C29.0956 18.4734 29.0984 18.4734 29.1014 18.4734C31.3343 18.4675 32.1816 17.0385 32.4423 16.4244C32.5928 16.0698 33.0024 15.9044 33.357 16.0548C33.7116 16.2053 33.8772 16.6149 33.7266 16.9696C33.4388 17.6476 32.2551 19.8604 29.1051 19.8687C29.1007 19.8687 29.0963 19.8687 29.0919 19.8687Z" fill="black" fill-opacity="0.5"/>
<path d="M29.0058 17.1486C28.7945 17.1486 28.5878 17.1079 28.3912 17.0276C27.989 16.8636 27.6745 16.5523 27.5061 16.1515C27.3376 15.7506 27.3353 15.3082 27.4997 14.9059C27.7507 14.2909 28.3421 13.8933 29.0065 13.8933C29.2178 13.8933 29.4246 13.934 29.6212 14.0143C30.0234 14.1784 30.3379 14.4896 30.5063 14.8905C30.6746 15.2912 30.6769 15.7334 30.5128 16.1358C30.2614 16.7512 29.67 17.1486 29.0058 17.1486ZM29.0065 15.2887C28.9345 15.2887 28.835 15.3266 28.7914 15.4332C28.7597 15.5108 28.7784 15.5778 28.7923 15.6109C28.8062 15.6439 28.8411 15.7042 28.9184 15.7358C28.947 15.7474 28.9763 15.7533 29.0058 15.7533C29.0778 15.7533 29.1774 15.7154 29.221 15.6085C29.2526 15.5313 29.2339 15.4641 29.2201 15.431C29.2062 15.3979 29.1713 15.3378 29.094 15.3063C29.0654 15.2946 29.036 15.2887 29.0065 15.2887Z" fill="black" fill-opacity="0.5"/>
<path d="M37.9879 45.2445H12.0122C8.01171 45.2445 4.75708 41.9896 4.75708 37.9888V12.0111C4.75708 8.01026 8.01171 4.75537 12.0122 4.75537H37.9879C41.9884 4.75537 45.243 8.01026 45.243 12.0111V37.9888C45.243 41.9896 41.9884 45.2445 37.9879 45.2445ZM12.0122 5.68555C8.52459 5.68555 5.68718 8.52318 5.68718 12.011V37.9888C5.68718 41.4766 8.52459 44.3143 12.0122 44.3143H37.9879C41.4754 44.3143 44.3129 41.4766 44.3129 37.9888V12.011C44.3129 8.52318 41.4754 5.68555 37.9879 5.68555H12.0122Z" fill="black" fill-opacity="0.5"/>
<path d="M29.7478 50C28.4814 50 27.2292 49.6635 26.1265 49.0268L3.631 36.0379C1.95269 35.0689 0.7522 33.5042 0.250572 31.6322C-0.251009 29.7601 0.00645229 27.8048 0.975432 26.1264L13.9633 3.62898C15.2555 1.39055 17.6655 0 20.2527 0C21.5191 0 22.7712 0.336556 23.8739 0.973245L46.3695 13.9621C48.0478 14.9312 49.2483 16.4958 49.7499 18.3678C50.2515 20.2399 49.9941 22.1952 49.0251 23.8736L36.0372 46.371C34.7449 48.6094 32.335 50 29.7478 50ZM20.2527 0.93022C17.9967 0.93022 15.8954 2.14254 14.7688 4.09409L1.78094 26.5915C0.936183 28.0547 0.711779 29.7594 1.14899 31.3914C1.58626 33.0234 2.63287 34.3875 4.09603 35.2323L26.5916 48.2212C27.553 48.7763 28.6444 49.0697 29.7477 49.0697C32.0037 49.0697 34.105 47.8574 35.2317 45.9059L48.2196 23.4085C49.0643 21.9452 49.2887 20.2406 48.8514 18.6086C48.4142 16.9766 47.3676 15.6125 45.9045 14.7677L23.4088 1.77882C22.4474 1.22371 21.356 0.93022 20.2527 0.93022Z" fill="black" fill-opacity="0.5"/>
<path d="M20.2524 50C17.6652 50 15.2553 48.6095 13.963 46.371L0.975108 23.8736C0.00612801 22.1952 -0.251244 20.2399 0.250384 18.3678C0.751965 16.4958 1.95251 14.9312 3.63077 13.9621L26.1263 0.973245C27.229 0.336602 28.4812 0 29.7475 0C32.3348 0 34.7447 1.39055 36.037 3.62898L49.0249 26.1264C51.0251 29.5912 49.8339 34.0375 46.3693 36.0379L23.8737 49.0267C22.771 49.6634 21.5188 50 20.2524 50ZM29.7475 0.93022C28.6442 0.93022 27.5529 1.22371 26.5914 1.77882L4.09584 14.7677C2.63272 15.6125 1.58612 16.9766 1.14886 18.6086C0.711555 20.2407 0.935951 21.9452 1.78066 23.4085L14.7686 45.9058C15.8952 47.8574 17.9965 49.0697 20.2525 49.0697C21.3558 49.0697 22.4472 48.7763 23.4087 48.2211L45.9043 35.2323C48.9246 33.4883 49.9632 29.6121 48.2194 26.5915L35.2315 4.09409C34.1048 2.14258 32.0035 0.93022 29.7475 0.93022Z" fill="black" fill-opacity="0.5"/>
</svg>
