<svg width="55" height="33" viewBox="0 0 55 33" fill="none" xmlns="http://www.w3.org/2000/svg">
<path d="M54.7105 16.0575C54.6932 16.0501 52.9418 15.261 51.1327 12.9228C50.2352 11.7618 49.4961 10.2967 48.7141 8.74532C46.8622 5.07063 44.9465 1.271 40.6603 1.271C39.5572 1.271 37.7878 1.55361 36.0424 2.32038C33.5526 0.848572 30.6456 0 27.542 0C24.4234 0 21.5029 0.856009 19.0056 2.3412C17.2452 1.55807 15.4533 1.27175 14.3397 1.27175C10.0535 1.27175 8.13779 5.07137 6.28659 8.74605C5.50468 10.2974 4.76629 11.7626 3.86808 12.9235C2.07315 15.2446 0.305995 16.0515 0.287985 16.059C0.120649 16.1341 0.00959522 16.2955 0.000590588 16.4769C-0.00841405 16.6592 0.0861086 16.8302 0.245941 16.9202C0.266952 16.9321 2.4236 18.1622 3.86359 20.0713C4.72503 21.2144 5.44165 22.6468 6.19879 24.164C8.0575 27.8825 9.97846 31.7283 14.339 31.7283C15.3722 31.7283 17.7622 31.2114 19.0056 30.6588C21.5029 32.1432 24.4226 32.9993 27.5412 33H27.542C30.6456 33 33.5518 32.1514 36.0416 30.6796C37.2978 31.2248 39.6405 31.7283 40.6603 31.7283C45.0208 31.7283 46.9417 27.8833 48.8004 24.1647C49.5583 22.6475 50.2742 21.2151 51.1364 20.0713C52.5712 18.1682 54.7323 16.9321 54.754 16.9202C54.9138 16.8295 55.0084 16.6577 54.9994 16.4762C54.9904 16.2933 54.8793 16.1319 54.7105 16.0575ZM40.6632 8.03135H14.4208C17.2204 3.78401 22.0522 0.966079 27.5412 0.966079C33.0318 0.966079 37.8636 3.78401 40.6632 8.03135ZM43.2146 16.5C43.2146 24.7738 36.6487 31.5379 28.4125 31.9893L41.5262 9.52473C42.597 11.625 43.2146 13.99 43.2146 16.5ZM11.8702 16.5C11.8702 13.99 12.4878 11.625 13.5586 9.52473L26.6701 31.9893C18.4353 31.5364 11.8702 24.7731 11.8702 16.5ZM14.3788 8.99818H40.706L27.5412 31.5505L14.3788 8.99818ZM14.339 30.7614C10.584 30.7614 8.79961 27.1894 7.07297 23.7348C6.32934 22.2459 5.55943 20.7064 4.64471 19.492C3.60092 18.1087 2.24497 17.0734 1.4323 16.5231C2.18418 16.0434 3.40506 15.11 4.64095 13.511C5.59544 12.2757 6.39013 10.7005 7.15853 9.17667C8.9572 5.60834 10.6561 2.23708 14.339 2.23708C15.2282 2.23708 16.5991 2.44087 18.0166 2.97857C16.0266 4.35965 14.3562 6.16017 13.1331 8.25C13.1271 8.25893 13.1158 8.26339 13.1098 8.27306C13.1038 8.28273 13.1061 8.29462 13.1016 8.30429C11.6999 10.7206 10.8939 13.5177 10.8939 16.4993C10.8939 22.0816 13.7086 27.022 18.0024 30.0095C16.8212 30.4104 15.1043 30.7614 14.339 30.7614ZM50.3553 19.492C49.439 20.7064 48.6699 22.2459 47.9263 23.7356C46.2004 27.1901 44.4152 30.7614 40.6603 30.7614C39.9076 30.7614 38.2327 30.4223 37.0539 30.0296C41.3634 27.0444 44.1901 22.095 44.1901 16.5C44.1901 13.5185 43.3841 10.7221 41.9824 8.30578C41.9772 8.29537 41.9794 8.28347 41.9742 8.2738C41.9682 8.26413 41.9569 8.25967 41.9502 8.25C40.7211 6.1505 39.0402 4.34254 37.0381 2.95923C38.4361 2.43789 39.7831 2.23783 40.6603 2.23783C44.3439 2.23783 46.0428 5.60908 47.8415 9.17741C48.6091 10.7005 49.4038 12.2765 50.3583 13.511C51.5949 15.11 52.815 16.0441 53.5669 16.5231C52.755 17.0734 51.3983 18.1087 50.3553 19.492Z" fill="black" fill-opacity="0.5"/>
</svg>
