<svg width="40" height="50" viewBox="0 0 40 50" fill="none" xmlns="http://www.w3.org/2000/svg">
<path d="M22.2447 50C20.6747 50 20.5792 49.9696 20.4348 49.9236C18.862 49.4227 19.0013 47.2364 19.0396 46.8436L18.9935 32.5462C18.9935 32.53 18.9941 32.5137 18.9953 32.4975C19.0087 32.3267 19.3327 28.2934 20.0735 26.3822C20.5302 25.204 21.0392 24.0082 21.5866 22.8282C23.4327 18.8473 23.8841 16.9562 23.3755 15.3336C23.2253 14.8545 22.7947 13.2219 23.5561 12.3278C23.8349 12.0003 24.241 11.82 24.6996 11.82C25.5162 11.82 26.4556 12.3771 27.6542 13.5724C28.0157 13.886 30.8489 16.5526 29.1079 21.6965C28.8526 22.4932 28.4569 23.4186 28.0744 24.3136C27.7169 25.1498 27.3473 26.0145 27.1186 26.7182C26.9086 27.3642 26.8783 27.6908 26.8847 27.8442C27.0152 27.8219 27.2529 27.7586 27.6426 27.5839C28.0817 27.2106 30.8443 24.6915 30.6673 20.5822C30.4218 14.8886 27.62 12.1815 25.1479 9.79312C24.3621 9.03383 23.6198 8.3167 23.0023 7.54628C21.6608 5.8722 19.4163 3.07128 20.1977 1.12617C20.4615 0.441741 21.1951 0 22.069 0C22.6797 0 23.6296 0.205619 24.6932 1.18287C25.0748 1.50129 25.458 1.81615 25.8633 2.14925C28.2228 4.0884 30.897 6.28633 33.7046 9.59327C35.4034 11.5941 37.5054 14.3552 38.6909 17.9762C40.0942 22.2625 39.8417 26.7687 37.9401 31.3698C37.9373 31.3766 37.9344 31.3833 37.9313 31.39C37.3872 32.5858 36.2382 33.8932 35.0219 35.2774C33.382 37.1434 31.5235 39.2584 31.5235 40.8778C31.5235 42.218 32.5183 43.9231 33.3223 45.2971C34.2372 46.67 34.4421 47.9587 33.8842 48.835C33.5807 49.3117 32.9136 49.88 31.459 49.8801C31.4361 49.8801 31.4132 49.8799 31.39 49.8797C31.0599 49.8861 25.1252 50 22.2447 50ZM20.8961 48.6412C21.0214 48.6485 21.3577 48.6595 22.2448 48.6595C25.1767 48.6595 31.3092 48.5405 31.3708 48.5392C31.3804 48.5391 31.3901 48.5392 31.3996 48.5392C32.019 48.5494 32.4162 48.4246 32.576 48.1735C32.8448 47.7513 32.6213 46.8649 32.0198 45.9676C32.0124 45.9565 32.0054 45.9451 31.9987 45.9337C31.117 44.4271 30.0196 42.5519 30.0196 40.8777C30.0196 38.7958 31.9607 36.587 33.838 34.4508C34.9837 33.147 36.0662 31.9152 36.5332 30.8959C40.454 21.3971 36.1127 14.6508 32.5055 10.4021C29.779 7.19059 27.1571 5.03577 24.8439 3.13462C24.4318 2.79583 24.0423 2.47587 23.6519 2.15007C23.6425 2.1423 23.6334 2.13431 23.6246 2.12607C22.8573 1.41691 22.2812 1.34038 22.0691 1.34038C21.9328 1.34038 21.6931 1.36933 21.6195 1.56302C21.6179 1.56725 21.6163 1.57147 21.6145 1.57569C21.0946 2.85923 23.2097 5.49863 24.2262 6.76702C24.789 7.46934 25.5002 8.15651 26.2533 8.8841C28.7706 11.3162 31.9033 14.343 32.1701 20.5306C32.3902 25.6363 28.725 28.5249 28.5688 28.6453C28.5246 28.6795 28.476 28.7089 28.424 28.733C27.7433 29.049 27.218 29.1962 26.7712 29.1962C26.296 29.1962 25.8987 29.0209 25.6525 28.7024C25.0007 27.8594 25.6142 26.3041 26.6692 23.8363C27.0412 22.9661 27.4259 22.0662 27.6634 21.3241C27.6645 21.3207 27.6655 21.3174 27.6667 21.3142C28.3137 19.4052 28.3308 17.6836 27.7174 16.1971C27.262 15.0938 26.6075 14.5345 26.6009 14.529C26.5823 14.5137 26.5684 14.5009 26.5517 14.4841C25.4116 13.3431 24.8683 13.1854 24.7334 13.1638C24.6066 13.3537 24.5362 14.054 24.8241 14.9728C25.5133 17.1716 24.7065 19.6099 22.9765 23.3402C22.4405 24.4957 21.9421 25.6665 21.4952 26.8198C20.8457 28.4952 20.5252 32.234 20.4976 32.5675L20.5438 46.8715C20.5438 46.8942 20.5425 46.9169 20.5401 46.9395C20.4672 47.6177 20.6074 48.4733 20.8961 48.6412Z" fill="black" fill-opacity="0.5"/>
<path d="M17.3385 50C14.4581 50 8.52332 49.8861 8.19344 49.8797C8.1702 49.88 8.14734 49.8802 8.12448 49.8802C6.66992 49.8802 6.00279 49.3119 5.69931 48.8351C5.14136 47.9588 5.34634 46.67 6.26123 45.297C7.06521 43.923 8.05988 42.2178 8.05988 40.8778C8.05988 39.2585 6.2013 37.1435 4.56153 35.2775C3.3451 33.8933 2.19613 32.5858 1.65218 31.39C1.64909 31.3833 1.64622 31.3766 1.64336 31.3698C-0.258235 26.7688 -0.510877 22.2624 0.892482 17.9762C2.078 14.3552 4.18 11.5941 5.87879 9.59327C8.68611 6.28647 11.3603 4.08868 13.7196 2.1496C14.1251 1.81643 14.5083 1.50142 14.8901 1.18287C15.9537 0.205686 16.9037 0 17.5143 0C18.3883 0 19.1217 0.441741 19.3856 1.12617C20.167 3.07128 17.9225 5.8722 16.581 7.54628C15.9635 8.3167 15.2213 9.03383 14.4354 9.79312C11.9634 12.1815 9.16148 14.8885 8.91612 20.5822C8.73799 24.714 11.4961 27.2099 11.9395 27.5833C12.33 27.7584 12.568 27.8219 12.6987 27.8442C12.705 27.6909 12.6748 27.3643 12.4649 26.7183C12.2361 26.0146 11.8665 25.15 11.5091 24.3138C11.1266 23.4189 10.731 22.4936 10.4757 21.697C8.73445 16.5528 11.5681 13.8856 11.9293 13.5724C13.1279 12.377 14.0672 11.82 14.8838 11.82C15.3424 11.82 15.7485 12.0003 16.0273 12.3278C16.7886 13.2219 16.3581 14.8544 16.2079 15.3336C15.6993 16.9562 16.1507 18.8474 17.9969 22.8282C18.5442 24.0083 19.0533 25.2041 19.5099 26.3823C20.2507 28.2934 20.5747 32.3267 20.5882 32.4975C20.5894 32.5137 20.59 32.5299 20.59 32.5462L20.5438 46.8436C20.5822 47.2364 20.7215 49.4227 19.1486 49.9236C19.004 49.9696 18.9086 50 17.3385 50ZM8.19599 48.5392C8.20148 48.5392 8.20697 48.5392 8.21253 48.5393C8.27411 48.5406 14.4066 48.6596 17.3385 48.6596C18.225 48.6596 18.5614 48.6486 18.6869 48.6413C18.9743 48.4727 19.1172 47.6036 19.0434 46.9396C19.0408 46.9169 19.0396 46.8943 19.0397 46.8715L19.0858 32.5676C19.0582 32.234 18.7372 28.4939 18.0883 26.8199C17.6413 25.6667 17.143 24.4959 16.6069 23.3402C14.8769 19.61 14.0701 17.1717 14.7593 14.9729C15.047 14.0546 14.9769 13.3545 14.8502 13.1641C14.711 13.1867 14.1675 13.3475 13.0318 14.4841C13.0151 14.5009 12.9974 14.517 12.9787 14.5322C12.976 14.5345 12.3214 15.0938 11.8661 16.1972C11.2527 17.6837 11.2697 19.4052 11.9168 21.3142C11.9179 21.3175 11.9189 21.3209 11.92 21.3241C12.1575 22.0663 12.5422 22.9663 12.9142 23.8365C13.9691 26.3041 14.5826 27.8594 13.9308 28.7025C13.6847 29.021 13.2873 29.1963 12.8122 29.1963C12.3654 29.1964 11.8401 29.0492 11.1593 28.7332C11.1074 28.7091 11.0588 28.6796 11.0145 28.6454C10.8584 28.525 7.19312 25.6364 7.41322 20.5307C7.67993 14.3431 10.8127 11.3163 13.33 8.88423C14.0831 8.15671 14.7944 7.46947 15.3572 6.76715C16.3736 5.49869 18.4888 2.85936 17.9688 1.57582C17.9671 1.5716 17.9654 1.56731 17.9638 1.56316C17.8902 1.36939 17.6505 1.34051 17.5142 1.34051C17.3021 1.34051 16.726 1.41704 15.9587 2.1262C15.9499 2.13444 15.9407 2.14243 15.9314 2.1502C15.5408 2.47606 15.1513 2.79623 14.7389 3.13516C12.4258 5.03618 9.80411 7.19093 7.07785 10.4022C3.47061 14.651 -0.87062 21.3973 3.05011 30.8961C3.51714 31.9155 4.59957 33.1472 5.74531 34.451C7.62247 36.5871 9.56363 38.796 9.56363 40.8779C9.56363 42.5519 8.46632 44.4271 7.58466 45.9338C7.57797 45.9453 7.57089 45.9566 7.56344 45.9677C6.96196 46.865 6.73841 47.7515 7.00716 48.1737C7.16694 48.4247 7.5654 48.5499 8.18365 48.5393C8.18786 48.5392 8.19193 48.5392 8.19599 48.5392Z" fill="black" fill-opacity="0.5"/>
</svg>
