<svg width="50" height="50" viewBox="0 0 50 50" fill="none" xmlns="http://www.w3.org/2000/svg">
<path d="M25.0001 15.6167C21.0955 15.6167 17.9189 12.1139 17.9189 7.80836C17.9189 3.50283 21.0955 0 25.0001 0C28.9046 0 32.0813 3.50283 32.0813 7.80836C32.0813 12.1139 28.9046 15.6167 25.0001 15.6167ZM25.0001 1.20129C21.6962 1.20129 19.0083 4.16522 19.0083 7.80836C19.0083 11.4515 21.6962 14.4154 25.0001 14.4154C28.3039 14.4154 30.9918 11.4515 30.9918 7.80836C30.9918 4.16522 28.3039 1.20129 25.0001 1.20129Z" fill="black" fill-opacity="0.5"/>
<path d="M0.545221 48.1981C0.343679 48.1981 0.150035 48.0743 0.0555286 47.8612C-0.0766721 47.5633 0.0352648 47.2035 0.305495 47.0578C0.3348 47.0419 2.09905 46.0777 4.20228 44.2504C6.13447 42.5716 8.75909 39.7974 10.2902 36.1145C11.0809 34.2126 11.4235 32.073 11.7861 29.8077C12.2339 27.0109 12.697 24.119 14.0547 21.411L14.0704 21.3817C15.573 18.7492 16.8499 17.0237 20.7535 17.0237H27.1901C27.4909 17.0237 27.7348 17.2926 27.7348 17.6243C27.7348 17.9561 27.4909 18.225 27.1901 18.225H20.7535C17.3401 18.225 16.34 19.6618 15.0007 22.0071C13.7365 24.5359 13.2905 27.322 12.859 30.0166C12.4838 32.3598 12.1294 34.5732 11.2805 36.6152C9.65454 40.5261 6.88851 43.4495 4.85435 45.2132C2.65651 47.1188 0.859573 48.0963 0.78413 48.1369C0.707109 48.1784 0.625511 48.1981 0.545221 48.1981Z" fill="black" fill-opacity="0.5"/>
<path d="M49.4548 48.1981C49.3744 48.1981 49.2929 48.1784 49.2159 48.1369C49.1404 48.0962 47.3434 47.1188 45.1457 45.2132C43.1116 43.4495 40.3455 40.5261 38.7195 36.6152C37.8706 34.5732 37.5162 32.3598 37.141 30.0166C36.7095 27.322 36.2635 24.5359 34.9993 22.0071C33.66 19.6618 32.6599 18.225 29.2466 18.225H22.8098C22.509 18.225 22.2651 17.9561 22.2651 17.6243C22.2651 17.2926 22.509 17.0237 22.8098 17.0237H29.2465C33.1501 17.0237 34.427 18.7492 35.9296 21.3817L35.9453 21.411C37.3029 24.119 37.766 27.0109 38.2138 29.8077C38.5765 32.073 38.9191 34.2126 39.7098 36.1145C42.6544 43.1974 49.6244 47.02 49.6945 47.0578C49.9647 47.2035 50.0766 47.5633 49.9444 47.8612C49.85 48.0743 49.6563 48.1981 49.4548 48.1981Z" fill="black" fill-opacity="0.5"/>
<path d="M8.8547 50C6.23138 50 5.2021 48.9659 4.8012 48.0895C4.28694 46.9654 4.58827 45.6746 5.08586 44.9512C6.35312 43.1084 10.4547 42.5348 14.5472 42.1053C15.3157 42.0246 16.1867 41.9332 16.3621 41.8655C16.4749 41.821 16.609 41.774 16.7643 41.7197C17.8947 41.3238 19.9989 40.5868 20.3265 38.5996C20.7346 36.1246 20.146 34.1385 19.1518 31.1027C18.1518 28.0493 17.6208 23.5959 17.5987 23.4078C17.5601 23.0789 17.7705 22.7776 18.0689 22.735C18.367 22.6925 18.6404 22.9244 18.6791 23.2534C18.6844 23.2982 19.2172 27.7659 20.1764 30.6947C21.2362 33.9306 21.8473 36.0919 21.3984 38.8145C20.9535 41.5129 18.3468 42.4259 17.0941 42.8646C16.949 42.9154 16.8236 42.9593 16.7293 42.9966C16.444 43.1092 15.8532 43.1749 14.6504 43.3012C12.1796 43.5606 7.03831 44.1002 5.95385 45.6771C5.71326 46.0269 5.45169 46.8443 5.77383 47.5485C6.15305 48.3774 7.29313 48.8203 8.98101 48.7979C11.4043 48.7647 14.8489 48.1563 18.1802 47.568C23.0808 46.7025 27.3131 45.9551 28.8459 46.8219C29.1136 46.9732 29.2193 47.3352 29.082 47.6304C28.9447 47.9256 28.6164 48.0421 28.3488 47.8908C27.1332 47.2034 22.4683 48.0272 18.3525 48.7542C14.9824 49.3494 11.4977 49.9648 8.99458 49.9991C8.94746 49.9996 8.90078 50 8.8547 50Z" fill="black" fill-opacity="0.5"/>
<path d="M41.091 49.9999C41.0447 49.9999 40.9983 49.9996 40.9511 49.9989C38.0826 49.9597 33.9119 48.616 29.8784 47.3167C27.7582 46.6337 25.7557 45.9885 24.126 45.5994C22.0411 45.1016 21.2469 45.1988 20.9477 45.3679C20.6799 45.5192 20.3517 45.4027 20.2144 45.1076C20.0772 44.8124 20.1829 44.4504 20.4506 44.299C21.8135 43.5285 25.0371 44.5055 30.1839 46.1635C33.9625 47.3808 38.2451 48.7605 40.9646 48.7977C42.6524 48.8198 43.7926 48.3772 44.1718 47.5483C44.494 46.8441 44.2323 46.0267 43.9918 45.6769C42.9073 44.1 37.7661 43.5604 35.2953 43.301C34.0925 43.1747 33.5016 43.109 33.2163 42.9963C33.122 42.9591 32.9967 42.9152 32.8516 42.8644C31.5989 42.4257 28.9922 41.5128 28.5473 38.8143C28.0983 36.0917 28.7094 33.9304 29.7693 30.6945C30.7284 27.7657 31.2613 23.298 31.2665 23.2531C31.3052 22.9242 31.5783 22.6921 31.8768 22.7348C32.1751 22.7774 32.3856 23.0787 32.3469 23.4076C32.3248 23.5957 31.7939 28.049 30.7938 31.1025C29.7996 34.1382 29.211 36.1244 29.6191 38.5994C29.9468 40.5866 32.0509 41.3236 33.1814 41.7194C33.3367 41.7738 33.4708 41.8208 33.5837 41.8654C33.7589 41.933 34.63 42.0244 35.3985 42.1051C39.4909 42.5346 43.5925 43.1082 44.8598 44.951C45.3574 45.6745 45.6587 46.9652 45.1445 48.0893C44.7435 48.9657 43.7139 49.9999 41.091 49.9999Z" fill="black" fill-opacity="0.5"/>
</svg>
