<svg width="43" height="43" viewBox="0 0 43 43" fill="none" xmlns="http://www.w3.org/2000/svg">
<path d="M42.7938 21.1126C42.7868 21.1088 42.1142 20.7202 41.6704 20.1293C41.4003 19.7692 41.1689 19.3362 40.9229 18.8784C40.8031 18.654 40.682 18.4283 40.5546 18.2089C40.6059 18.0619 40.6541 17.9129 40.7169 17.7715C40.9667 17.2104 41.4415 16.7679 41.446 16.7641C41.5588 16.6595 41.6025 16.5003 41.5626 16.352C41.522 16.2036 41.4003 16.0895 41.25 16.0572C41.245 16.0565 40.767 15.9494 40.1901 15.4701C39.9073 15.2355 39.641 14.9344 39.3621 14.6161C39.3615 14.4291 39.3602 14.2414 39.3564 14.0537C39.3463 13.5218 39.3374 13.0197 39.4008 12.5613C39.5257 11.6668 39.868 11.1837 39.8693 11.1818C39.9625 11.0569 39.9764 10.8907 39.9073 10.7519C39.8382 10.6131 39.6962 10.5249 39.5409 10.5243C39.5326 10.5243 38.7554 10.5161 38.0789 10.2193C37.6675 10.038 37.2529 9.77491 36.8142 9.49596C36.6411 9.38628 36.4661 9.27787 36.2912 9.17136C36.1663 8.78082 36.0509 8.40803 35.997 8.05489C35.8829 7.31375 36.0382 6.84967 36.0389 6.8484C36.0915 6.70258 36.0573 6.53965 35.9514 6.42616C35.8455 6.31268 35.6857 6.26957 35.5348 6.31268C35.5285 6.31458 34.906 6.4921 34.2961 6.41856C34.0717 6.39066 33.8365 6.33677 33.5956 6.27464C33.5043 6.12311 33.413 5.97285 33.3255 5.83274C33.0713 5.42699 32.8519 5.07639 32.6738 4.65351C32.3232 3.82108 32.3701 3.23146 32.3701 3.22829C32.3859 3.0736 32.313 2.92335 32.1818 2.83966C32.0518 2.75661 31.8851 2.75407 31.7501 2.83205C31.7431 2.83585 31.0774 3.2264 30.3389 3.31833C29.9002 3.37349 29.5198 3.36081 29.0798 3.34559C28.9023 3.33988 28.7159 3.33607 28.5188 3.33354C28.3292 3.1389 28.1492 2.94553 28.0033 2.749C27.6375 2.25638 27.4867 1.62493 27.4854 1.61859C27.4506 1.46897 27.3339 1.35167 27.1843 1.31427C27.0372 1.2775 26.8768 1.32569 26.7734 1.44107C26.7703 1.44488 26.4425 1.80879 25.7414 2.07443C25.4073 2.20123 25.0256 2.28429 24.6243 2.36734C24.4462 2.2678 24.2674 2.16953 24.0873 2.07316C23.6277 1.82844 23.1947 1.59703 22.8327 1.32695C22.2412 0.885057 21.8514 0.211757 21.8476 0.205417C21.7709 0.0716446 21.6257 0.00633994 21.471 0C21.3169 0.00697393 21.1787 0.100175 21.114 0.239653C21.1115 0.245359 20.8592 0.780451 20.1415 1.33012C19.7738 1.61225 19.3313 1.85127 18.8622 2.10486C18.6986 2.19362 18.5357 2.28428 18.3734 2.37494C17.9588 2.28872 17.5651 2.20503 17.2215 2.07443C16.521 1.80879 16.1926 1.44488 16.192 1.44361C16.0912 1.32569 15.932 1.27433 15.7811 1.31173C15.6303 1.34851 15.5123 1.46706 15.4775 1.61795C15.4756 1.62429 15.3247 2.25575 14.9595 2.74837C14.7928 2.97344 14.6115 3.18075 14.4333 3.38616C14.2425 3.38997 14.0523 3.39377 13.8723 3.40074C13.4076 3.41849 12.9682 3.43561 12.5257 3.38426C11.7922 3.29867 11.1171 2.91257 11.1107 2.90876C10.9782 2.83205 10.8115 2.83649 10.6815 2.92018C10.5522 3.00323 10.4793 3.15349 10.4939 3.30691C10.4945 3.31262 10.5452 3.90223 10.201 4.7372C10.0266 5.15944 9.81491 5.5037 9.56957 5.90185C9.48271 6.04323 9.39142 6.19603 9.30076 6.35009C9.29125 6.35262 9.28174 6.35515 9.27286 6.35769C8.85001 6.47688 8.4506 6.58973 8.07466 6.63601C7.46542 6.71146 6.84161 6.53204 6.8359 6.53014C6.68629 6.48829 6.52845 6.53077 6.42257 6.64298C6.31607 6.75393 6.28119 6.91751 6.33064 7.06269C6.33254 7.06713 6.48785 7.53248 6.37374 8.27298C6.31795 8.6369 6.19749 9.02046 6.06879 9.42368C5.90967 9.51942 5.75118 9.61705 5.59332 9.71595C5.14194 9.99935 4.7153 10.2669 4.28801 10.4482C3.45562 10.8026 2.86727 10.7589 2.8641 10.7576C2.71132 10.7443 2.55856 10.8159 2.47678 10.9472C2.39309 11.0784 2.39117 11.2451 2.47105 11.3789C2.47485 11.3853 2.86727 12.0497 2.96173 12.7877C3.01815 13.2321 3.00614 13.6898 2.99346 14.1748C2.98839 14.3809 2.98521 14.5933 2.98394 14.8069C2.73479 15.0903 2.49389 15.3585 2.24094 15.5684C1.68875 16.0267 1.2304 16.1294 1.2304 16.1294C1.07825 16.1592 0.955259 16.2727 0.913417 16.4217C0.871576 16.5707 0.916586 16.7317 1.0307 16.837C1.03577 16.8408 1.49094 17.2649 1.72994 17.8019C1.87512 18.1291 1.97911 18.5088 2.08879 18.9095L2.06724 18.9494C1.82316 19.4078 1.59365 19.8402 1.32485 20.2016C0.883613 20.7937 0.211592 21.1849 0.204618 21.1893C0.0714853 21.2661 -0.00710124 21.4125 0.000506343 21.5659C0.00747996 21.72 0.100676 21.8576 0.241416 21.9222C0.246488 21.9248 0.781521 22.1758 1.33244 22.8916C1.71091 23.383 1.90935 23.7443 2.04882 24.0385C1.95182 24.4246 1.85736 24.7904 1.7236 25.1068C1.496 25.6469 1.04971 26.0774 1.04591 26.0819C0.934962 26.1884 0.894375 26.3488 0.937485 26.4959C0.980595 26.6436 1.10424 26.7552 1.25513 26.785C1.2602 26.7856 1.71726 26.8788 2.27642 27.3251C2.51733 27.5172 2.74809 27.762 2.98456 28.02C2.98583 28.2203 2.98775 28.4213 2.99346 28.6217C3.00677 29.1415 3.01879 29.6322 2.96173 30.0786C2.86727 30.8108 2.4736 31.4816 2.47043 31.4886C2.39182 31.6211 2.395 31.7866 2.47678 31.9178C2.55856 32.0484 2.6993 32.1232 2.86159 32.1099C2.8673 32.1073 3.45498 32.0649 4.28801 32.4193C4.7153 32.6012 5.14196 32.8681 5.59398 33.1522C5.7512 33.2511 5.9103 33.3481 6.06879 33.4438C6.19812 33.847 6.31859 34.2312 6.37374 34.5945C6.48785 35.3357 6.33255 35.7997 6.33191 35.801C6.27929 35.9468 6.31353 36.1098 6.4194 36.2232C6.52591 36.3367 6.68565 36.3811 6.8359 36.3367C6.84224 36.3348 7.46542 36.1554 8.07466 36.2308C8.44933 36.2771 8.84813 36.3893 9.27035 36.5085C9.38636 36.7032 9.50681 36.8972 9.62726 37.0893C9.9043 37.5286 10.1661 37.9445 10.3462 38.3573C10.641 39.0344 10.646 39.8116 10.646 39.8199C10.6467 39.9739 10.7348 40.1147 10.8711 40.1851C10.9307 40.2155 10.9947 40.2307 11.0588 40.2307C11.1443 40.2307 11.2293 40.2041 11.3003 40.1534C11.3054 40.1502 11.7884 39.8104 12.6842 39.6886C13.1362 39.6271 13.5077 39.636 13.9388 39.6481C14.0935 39.6525 14.2653 39.6544 14.4365 39.6557C14.6292 39.8528 14.8118 40.0488 14.9595 40.2478C15.3247 40.7411 15.4756 41.3725 15.4775 41.3789C15.513 41.5285 15.6296 41.6458 15.7792 41.6832C15.8122 41.6914 15.8465 41.6959 15.8794 41.6959C15.9961 41.6959 16.1102 41.6458 16.1894 41.5564C16.1926 41.5532 16.5204 41.1893 17.2215 40.9237C17.5658 40.7931 17.9588 40.7087 18.3734 40.6231C18.5351 40.7144 18.6986 40.8051 18.8622 40.8939C19.3307 41.1475 19.7732 41.3865 20.1415 41.6686C20.8592 42.2183 21.1115 42.7534 21.1128 42.7559C21.1762 42.8979 21.3131 42.9924 21.4691 43C21.476 43 21.4824 43 21.4894 43C21.6365 43 21.774 42.9214 21.8469 42.792C21.8513 42.7851 22.2356 42.1162 22.8315 41.6705C23.1935 41.4004 23.6271 41.169 24.0861 40.9243C24.2661 40.8279 24.4455 40.7297 24.6231 40.6301C25.0244 40.7138 25.406 40.7962 25.7401 40.923C26.4412 41.1893 26.769 41.5532 26.7703 41.5545C26.8495 41.6464 26.9643 41.6978 27.0828 41.6978C27.1152 41.6978 27.1475 41.694 27.1805 41.6857C27.3314 41.649 27.4486 41.5298 27.4841 41.3789C27.486 41.3725 27.6363 40.7417 28.0021 40.2485C28.1631 40.0316 28.3647 39.8186 28.5777 39.6031C28.7045 39.6005 28.8307 39.5993 28.9568 39.5955C29.4887 39.5796 29.9915 39.5638 30.4498 39.6227C31.3456 39.7381 31.8332 40.0741 31.8357 40.076C31.9067 40.128 31.9916 40.1546 32.0772 40.1546C32.1419 40.1546 32.2065 40.1394 32.2661 40.109C32.4043 40.038 32.4906 39.8947 32.4893 39.7387C32.4887 39.7311 32.4855 38.9602 32.7777 38.2748C32.9546 37.8602 33.2126 37.443 33.4872 37.0011C33.5791 36.8534 33.6678 36.7032 33.7579 36.5542C33.9411 36.5104 34.1205 36.4724 34.2942 36.4508C34.9041 36.376 35.5266 36.5548 35.533 36.5567C35.6819 36.6011 35.8404 36.5555 35.9463 36.4439C36.0528 36.3323 36.0877 36.1693 36.0382 36.0235C36.0363 36.0191 35.881 35.5544 35.9951 34.8132C36.049 34.4601 36.165 34.0873 36.2893 33.6968C36.4642 33.5903 36.6392 33.4825 36.8123 33.3722C37.251 33.0938 37.6656 32.8301 38.077 32.6494C38.7529 32.3521 39.5308 32.3438 39.539 32.3438C39.693 32.3432 39.8338 32.2544 39.9029 32.1175C39.9726 31.9799 39.9599 31.8138 39.8693 31.6889C39.8661 31.6838 39.5238 31.2014 39.3989 30.3062C39.3349 29.8484 39.3444 29.3463 39.3545 28.815C39.3583 28.6274 39.3596 28.4397 39.3602 28.2527C39.6391 27.9344 39.9054 27.6333 40.1882 27.3987C40.7651 26.9194 41.2431 26.8129 41.2444 26.8122C41.3965 26.7824 41.5195 26.669 41.5613 26.52C41.6032 26.3703 41.5582 26.2099 41.4441 26.1047C41.439 26.1003 40.9641 25.6584 40.715 25.0973C40.6598 24.973 40.6148 24.8348 40.5685 24.6979C40.6814 24.5007 40.7904 24.2997 40.8982 24.0987C41.1505 23.6296 41.3889 23.1871 41.6704 22.8187C42.2181 22.101 42.7532 21.8474 42.7557 21.8462C42.8977 21.7828 42.9915 21.6452 42.9991 21.4899C43.0093 21.3364 42.9288 21.19 42.7938 21.1126ZM40.4601 16.6309C40.2902 16.8471 40.1032 17.1248 39.9644 17.4367C39.757 17.9034 39.6246 18.3788 39.4971 18.8385C39.3044 19.5308 39.1212 20.1306 38.744 20.5281C38.5608 20.3709 38.3623 20.1749 38.1956 19.9486C37.9274 19.5853 37.6998 19.1504 37.4577 18.6901C37.1508 18.1043 36.8218 17.4798 36.3768 16.9688C36.4655 16.4198 36.4408 15.9538 36.4091 15.5062C36.3806 15.096 36.3527 14.708 36.4173 14.249C36.4484 14.0265 36.4934 13.8299 36.5429 13.6594C37.4209 13.6683 38.0447 14.3619 38.6958 15.1055C39.0001 15.4536 39.3152 15.8131 39.6645 16.1034C39.9574 16.3475 40.2319 16.5162 40.4601 16.6309ZM29.89 34.7498C29.6808 35.1879 29.568 35.5778 29.5078 35.8828C29.2041 35.742 28.8066 35.5899 28.3787 35.5163C27.8728 35.4288 27.3269 35.4187 26.7988 35.4086C25.5651 35.3851 24.3993 35.3629 23.712 34.4385C23.5681 34.2445 23.4255 33.9605 23.3101 33.6473C23.5561 33.4996 23.8141 33.3557 24.088 33.2099C25.2386 32.5968 26.5376 31.8994 26.8134 30.3918C26.9117 30.4019 27.0106 30.419 27.1069 30.419C28.1156 30.419 29.0431 29.889 29.8862 29.4065C30.2191 29.2157 30.5373 29.0452 30.8524 28.8968C31.3361 29.3989 31.6157 29.8345 31.7659 30.3341C32.0911 31.4169 31.4369 32.3647 30.7452 33.3677C30.4359 33.8122 30.1183 34.2731 29.89 34.7498ZM21.5001 38.4226C21.3074 38.1785 21.0304 37.8824 20.6443 37.5863C20.2252 37.2655 19.7327 36.9992 19.2572 36.7418C18.8648 36.5295 18.4647 36.3114 18.1116 36.066C18.6416 35.8815 19.1298 35.5804 19.5178 35.0586C19.7688 34.7207 19.9425 34.3473 20.0642 33.9016C20.089 33.9193 20.1187 33.9352 20.1428 33.9535C20.8605 34.5032 21.1128 35.0383 21.114 35.0408C21.1774 35.1829 21.3144 35.2773 21.4703 35.2849C21.4773 35.2856 21.4837 35.2856 21.4907 35.2856C21.6377 35.2856 21.7753 35.2069 21.8482 35.0776C21.852 35.0719 22.1455 34.5609 22.6172 34.1349C22.7446 34.4411 22.8917 34.72 23.0489 34.9312C23.5428 35.5956 24.197 35.91 24.8982 36.0666C24.5318 36.3247 24.1102 36.5516 23.6981 36.7716C23.2328 37.0202 22.7509 37.2763 22.3389 37.5838C21.9921 37.8437 21.7062 38.1595 21.5001 38.4226ZM13.1426 35.9779C13.1115 35.9652 13.0811 35.9506 13.0462 35.9455C12.9828 35.6507 12.8738 35.2862 12.6785 34.8773C12.4503 34.4005 12.1327 33.9396 11.8246 33.4939C11.1323 32.4909 10.4787 31.5437 10.8045 30.4609C10.9732 29.8979 11.3117 29.4021 11.9286 28.8106C12.3032 28.971 12.6817 29.1777 13.0804 29.4059C13.9236 29.8884 14.8505 30.4184 15.8598 30.4184C15.9612 30.4184 16.0652 30.4013 16.1685 30.3899C16.4525 31.8702 17.7325 32.5657 18.8648 33.1782C19.0251 33.265 19.176 33.35 19.3282 33.4356C19.2337 33.8971 19.0866 34.2579 18.8578 34.566C18.1706 35.4903 17.0047 35.5125 15.771 35.536C15.2429 35.5461 14.6971 35.5563 14.1912 35.6438C13.7956 35.7122 13.4355 35.8473 13.1426 35.9779ZM6.80356 15.9551C6.81623 15.4276 6.83021 14.8811 6.76428 14.372C6.70913 13.9409 6.57534 13.537 6.44792 13.2283C6.75476 13.1807 7.14908 13.085 7.59729 12.8948C8.08354 12.6881 8.55774 12.3908 9.01547 12.1029C9.30836 11.9191 9.60634 11.7352 9.90621 11.5736C9.87514 11.9159 9.90238 12.2729 10.0146 12.6463C10.1902 13.2308 10.5059 13.7456 11.0156 14.2991C10.2568 14.5527 9.74136 14.4982 9.73692 14.4969C9.58413 14.4772 9.43009 14.5432 9.34197 14.6706C9.25321 14.7987 9.24435 14.9654 9.31852 15.1024C9.32106 15.1068 9.50744 15.4574 9.6374 15.9259C9.23863 15.8657 8.86838 15.8727 8.44933 15.9506C7.73993 16.0832 7.21819 16.4433 6.79787 16.9035C6.78899 16.591 6.79531 16.2702 6.80356 15.9551ZM12.6785 7.99213C12.8877 7.55404 13.0006 7.1635 13.0614 6.85918C13.3645 6.99993 13.762 7.15145 14.1905 7.22563C14.6964 7.31312 15.2423 7.32327 15.7697 7.33278C17.0041 7.35624 18.1699 7.37843 18.8571 8.30279C19.1297 8.66924 19.2908 9.09972 19.3789 9.70011C19.3827 9.72737 19.3967 9.74956 19.4055 9.77429C19.2274 9.87573 19.0467 9.97653 18.8571 10.0792C17.7876 10.6568 16.5964 11.3162 16.2255 12.6323C14.9183 12.3407 13.6276 13.0127 12.4738 13.6207C12.2519 13.738 12.0363 13.8509 11.8265 13.9542C11.2787 13.4083 10.9624 12.9366 10.8033 12.4085C10.478 11.3257 11.1323 10.3778 11.8239 9.37487C12.1327 8.9298 12.4503 8.46889 12.6785 7.99213ZM20.6449 5.41177C21.0304 5.11633 21.3081 4.81962 21.5008 4.57553C21.7068 4.83864 21.9921 5.15437 22.3408 5.41494C22.7516 5.72179 23.2334 5.97857 23.6994 6.22709C24.0588 6.41856 24.4246 6.61636 24.7562 6.83445C24.1096 7.00183 23.5111 7.3201 23.0508 7.93951C22.8416 8.22037 22.6552 8.60837 22.5107 9.02554C22.1018 8.62422 21.845 8.18549 21.8418 8.18042C21.7651 8.04728 21.6206 7.97311 21.4653 7.97501C21.3112 7.98199 21.173 8.07518 21.1084 8.21466C21.1058 8.22036 20.8541 8.75292 20.1403 9.30133C20.0224 8.70157 19.829 8.22797 19.519 7.81144C19.1627 7.33214 18.7234 7.03479 18.2435 6.8465C18.5636 6.63664 18.9123 6.44328 19.2572 6.25689C19.7327 5.99949 20.2252 5.7332 20.6449 5.41177ZM29.89 8.12019C30.1183 8.59759 30.4359 9.05787 30.744 9.50357C31.4363 10.5065 32.0899 11.4537 31.7647 12.5366C31.6252 13.0007 31.3691 13.4115 30.9468 13.8693C30.8048 13.797 30.6641 13.726 30.5164 13.6486C29.3816 13.0533 28.1086 12.3952 26.7633 12.7128C26.4279 11.3143 25.1886 10.639 24.0798 10.0482C23.7685 9.88206 23.4787 9.71786 23.2055 9.54795C23.3285 9.11556 23.5149 8.69523 23.7114 8.43085C24.3986 7.50649 25.5645 7.4843 26.7988 7.46084C27.3263 7.4507 27.8721 7.44055 28.378 7.35369C28.8066 7.27952 29.2041 7.128 29.5071 6.98661C29.568 7.29157 29.6802 7.68147 29.89 8.12019ZM35.9076 12.9791C35.7903 13.267 35.6686 13.6543 35.6014 14.1355C35.5254 14.6795 35.557 15.1296 35.5875 15.5645C35.6046 15.8143 35.6205 16.0584 35.6147 16.3114C35.3276 16.1345 35.0011 16.0033 34.6226 15.9361C34.1991 15.8619 33.749 15.8701 33.2957 15.9475C33.4263 15.4688 33.6177 15.1055 33.6209 15.1011C33.6938 14.9654 33.6837 14.7999 33.5968 14.6732C33.51 14.5457 33.3616 14.4766 33.2044 14.4969C33.2006 14.4975 32.611 14.5654 31.7659 14.2465C31.7545 14.242 31.7418 14.2351 31.7304 14.2306C32.1362 13.7513 32.3993 13.2872 32.5533 12.7737C32.6991 12.29 32.696 11.836 32.6123 11.4043C32.8728 11.5526 33.1321 11.7162 33.387 11.8785C33.8333 12.1619 34.2942 12.4548 34.7646 12.6615C35.1615 12.8358 35.5767 12.929 35.9076 12.9791ZM32.3416 17.8723C32.3593 19.0997 32.3733 20.3614 31.726 21.2014C31.7108 21.1868 31.7 21.171 31.6842 21.1564C31.0242 20.5725 29.6948 20.0424 28.8288 20.1433C28.5543 18.3503 27.6426 16.7679 26.3271 15.6356C26.6511 15.0814 26.8362 14.2573 26.8508 13.5465C27.9406 13.2397 29.0538 13.8122 30.1341 14.3783C30.5969 14.6212 31.0343 14.85 31.4749 15.0168C31.9295 15.1886 32.3276 15.2678 32.6357 15.3027C32.521 15.6165 32.4037 16.0255 32.3663 16.4585V16.4598V16.461C32.3283 16.901 32.3346 17.3727 32.3416 17.8723ZM30.9253 27.9572C30.4308 28.1436 29.9452 28.4219 29.4754 28.6908C28.4161 29.2962 27.4169 29.8668 26.3671 29.4516C25.7781 29.2189 25.2678 28.7846 24.6585 27.9908C27.1747 26.7964 28.9233 24.2376 28.9233 21.2718C28.9233 21.1665 28.9118 21.0638 28.9074 20.9592C29.4406 20.8787 30.595 21.2933 31.1377 21.7733C32.0005 22.5366 31.9238 23.6993 31.8427 24.9312C31.8078 25.458 31.7729 26.0026 31.8166 26.5143C31.8541 26.9473 31.9714 27.3562 32.0867 27.67C31.778 27.7055 31.3798 27.7854 30.9253 27.9572ZM22.635 33.104C22.5988 33.1224 22.5652 33.1408 22.5367 33.168C22.4726 33.2118 22.401 33.2504 22.3395 33.2961C21.9915 33.5567 21.7062 33.8718 21.5001 34.1349C21.308 33.8908 21.0304 33.5947 20.6443 33.2993C20.2252 32.9778 19.7327 32.7115 19.2572 32.4541C18.1852 31.874 17.1721 31.3269 16.9711 30.2136C16.9698 30.2054 16.9692 30.1971 16.9679 30.1889C17.7211 29.8738 18.3525 29.3171 19.0942 28.3129C19.8449 28.5684 20.6468 28.7136 21.483 28.7136C22.3192 28.7136 23.1206 28.5684 23.8718 28.3129C24.6186 29.3235 25.2532 29.8814 26.0121 30.1952C26.0108 30.2022 26.0108 30.2111 26.0102 30.2181C25.8168 31.3535 24.7885 31.9019 23.6994 32.4833C23.3374 32.6754 22.9754 32.8808 22.635 33.104ZM12.0395 27.9572C11.5856 27.7854 11.1868 27.7062 10.8787 27.6713C10.9935 27.3575 11.1107 26.9485 11.1481 26.5155C11.1925 26.0039 11.157 25.4587 11.1221 24.9318C11.041 23.7006 10.9649 22.5372 11.8278 21.7745C12.3698 21.2946 13.523 20.8819 14.0574 20.9605C14.053 21.0651 14.0416 21.1672 14.0416 21.2724C14.0416 24.2382 15.79 26.797 18.3069 27.9915C17.6976 28.7852 17.1873 29.2189 16.599 29.4522C15.5479 29.8687 14.5474 29.2969 13.49 28.6914C13.0196 28.4219 12.5346 28.1436 12.0395 27.9572ZM10.5731 16.4585C10.5357 16.0255 10.4184 15.6159 10.3031 15.3027C10.6118 15.2678 11.0099 15.188 11.4645 15.0168C11.9178 14.8456 12.3749 14.6047 12.8586 14.3505C13.9471 13.7773 15.0698 13.1979 16.0975 13.4521C16.0804 14.0962 16.2344 14.7936 16.5825 15.6863C15.2968 16.8154 14.4067 18.3763 14.136 20.1433C13.2719 20.0437 11.9406 20.5725 11.2813 21.1564C11.2673 21.1684 11.2585 21.1824 11.2451 21.195C10.4616 20.3201 10.5104 19.1022 10.5655 17.9167C10.5902 17.405 10.6131 16.9213 10.5731 16.4585ZM16.9629 13.0444C17.1638 11.9318 18.1769 11.384 19.2489 10.8045C19.7251 10.5471 20.217 10.2808 20.6373 9.95941C21.0228 9.66397 21.3004 9.36726 21.4932 9.12381C21.6967 9.38375 21.9801 9.69567 22.323 9.9537C22.3668 10.0938 22.4796 10.2086 22.6343 10.2377C22.6755 10.2453 22.7155 10.2409 22.7554 10.2365C23.0597 10.426 23.3754 10.6061 23.6918 10.7747C24.7809 11.3555 25.8092 11.9039 26.0025 13.04C26.1052 13.6461 25.936 14.5958 25.6697 15.1252C24.476 14.3099 23.035 13.8312 21.4836 13.8312C19.9165 13.8312 18.4628 14.3213 17.2621 15.1518C16.9432 14.2763 16.8551 13.6416 16.9629 13.0444ZM21.483 27.8888C17.8346 27.8888 14.8663 24.9204 14.8663 21.2724C14.8663 17.6238 17.8346 14.6554 21.483 14.6554C25.1309 14.6554 28.0985 17.6238 28.0985 21.2724C28.0985 24.9204 25.1309 27.8888 21.483 27.8888ZM6.37312 19.1073C6.93608 18.0092 7.46796 16.9714 8.60086 16.7603C8.94574 16.6962 9.28746 16.6829 9.75913 16.7894C9.77054 17.1299 9.76102 17.4913 9.74327 17.878C9.67987 19.217 9.62533 20.7164 10.7278 21.8398C10.1667 22.7876 10.2314 23.9396 10.2999 24.9851C10.3145 25.2101 10.3272 25.4276 10.3354 25.6406C9.72426 25.8257 9.2342 25.8784 8.74921 25.7978C7.63343 25.6146 7.07046 24.611 6.47326 23.5484C6.20826 23.0761 5.93377 22.5886 5.60601 22.1739C5.30424 21.7929 5.00374 21.5203 4.75586 21.332C5.01579 21.1215 5.32643 20.8311 5.58128 20.4786C5.88242 20.0627 6.13222 19.5771 6.37312 19.1073ZM6.44792 29.6417C6.57534 29.333 6.70913 28.9291 6.76428 28.498C6.82134 28.0549 6.82638 27.5084 6.83145 26.9295C6.83589 26.4851 6.84289 26.0369 6.87015 25.6248C7.31583 26.1117 7.86864 26.4895 8.61545 26.6119C8.81198 26.6442 9.00724 26.6607 9.2082 26.6607C9.55815 26.6607 9.92206 26.6081 10.3189 26.5054C10.2409 27.2174 9.8973 27.8659 9.89413 27.8729C9.82123 28.0086 9.83139 28.1741 9.91824 28.3009C10.0057 28.4283 10.1541 28.4968 10.3107 28.4771C10.3151 28.4765 10.601 28.4473 11.053 28.5323C10.5218 29.1003 10.1947 29.6259 10.0152 30.2238C9.90304 30.5972 9.87514 30.9541 9.90621 31.2965C9.60634 31.1348 9.30772 30.9503 9.01547 30.7671C8.55711 30.4793 8.08291 30.1819 7.59729 29.9746C7.14971 29.785 6.75476 29.6887 6.44792 29.6417ZM32.5533 30.0963C32.3935 29.5631 32.1121 29.0832 31.6804 28.5842C32.2681 28.4359 32.651 28.4765 32.6529 28.4771C32.8126 28.498 32.9603 28.4315 33.0484 28.3034C33.1372 28.1753 33.1461 28.0086 33.0719 27.8716C33.0681 27.8653 32.7061 27.1914 32.6396 26.4528C33.1093 26.5878 33.5258 26.6537 33.9252 26.6537C34.1382 26.6537 34.3462 26.6354 34.5554 26.5986C34.9332 26.5326 35.2604 26.402 35.5488 26.2258C35.5571 26.5181 35.5539 26.816 35.5482 27.1102C35.538 27.6516 35.5272 28.2108 35.6008 28.7345C35.6686 29.2157 35.7897 29.6031 35.907 29.8909C35.5767 29.941 35.1615 30.0342 34.7633 30.2092C34.2929 30.4159 33.832 30.7088 33.3857 30.9922C33.1309 31.1545 32.8716 31.318 32.611 31.4664C32.696 31.0334 32.6985 30.5801 32.5533 30.0963ZM34.414 25.7871C33.8846 25.8796 33.3356 25.8118 32.6332 25.5835C32.6421 25.3883 32.6522 25.1917 32.6655 24.9863C32.734 23.9459 32.7987 22.7984 32.2452 21.8525C33.1943 20.7823 33.1854 19.2398 33.1651 17.8602C33.16 17.4881 33.1607 17.1407 33.1752 16.8129C33.6228 16.7019 34.0679 16.6753 34.4787 16.7476C35.6129 16.9479 36.1549 17.9801 36.728 19.0724C36.974 19.5403 37.2275 20.0241 37.5318 20.4374C37.7899 20.7868 38.103 21.0746 38.3649 21.2825C38.363 21.2838 38.3617 21.2863 38.3592 21.2876C38.1145 21.4784 37.819 21.7523 37.523 22.1327C37.199 22.5499 36.929 23.0406 36.6684 23.5155C36.0826 24.5844 35.5279 25.5931 34.414 25.7871ZM37.7474 10.9732C38.1455 11.1481 38.5608 11.2413 38.8917 11.2908C38.7732 11.5786 38.6527 11.966 38.5855 12.4472C38.5272 12.8631 38.5259 13.2999 38.531 13.7336C38.0713 13.3056 37.5464 12.9519 36.8915 12.8555C36.9759 12.7325 36.9905 12.574 36.9239 12.439C36.8548 12.3001 36.7128 12.212 36.5575 12.2114C36.5575 12.2114 36.5479 12.2114 36.5454 12.2107C36.7983 11.5964 36.761 10.963 36.6266 10.3474C36.9924 10.5782 37.3657 10.8052 37.7474 10.9732ZM35.1418 7.22627C35.1221 7.48113 35.1253 7.8032 35.1824 8.17979C35.2509 8.62929 35.3973 9.0845 35.5387 9.52512C35.8373 10.4577 36.1124 11.3402 35.6787 12.0953C35.4892 12.051 35.2889 11.9914 35.0962 11.9064C34.6835 11.7251 34.2682 11.4613 33.8295 11.1824C33.3147 10.8559 32.7828 10.5205 32.2173 10.2973C31.9859 9.8529 31.6975 9.43383 31.4217 9.03505C31.1193 8.59696 30.8334 8.18296 30.6343 7.76516C30.465 7.41139 30.3757 7.10454 30.325 6.86489C31.0616 6.42933 31.9428 6.67025 32.8747 6.93272C33.309 7.05508 33.7579 7.18188 34.1953 7.23641C34.5351 7.27698 34.8679 7.2605 35.1418 7.22627ZM30.4416 4.13491C30.8727 4.08102 31.2772 3.94852 31.5865 3.82235C31.6328 4.12921 31.7273 4.52482 31.9156 4.97241C32.0696 5.33823 32.2522 5.65206 32.4436 5.96462C31.7577 5.79661 31.0419 5.70785 30.356 5.94496C30.2273 5.24757 29.8146 4.67888 29.3442 4.17359C29.6954 4.18246 30.0453 4.18436 30.4416 4.13491ZM26.0349 2.8441C26.3918 2.70906 26.6727 2.55246 26.885 2.41045C26.9896 2.66468 27.1386 2.96456 27.3428 3.23908C27.5469 3.5136 27.7935 3.77036 28.0427 4.02142C28.0496 4.0284 28.056 4.03538 28.0629 4.04235C28.1282 4.10765 28.1923 4.17548 28.2569 4.23951C28.8389 4.81645 29.3885 5.36993 29.5356 6.04323C29.3372 6.15988 28.8174 6.44138 28.2386 6.54155C27.7942 6.61827 27.3028 6.62778 26.783 6.63729C26.4673 6.64299 26.142 6.6506 25.8162 6.67342C25.7915 6.61065 25.7572 6.55106 25.7014 6.50478C25.2183 6.10346 24.6433 5.79661 24.0867 5.4999C23.6277 5.25518 23.1954 5.0244 22.834 4.75495C22.6647 4.62815 22.5145 4.4836 22.3826 4.33969C22.827 3.59031 23.7304 3.39568 24.6896 3.1966C25.1423 3.10277 25.6108 3.00514 26.0349 2.8441ZM20.6449 1.98377C21.0304 1.68832 21.3081 1.39161 21.5008 1.14753C21.7068 1.41063 21.9921 1.72636 22.3408 1.9863C22.6749 2.23609 23.0565 2.44975 23.4369 2.65517C22.8353 2.84156 22.2653 3.12052 21.8552 3.64293C21.8539 3.64103 21.8495 3.63278 21.8495 3.63278C21.7728 3.49901 21.6276 3.43118 21.4729 3.42737C21.3233 3.43371 21.1908 3.52437 21.1242 3.65751C20.7185 3.13256 20.1536 2.85043 19.5551 2.66277C19.9336 2.45419 20.3121 2.238 20.6449 1.98377ZM15.6239 3.23908C15.8268 2.96456 15.9764 2.66531 16.081 2.41045C16.2934 2.55309 16.5749 2.70906 16.9318 2.8441C17.3559 3.00514 17.8238 3.10213 18.2764 3.19596C19.2445 3.39694 20.1561 3.59221 20.5948 4.35871C20.4706 4.48551 20.3216 4.62118 20.1435 4.75749C19.7758 5.03898 19.3339 5.27864 18.8648 5.5316C18.2897 5.84289 17.6963 6.1656 17.2063 6.59227C16.7321 6.52951 16.2484 6.51746 15.7862 6.50858C15.2664 6.49907 14.7751 6.48956 14.3307 6.41285C14.1639 6.38432 14.0023 6.33867 13.8501 6.28732C13.845 5.33506 14.3706 4.72008 14.9804 4.01952C15.1979 3.76972 15.4192 3.51487 15.6239 3.23908ZM10.9636 5.05103C11.1488 4.60216 11.2401 4.20592 11.2845 3.89843C11.5945 4.02269 12.0002 4.15203 12.4313 4.20211C12.882 4.25474 13.3061 4.24396 13.7455 4.22811C13.3936 4.70614 13.1153 5.2425 13.0431 5.92087C12.9828 5.886 12.9448 5.86191 12.9435 5.86064C12.8142 5.77632 12.6475 5.77251 12.515 5.84796C12.3806 5.92404 12.2994 6.06986 12.3057 6.22392C12.3057 6.22519 12.3057 6.24674 12.3045 6.27717C11.6952 5.97349 11.0524 5.97222 10.4229 6.08C10.6188 5.75793 10.8051 5.43459 10.9636 5.05103ZM7.1903 8.39852C7.24799 8.02193 7.25114 7.69985 7.23085 7.44499C7.50346 7.47859 7.83822 7.49634 8.17739 7.4545C8.61483 7.40061 9.06364 7.27382 9.49791 7.15082C10.4666 6.87694 11.3827 6.62397 12.1352 7.13434C12.0845 7.28903 12.0205 7.4564 11.9342 7.63709C11.7352 8.05489 11.4486 8.46889 11.1469 8.90698C10.7969 9.41417 10.4286 9.95434 10.1813 10.5376C9.62026 10.757 9.09029 11.0828 8.57741 11.4043C8.12603 11.6877 7.7 11.9546 7.27334 12.1359C7.06667 12.224 6.87584 12.2868 6.70403 12.3324C6.25328 11.5723 6.53224 10.6828 6.83401 9.74132C6.97538 9.30196 7.12184 8.84676 7.1903 8.39852ZM4.61258 11.2071C4.99803 11.0435 5.37272 10.8204 5.74105 10.5928C5.60982 11.2065 5.5775 11.8373 5.83489 12.4491C5.68971 12.4428 5.54324 12.51 5.46273 12.6355C5.38285 12.7617 5.38223 12.9189 5.45197 13.0495C4.80216 13.1427 4.27975 13.4933 3.82329 13.9187C3.83217 13.5034 3.83406 13.0989 3.78081 12.6843C3.72565 12.2532 3.59191 11.8493 3.46448 11.54C3.77069 11.493 4.16563 11.3973 4.61258 11.2071ZM2.76903 16.203C3.1063 15.9228 3.41059 15.576 3.70412 15.2406C4.33745 14.5178 4.95366 13.8401 5.79937 13.8509C5.86276 14.043 5.91857 14.2554 5.9471 14.4766C6.00416 14.9236 5.99209 15.4149 5.97941 15.9348C5.96419 16.565 5.94773 17.2155 6.05931 17.8336C6.06375 17.8583 6.07578 17.8786 6.08466 17.9015C5.92617 18.1766 5.7797 18.4581 5.6396 18.7313C5.40249 19.1935 5.17808 19.631 4.91435 19.9962C4.64999 20.362 4.29879 20.653 4.06358 20.8254C3.36622 20.4305 3.13101 19.5967 2.89011 18.7111C2.77536 18.2914 2.65743 17.8583 2.48436 17.4684C2.35313 17.1736 2.17754 16.9105 2.01651 16.7038C2.23396 16.5929 2.49326 16.4325 2.76903 16.203ZM1.1505 21.5368C1.41359 21.3301 1.72807 21.0442 1.98799 20.6955C2.14839 20.4799 2.29356 20.2453 2.43239 20.0038C2.64477 20.5515 2.94527 21.0594 3.44928 21.415C2.89202 21.7885 2.58262 22.3413 2.37087 22.9335C2.26246 22.7661 2.14141 22.5892 1.98799 22.3901C1.6913 22.0059 1.39457 21.7289 1.1505 21.5368ZM2.03299 26.1992C2.18958 25.9906 2.35947 25.7256 2.48436 25.4289C2.64983 25.0377 2.75951 24.6028 2.86538 24.1824C3.10692 23.2245 3.33451 22.3198 4.16183 21.959C4.17324 21.9539 4.18023 21.9444 4.191 21.9387C4.39768 22.0883 4.67598 22.3267 4.96063 22.6862C5.24845 23.0488 5.49508 23.4882 5.75564 23.9523C5.88751 24.1869 6.02507 24.4272 6.17025 24.6636C6.03014 25.3116 6.01617 26.1243 6.00793 26.9213C6.00285 27.4748 5.99718 27.9978 5.9471 28.3928C5.92111 28.5938 5.87227 28.7878 5.81585 28.9672C4.98662 28.9742 4.37675 28.3211 3.74215 27.6244C3.73074 27.6123 3.71869 27.5997 3.70791 27.5876C3.69586 27.573 3.68382 27.5597 3.66987 27.547C3.39283 27.2433 3.1069 26.9346 2.79182 26.6835C2.51351 26.4604 2.25235 26.3057 2.03299 26.1992ZM4.61258 31.6629C4.16563 31.4727 3.77069 31.377 3.46448 31.3301C3.59191 31.0213 3.72565 30.6168 3.78081 30.1857C3.83406 29.7692 3.83155 29.3286 3.82267 28.893C4.28484 29.3241 4.81421 29.6798 5.4748 29.7698C5.46339 29.7907 5.4564 29.8028 5.45576 29.8041C5.37715 29.9372 5.38031 30.102 5.46273 30.2326C5.54134 30.3594 5.68778 30.4279 5.83423 30.4222C5.57684 31.0334 5.6098 31.6642 5.7404 32.2779C5.3727 32.0497 4.99803 31.8265 4.61258 31.6629ZM7.23085 35.4257C7.25051 35.1708 7.24736 34.8487 7.1903 34.4721C7.12184 34.0233 6.97537 33.5681 6.83463 33.1281C6.53286 32.1866 6.25392 31.2965 6.70403 30.5369C6.87584 30.5826 7.0673 30.646 7.27334 30.7341C7.7 30.9154 8.12603 31.183 8.57741 31.4657C9.08965 31.7878 9.62026 32.1131 10.1813 32.3324C10.4286 32.9157 10.7969 33.4559 11.1469 33.9631C11.4493 34.4011 11.7352 34.8151 11.9342 35.2329C12.0205 35.4136 12.0845 35.581 12.1352 35.7351C11.3821 36.2454 10.4672 35.9925 9.49791 35.7192C9.06364 35.5968 8.61483 35.4701 8.17739 35.4155C7.83695 35.3737 7.50346 35.3908 7.23085 35.4257ZM12.5739 38.8746C12.0928 38.9405 11.7048 39.0597 11.4169 39.1764C11.3688 38.8461 11.2762 38.4302 11.1031 38.0314C10.918 37.6066 10.6625 37.1907 10.407 36.785C10.6467 36.8268 10.8882 36.8579 11.1291 36.8579C11.5266 36.8579 11.9228 36.7862 12.3051 36.596C12.3058 36.6233 12.3057 36.6423 12.3057 36.6423C12.2975 36.7976 12.3774 36.9441 12.5118 37.0214C12.5416 37.0386 12.5765 37.0379 12.6088 37.0474C12.7356 37.7461 13.1489 38.3173 13.6206 38.8232C13.2903 38.8188 12.9588 38.822 12.5739 38.8746ZM16.9312 40.154C16.5742 40.289 16.2927 40.4456 16.0804 40.5883C15.9758 40.3341 15.8268 40.0342 15.6233 39.7597C15.4166 39.4813 15.1668 39.222 14.9152 38.9691C14.9088 38.9621 14.9025 38.9557 14.8955 38.9494C14.8327 38.8866 14.7712 38.8213 14.7085 38.7598C14.072 38.129 13.4684 37.5286 13.3943 36.7666C13.6466 36.648 13.9782 36.5187 14.3294 36.4578C14.7738 36.3811 15.2651 36.3716 15.785 36.3621C16.2142 36.3538 16.6617 36.3412 17.103 36.2898C17.1233 36.3209 17.1416 36.3538 17.1708 36.3792C17.6672 36.8205 18.2764 37.1495 18.8648 37.4678C19.3333 37.7207 19.7758 37.9597 20.1428 38.2419C20.321 38.3782 20.47 38.5139 20.5942 38.6407C20.1549 39.4065 19.2432 39.6024 18.2758 39.8028C17.8231 39.896 17.3553 39.993 16.9312 40.154ZM22.3395 41.0118C21.9915 41.2724 21.7062 41.5875 21.5001 41.8506C21.3074 41.6065 21.0304 41.3104 20.6443 41.0143C20.3121 40.7601 19.9336 40.5433 19.5545 40.3353C20.153 40.147 20.7185 39.8655 21.1242 39.34C21.1902 39.4744 21.3201 39.565 21.4703 39.5726C21.4773 39.5733 21.4837 39.5733 21.4907 39.5733C21.6377 39.5733 21.7753 39.4946 21.8482 39.3647C21.8482 39.3647 21.8526 39.3571 21.8539 39.3552C22.2641 39.8776 22.834 40.1572 23.4363 40.3436C23.0559 40.549 22.6743 40.762 22.3395 41.0118ZM27.3421 39.759C27.1386 40.0335 26.989 40.3334 26.8844 40.5876C26.672 40.445 26.3912 40.289 26.0343 40.1534C25.6102 39.9923 25.1423 39.8953 24.689 39.8015C23.7292 39.6024 22.8264 39.4078 22.3814 38.6578C22.5126 38.5151 22.6628 38.3706 22.8327 38.2438C23.1941 37.9737 23.6271 37.7429 24.0861 37.4982C24.6427 37.2015 25.2177 36.8953 25.7008 36.4933C25.7927 36.4166 25.8403 36.3088 25.8466 36.1979C26.1617 36.2194 26.4774 36.2264 26.783 36.2327C27.3028 36.2429 27.7942 36.2518 28.2386 36.3285C28.8364 36.4318 29.3778 36.7323 29.5572 36.8395C29.452 37.566 28.8719 38.1487 28.2569 38.7586C28.2468 38.7687 28.2373 38.7789 28.2271 38.789C28.004 38.7941 27.8252 38.9748 27.824 39.1986C27.6515 39.3799 27.486 39.565 27.3421 39.759ZM32.0227 37.9534C31.8515 38.3535 31.7634 38.7694 31.7171 39.1003C31.428 38.9855 31.0394 38.8689 30.5576 38.8074C30.1829 38.7586 29.7911 38.7579 29.4 38.7649C29.8735 38.2463 30.278 37.6592 30.3744 36.9358C30.6603 37.0322 30.9513 37.0766 31.2429 37.076C31.7026 37.076 32.1641 36.9802 32.6104 36.8636C32.3936 37.2205 32.1806 37.5832 32.0227 37.9534ZM35.1824 34.6902C35.1247 35.0668 35.1215 35.3889 35.1418 35.6438C34.8686 35.6095 34.5351 35.5924 34.1953 35.6343C34.0102 35.6571 33.8231 35.6977 33.6361 35.7408C33.5005 35.7059 33.361 35.7401 33.2589 35.834C33.1302 35.8688 33.0009 35.9018 32.8741 35.9373C31.9416 36.1998 31.0597 36.4401 30.3243 36.0051C30.3744 35.7655 30.4644 35.4586 30.6337 35.1049C30.8328 34.6871 31.1193 34.2731 31.4211 33.835C31.6969 33.4362 31.9859 33.0171 32.2167 32.5727C32.7822 32.3495 33.3141 32.0142 33.8289 31.6876C34.2676 31.4087 34.6828 31.1449 35.0955 30.9636C35.2889 30.8787 35.4886 30.8191 35.6781 30.7747C36.1118 31.5298 35.8366 32.4123 35.5374 33.3449C35.3973 33.7855 35.2515 34.2414 35.1824 34.6902ZM37.7474 31.8969C37.3657 32.0649 36.9923 32.2912 36.6259 32.522C36.7603 31.9064 36.7977 31.273 36.5448 30.6587C36.5479 30.6587 36.5568 30.6587 36.5568 30.6587C36.7108 30.658 36.851 30.5693 36.9207 30.4323C36.9898 30.2967 36.9765 30.1337 36.8896 30.0088C37.5458 29.9144 38.0732 29.5682 38.531 29.1396C38.5253 29.572 38.5272 30.0082 38.5855 30.4222C38.6533 30.9034 38.7738 31.2914 38.8917 31.5786C38.5608 31.6281 38.1455 31.7212 37.7474 31.8969ZM39.6645 26.7653C39.3152 27.0557 39.0001 27.4152 38.6958 27.7632C38.0441 28.5069 37.4196 29.2106 36.5429 29.21C36.4934 29.0395 36.449 28.8423 36.4173 28.6197C36.3533 28.1614 36.3628 27.6586 36.373 27.1261C36.3825 26.6068 36.3888 26.0724 36.3273 25.555C36.7584 25.0637 37.0855 24.4703 37.3924 23.9123C37.6485 23.4457 37.8913 23.0045 38.1753 22.6387C38.33 22.4396 38.4822 22.2798 38.6229 22.1486C39.125 22.6063 39.3298 23.3557 39.5447 24.1438C39.6639 24.5793 39.7862 25.0288 39.9656 25.4327C40.1045 25.7452 40.2921 26.0223 40.4614 26.2385C40.2319 26.3539 39.9574 26.5219 39.6645 26.7653ZM41.0174 22.3198C40.7245 22.7033 40.4791 23.1484 40.2433 23.5852C40.0487 22.8973 39.7951 22.1879 39.2886 21.6591C39.4173 21.5926 39.506 21.4677 39.5149 21.3218C39.5206 21.2153 39.4743 21.1215 39.4077 21.0429C39.8287 20.5642 40.0411 19.941 40.2205 19.3108C40.462 19.7622 40.7125 20.2263 41.0117 20.6245C41.2723 20.9719 41.5886 21.2572 41.8517 21.4626C41.6082 21.6553 41.3122 21.9337 41.0174 22.3198Z" fill="black" fill-opacity="0.5"/>
</svg>
