<svg width="50" height="50" viewBox="0 0 50 50" fill="none" xmlns="http://www.w3.org/2000/svg">
<path d="M25 30.0721C22.206 30.0721 19.9329 28.0987 19.9329 25.673C19.9329 23.2474 22.206 21.2739 25 21.2739C27.7941 21.2739 30.0672 23.2474 30.0672 25.673C30.0672 28.0987 27.7941 30.0721 25 30.0721ZM25 22.1332C22.7517 22.1332 20.9227 23.7211 20.9227 25.673C20.9227 27.6249 22.7517 29.2128 25 29.2128C27.2483 29.2128 29.0774 27.6249 29.0774 25.673C29.0774 23.7211 27.2483 22.1332 25 22.1332Z" fill="black" fill-opacity="0.5"/>
<path d="M21.5812 41.3064C21.3157 41.3064 21.096 41.1235 21.0869 40.8914C21.0847 40.8362 20.8594 35.3445 19.9432 32.784C19.6571 31.9845 19.352 31.2094 19.0569 30.4597C18.3818 28.7452 17.6839 26.9723 17.2051 24.8671C16.7291 22.7736 18.4504 21.3123 20.4434 19.6202C21.5563 18.6753 22.8147 17.6068 23.8443 16.2927L24.4391 12.2262C24.4735 11.9908 24.7212 11.824 24.9924 11.8541C25.2635 11.884 25.4554 12.099 25.421 12.3344L24.7967 16.6028L24.7318 16.687C23.6334 18.1138 22.3063 19.2405 21.1354 20.2346C19.2741 21.8149 17.8038 23.0631 18.1762 24.7007C18.642 26.7492 19.2985 28.4166 19.9934 30.1819C20.2908 30.9371 20.5983 31.7181 20.8885 32.5291C21.8441 35.1998 22.0671 40.6322 22.0762 40.8621C22.0855 41.0993 21.8716 41.298 21.5984 41.3062C21.5927 41.3063 21.5869 41.3064 21.5812 41.3064Z" fill="black" fill-opacity="0.5"/>
<path d="M28.4188 41.3062C28.4131 41.3062 28.4074 41.3061 28.4016 41.3059C28.1285 41.2978 27.9146 41.0991 27.9239 40.8619C27.9329 40.6319 28.156 35.1996 29.1116 32.5289C29.4018 31.7179 29.7092 30.937 30.0065 30.1819C30.7015 28.4165 31.3581 26.749 31.8239 24.7005C32.1962 23.0629 30.726 21.8146 28.8646 20.2343C27.6937 19.2402 26.3666 18.1135 25.2682 16.6867L25.2033 16.6026L24.579 12.3342C24.5446 12.0988 24.7365 11.8838 25.0076 11.8538C25.2785 11.8238 25.5265 11.9905 25.5609 12.2259L26.1557 16.2925C27.1853 17.6066 28.4437 18.675 29.5566 19.6199C31.5497 21.312 33.2709 22.7733 32.7949 24.8668C32.3162 26.9721 31.6181 28.7452 30.943 30.4598C30.6479 31.2093 30.3428 31.9843 30.0567 32.7838C29.1402 35.3453 28.9153 40.836 28.9131 40.8912C28.904 41.1233 28.6843 41.3062 28.4188 41.3062Z" fill="black" fill-opacity="0.5"/>
<path d="M13.0208 49.9998C11.1275 49.9998 10.3783 49.4008 10.0834 48.8933C9.70166 48.2364 9.92466 47.4828 10.2935 47.0607C11.2078 46.014 14.1037 45.6934 16.9916 45.4547C17.5149 45.4115 18.1081 45.3625 18.236 45.3273C18.3143 45.3029 18.409 45.2767 18.5187 45.2465C19.2866 45.0348 20.716 44.6407 20.9329 43.6049C21.1282 42.6724 21.1146 40.8976 21.1145 40.8798C21.1124 40.6425 21.3322 40.4486 21.6055 40.4468C21.6068 40.4468 21.6081 40.4468 21.6094 40.4468C21.881 40.4468 22.1022 40.637 22.1042 40.8731C22.1049 40.9492 22.1185 42.7474 21.9067 43.7586C21.5832 45.3032 19.7158 45.8181 18.8183 46.0655C18.7178 46.0932 18.631 46.1171 18.5671 46.137C18.3542 46.2032 17.959 46.2379 17.0853 46.3101C16.0955 46.3919 14.7399 46.5039 13.5346 46.7153C11.7906 47.0212 11.2494 47.3883 11.082 47.5799C10.9191 47.7664 10.7757 48.1771 10.9671 48.5063C11.2116 48.9273 11.9716 49.151 13.1074 49.14C14.7941 49.1218 17.1994 48.7874 19.5255 48.464C23.5233 47.9081 26.0252 47.6038 27.0562 48.0627C27.2994 48.171 27.3954 48.43 27.2707 48.6411C27.146 48.8522 26.8478 48.9356 26.6045 48.8273C26.3705 48.7231 25.7471 48.6281 24.1053 48.7668C22.8343 48.8742 21.3031 49.0871 19.682 49.3124C17.3207 49.6408 14.8789 49.9803 13.1197 49.9992C13.0865 49.9996 13.0533 49.9998 13.0208 49.9998Z" fill="black" fill-opacity="0.5"/>
<path d="M36.9202 49.866C34.9022 49.866 32.0105 49.2047 29.2121 48.5647C27.72 48.2236 26.3107 47.9013 25.1685 47.714C23.6597 47.4668 23.1735 47.5538 23.0179 47.6277C22.7781 47.7416 22.4773 47.6651 22.3462 47.4569C22.215 47.2487 22.3031 46.9876 22.5429 46.8738C23.5207 46.4094 25.81 46.8981 29.4643 47.7338C32.1199 48.3411 35.1316 49.0281 37.0164 49.0061C38.1521 48.9921 38.905 48.7494 39.1366 48.323C39.3176 47.9895 39.1617 47.5823 38.9931 47.3997C38.8199 47.212 38.2677 46.8576 36.5149 46.5922C35.3035 46.4088 33.945 46.3282 32.953 46.2693C32.0775 46.2174 31.6813 46.1918 31.4665 46.1306C31.4019 46.1121 31.3144 46.0903 31.2132 46.0649C30.3084 45.8384 28.4258 45.3669 28.0549 43.8302C27.7781 42.6829 27.9489 40.6222 27.9563 40.535C27.9764 40.2984 28.2128 40.1206 28.4862 40.1382C28.7588 40.1556 28.9635 40.3616 28.9434 40.5982C28.9417 40.6184 28.7755 42.6254 29.0237 43.6541C29.2724 44.6845 30.7134 45.0455 31.4875 45.2393C31.5981 45.267 31.6936 45.2909 31.7752 45.3142C31.9015 45.3457 32.4959 45.3809 33.0204 45.412C35.9146 45.5837 38.8194 45.8372 39.7655 46.8624C40.1471 47.2758 40.3932 48.0238 40.0319 48.6893C39.7479 49.2124 38.9967 49.841 37.0305 49.8653C36.9941 49.8658 36.9572 49.866 36.9202 49.866Z" fill="black" fill-opacity="0.5"/>
<path d="M19.2766 35.5963C19.2218 35.5963 19.166 35.588 19.1115 35.5703C18.0993 35.2437 17.1177 34.8297 16.1941 34.3396C13.7664 33.0513 11.7356 31.2382 10.3212 29.0962C8.86282 26.8876 8.09192 24.3668 8.09192 21.8063C8.09192 17.8855 9.85068 14.1993 13.0442 11.4269C16.2376 8.65452 20.4836 7.12769 24.9999 7.12769C29.5163 7.12769 33.7622 8.65452 36.9558 11.4269C40.1493 14.1993 41.908 17.8855 41.908 21.8063C41.908 24.5629 41.0227 27.2495 39.3479 29.5758C37.719 31.8384 35.4135 33.6747 32.6805 34.8865C32.1033 35.1425 31.5032 35.3716 30.897 35.5675C30.6516 35.6468 30.3786 35.5383 30.2873 35.3253C30.196 35.1123 30.3209 34.8753 30.5663 34.796C31.1383 34.6112 31.7046 34.395 32.2493 34.1535C37.6221 31.7711 40.9599 27.04 40.9599 21.8063C40.9599 14.1664 33.8003 7.9508 25 7.9508C16.1997 7.9508 9.04014 14.1664 9.04014 21.8063C9.04014 26.6731 11.8994 31.0958 16.6886 33.6372C17.5603 34.0997 18.4867 34.4905 19.4419 34.7987C19.6873 34.8779 19.8123 35.1148 19.7212 35.3279C19.6501 35.4937 19.4691 35.5963 19.2766 35.5963Z" fill="black" fill-opacity="0.5"/>
<path d="M31.3397 33.0186C31.1673 33.0186 31.001 32.9367 30.9171 32.7942C30.7981 32.5917 30.8905 32.3438 31.1237 32.2404C35.6645 30.227 38.4854 26.2289 38.4854 21.8063C38.4854 15.3509 32.4359 10.099 25 10.099C17.5641 10.099 11.5147 15.3509 11.5147 21.8063C11.5147 25.9188 13.9313 29.6563 17.9791 31.8043C18.2025 31.9228 18.273 32.1761 18.1364 32.3701C17.9999 32.564 17.7081 32.6251 17.4847 32.5066C13.1528 30.2079 10.5665 26.2078 10.5665 21.8063C10.5665 14.897 17.0414 9.27588 25.0001 9.27588C32.9587 9.27588 39.4336 14.897 39.4336 21.8063C39.4336 26.5397 36.4147 30.8186 31.555 32.9734C31.4859 33.0041 31.4122 33.0186 31.3397 33.0186Z" fill="black" fill-opacity="0.5"/>
<path d="M25.3823 6.43572C25.2454 6.43572 25.1092 6.3867 25.0114 6.29067C24.9525 6.23284 24.7763 6.0215 24.9824 5.7302C25.0097 5.69158 25.0437 5.64942 25.0867 5.59611C25.2705 5.36831 25.6528 4.89432 25.6862 4.38584C25.7048 4.10274 25.4563 3.77122 25.1932 3.42029C24.86 2.97569 24.4823 2.47184 24.5214 1.87532C24.5905 0.819941 25.3688 0.149958 25.4019 0.121945C25.5976 -0.0436832 25.911 -0.0401221 26.1017 0.12976C26.2918 0.299084 26.2885 0.569807 26.0947 0.735607C26.0803 0.748368 25.5558 1.21758 25.5095 1.92417C25.4888 2.23936 25.7482 2.58532 26.0227 2.95159C26.3455 3.38218 26.7114 3.87026 26.6744 4.43469C26.625 5.18713 26.1336 5.79627 25.8974 6.08903C25.8813 6.10906 25.8629 6.13183 25.8484 6.15026C25.8213 6.2166 25.7749 6.27804 25.7099 6.32796C25.6158 6.40023 25.4988 6.43572 25.3823 6.43572Z" fill="black" fill-opacity="0.5"/>
<path d="M16.2902 8.37319C16.2381 8.37319 16.1851 8.36598 16.133 8.35081C16.0487 8.32632 15.7743 8.21976 15.785 7.87798C15.7865 7.83265 15.7916 7.7814 15.7982 7.71648C15.8262 7.43949 15.8843 6.86303 15.6203 6.40824C15.4733 6.15501 15.0672 5.97581 14.6373 5.78608C14.0926 5.54569 13.4753 5.27329 13.1656 4.73972C12.6177 3.79565 12.9058 2.87768 12.9184 2.8391C12.9925 2.6107 13.2659 2.47776 13.5289 2.54208C13.7911 2.60618 13.9442 2.84206 13.8719 3.06973C13.867 3.08614 13.6825 3.72055 14.0496 4.35303C14.2132 4.63501 14.6371 4.82208 15.0858 5.02011C15.6133 5.25289 16.2112 5.51678 16.5042 6.02166C16.8948 6.69457 16.8201 7.43545 16.7842 7.79145C16.7818 7.81577 16.7789 7.84357 16.777 7.86578C16.7917 7.935 16.787 8.00833 16.7594 8.07978C16.6901 8.25955 16.4971 8.37319 16.2902 8.37319Z" fill="black" fill-opacity="0.5"/>
<path d="M9.53078 13.997C9.40126 13.997 9.19762 13.9559 9.05677 13.7302C9.03187 13.6903 9.00683 13.6436 8.97516 13.5846C8.8398 13.3326 8.55821 12.8081 8.06762 12.5288C7.79448 12.3733 7.33957 12.3944 6.85804 12.4167C6.24788 12.4449 5.55641 12.477 4.98084 12.1493C3.96259 11.5696 3.68342 10.6495 3.67204 10.6106C3.60473 10.3806 3.76488 10.1468 4.0298 10.0884C4.29373 10.0299 4.56216 10.168 4.63065 10.3965C4.63625 10.4142 4.84212 11.0427 5.52365 11.4307C5.82781 11.6039 6.30261 11.5819 6.80528 11.5587C7.39614 11.5312 8.06593 11.5003 8.61042 11.8103C9.33638 12.2235 9.6983 12.8976 9.87226 13.2216C9.88414 13.2437 9.8977 13.2689 9.90883 13.2891C9.96154 13.3427 9.9997 13.4084 10.017 13.4824C10.0712 13.715 9.89789 13.9417 9.63001 13.9887C9.60833 13.9925 9.57354 13.997 9.53078 13.997Z" fill="black" fill-opacity="0.5"/>
<path d="M2.25881 22.1216C2.22615 22.1216 2.19329 22.1208 2.16018 22.1192C0.944515 22.0591 0.172772 21.3835 0.140505 21.3548C-0.0502779 21.1849 -0.0462692 20.9129 0.149463 20.7472C0.344502 20.5822 0.656336 20.5851 0.847316 20.7533C0.861817 20.7656 1.40229 21.2211 2.2164 21.2613C2.57891 21.2795 2.97795 21.0541 3.39985 20.8157C3.89588 20.5355 4.45829 20.2175 5.10818 20.2501C5.97485 20.2929 6.67656 20.7195 7.01379 20.9245C7.0368 20.9385 7.06308 20.9545 7.08431 20.9671C7.16082 20.9907 7.23174 21.031 7.2893 21.0876C7.47018 21.2656 7.45063 21.5371 7.2457 21.6941C7.17908 21.7451 6.93579 21.8977 6.60045 21.7189C6.55596 21.6952 6.50746 21.6657 6.44599 21.6284C6.1836 21.4689 5.63768 21.1369 5.05192 21.108C4.72533 21.0927 4.34391 21.3076 3.93968 21.536C3.45241 21.8113 2.90312 22.1216 2.25881 22.1216Z" fill="black" fill-opacity="0.5"/>
<path d="M4.01701 32.268C3.58749 32.268 3.29318 32.1982 3.27017 32.1926C3.00708 32.1282 2.85391 31.8909 2.92804 31.6625C3.00193 31.4349 3.27378 31.3022 3.53582 31.3648C3.55488 31.3692 4.28559 31.5292 5.01408 31.2105C5.33888 31.0684 5.55431 30.7005 5.78241 30.3109C6.0506 29.8529 6.35456 29.3338 6.93612 29.0795C7.71122 28.7404 8.56458 28.8053 8.9747 28.8364C9.00271 28.8386 9.03473 28.841 9.06036 28.8427C9.14019 28.8299 9.22477 28.834 9.30717 28.858C9.5663 28.9335 9.70586 29.177 9.61891 29.402C9.59065 29.4751 9.46836 29.7129 9.07437 29.7038C9.02211 29.7025 8.96307 29.698 8.88834 29.6923C8.56923 29.6681 7.90527 29.6177 7.38142 29.8468C7.08968 29.9744 6.88326 30.327 6.66471 30.7002C6.38787 31.173 6.07405 31.7089 5.45944 31.9778C4.93495 32.2074 4.41729 32.268 4.01701 32.268Z" fill="black" fill-opacity="0.5"/>
<path d="M12.0999 40.2331C11.8789 40.2331 11.6775 40.1037 11.6206 39.9093C11.5535 39.6801 11.7123 39.4471 11.9755 39.3876C11.9946 39.383 12.7195 39.2044 13.1668 38.6122C13.3663 38.3482 13.341 37.936 13.3141 37.4996C13.2826 36.9866 13.2469 36.4051 13.6041 35.9324C14.0799 35.3024 14.8562 34.9881 15.2293 34.8371C15.2548 34.8268 15.2839 34.8149 15.3072 34.8053C15.369 34.7595 15.4446 34.7263 15.5298 34.7113C15.7977 34.6641 16.0589 34.8145 16.1132 35.047C16.1308 35.1226 16.1615 35.382 15.8154 35.5449C15.7695 35.5665 15.7157 35.5883 15.6476 35.6158C15.3574 35.7333 14.7534 35.9779 14.4318 36.4036C14.2526 36.6408 14.2769 37.0357 14.3026 37.4538C14.3351 37.9834 14.372 38.5838 13.9945 39.0834C13.3268 39.9674 12.2669 40.2099 12.2221 40.2197C12.1813 40.2288 12.1402 40.2331 12.0999 40.2331Z" fill="black" fill-opacity="0.5"/>
<path d="M36.6057 40.8818C36.5612 40.8818 36.5161 40.8766 36.4712 40.8656C36.2091 40.8015 36.056 40.5656 36.1283 40.338C36.1331 40.3218 36.3177 39.6873 35.9504 39.0546C35.7868 38.7726 35.363 38.5856 34.9142 38.3875C34.3867 38.1547 33.7888 37.8908 33.4958 37.3859C33.1052 36.7131 33.1799 35.9723 33.2157 35.6163C33.2182 35.5919 33.221 35.5641 33.223 35.5419C33.2082 35.4727 33.2129 35.3994 33.2405 35.3279C33.3272 35.1029 33.6077 34.9815 33.8668 35.0567C33.9512 35.0812 34.2255 35.1877 34.2149 35.5296C34.2135 35.575 34.2083 35.6262 34.2018 35.6912C34.1739 35.9682 34.1158 36.5446 34.3798 36.9993C34.5267 37.2526 34.9328 37.4318 35.3628 37.6215C35.9074 37.8619 36.5247 38.1343 36.8344 38.6679C37.3823 39.612 37.0943 40.53 37.0818 40.5686C37.0203 40.7581 36.8218 40.8818 36.6057 40.8818Z" fill="black" fill-opacity="0.5"/>
<path d="M45.8481 33.3325C45.628 33.3325 45.4274 33.2042 45.3695 33.0111C45.3641 32.9943 45.1584 32.3651 44.4763 31.9768C44.1721 31.8037 43.6973 31.8256 43.1948 31.8489C42.6039 31.8763 41.934 31.9072 41.3896 31.5972C40.6638 31.1841 40.3017 30.5101 40.1277 30.1862C40.1159 30.164 40.1023 30.1388 40.0912 30.1187C40.0385 30.0651 40.0004 29.9996 39.9831 29.9258C39.9285 29.6933 40.1014 29.4665 40.3692 29.4191C40.4563 29.4036 40.7554 29.3768 40.9431 29.6775C40.968 29.7174 40.993 29.764 41.0247 29.8231C41.1601 30.0751 41.4418 30.5994 41.9323 30.8786C42.2055 31.0342 42.6604 31.0132 43.142 30.9909C43.7522 30.9626 44.4436 30.9306 45.0191 31.2584C46.0374 31.838 46.3166 32.7581 46.328 32.797C46.3954 33.027 46.2352 33.2608 45.9703 33.3192C45.9295 33.3282 45.8884 33.3325 45.8481 33.3325Z" fill="black" fill-opacity="0.5"/>
<path d="M44.9832 23.1597C44.9528 23.1597 44.9224 23.1589 44.8917 23.1574C44.0251 23.1146 43.3234 22.6881 42.9862 22.4831C42.9631 22.4691 42.9368 22.4531 42.9156 22.4405C42.8393 22.417 42.7685 22.3768 42.711 22.3204C42.5298 22.1428 42.5489 21.8712 42.7536 21.7139C42.8202 21.6628 43.0636 21.5096 43.3993 21.6886C43.4439 21.7124 43.4924 21.7418 43.5539 21.7792C43.8163 21.9387 44.3623 22.2706 44.9479 22.2995C45.2745 22.315 45.6558 22.0999 46.06 21.8716C46.5722 21.5823 47.1524 21.2537 47.8398 21.2884C49.0555 21.3484 49.8272 22.024 49.8595 22.0527C50.0502 22.2226 50.0462 22.4947 49.8505 22.6603C49.6554 22.8253 49.3435 22.8223 49.1526 22.6542C49.1379 22.6417 48.5975 22.1864 47.7835 22.1463C47.4202 22.1272 47.0218 22.3535 46.5999 22.5918C46.1273 22.8588 45.5946 23.1596 44.9832 23.1597Z" fill="black" fill-opacity="0.5"/>
<path d="M41.6053 14.5976C41.3717 14.5976 41.1706 14.5823 41.0252 14.5713C40.9972 14.5691 40.9652 14.5667 40.9396 14.565C40.8599 14.5778 40.7756 14.5738 40.6933 14.5498C40.4341 14.4746 40.2941 14.2312 40.3807 14.0062C40.4089 13.9329 40.5312 13.6941 40.9254 13.7039C40.9776 13.7051 41.0367 13.7096 41.1114 13.7152C41.4306 13.7396 42.0945 13.79 42.6184 13.5607C42.9101 13.4331 43.1165 13.0806 43.335 12.7074C43.6119 12.2346 43.9257 11.6986 44.5404 11.4298C45.6279 10.954 46.6853 11.2041 46.7298 11.215C46.9929 11.2794 47.146 11.5167 47.0719 11.7451C46.998 11.9726 46.7263 12.1053 46.4642 12.0428C46.4475 12.039 45.7156 11.8778 44.9859 12.1972C44.661 12.3393 44.4455 12.7072 44.2174 13.0968C43.9492 13.5547 43.6453 14.0738 43.0637 14.3281C42.5635 14.5469 42.0306 14.5975 41.6053 14.5976Z" fill="black" fill-opacity="0.5"/>
<path d="M34.3713 8.70497C34.141 8.70497 33.9349 8.56473 33.887 8.36129C33.8691 8.28555 33.8379 8.02582 34.1845 7.86277C34.2305 7.84116 34.2842 7.81938 34.3522 7.79189C34.6425 7.67438 35.2465 7.42978 35.5681 7.004C35.7473 6.76684 35.723 6.3719 35.6973 5.95382C35.6648 5.42419 35.628 4.82385 36.0055 4.32425C36.6731 3.44017 37.733 3.19772 37.7778 3.18788C38.0426 3.1295 38.312 3.26844 38.3794 3.49843C38.4465 3.72761 38.2877 3.9606 38.0244 4.0201C38.0052 4.02466 37.2804 4.20331 36.8332 4.79549C36.6337 5.05955 36.659 5.47175 36.6858 5.9081C36.7173 6.4211 36.753 7.00259 36.3958 7.47528C35.92 8.10536 35.1436 8.41964 34.7706 8.5707C34.7451 8.58101 34.716 8.59283 34.6928 8.60245C34.6312 8.64808 34.5559 8.68117 34.4709 8.69625C34.4375 8.70214 34.4041 8.70497 34.3713 8.70497Z" fill="black" fill-opacity="0.5"/>
<path d="M20.6888 6.8848C20.5949 6.8848 20.5001 6.86169 20.416 6.81336C20.3418 6.77074 20.1086 6.60619 20.2209 6.27849C20.2358 6.23501 20.256 6.18668 20.2817 6.1255C20.3913 5.86423 20.6193 5.32051 20.5 4.82178C20.4335 4.54418 20.0946 4.27981 19.7359 3.9999C19.2815 3.64536 18.7665 3.24355 18.6264 2.6585C18.5708 2.42619 18.7426 2.1987 19.0102 2.15041C19.278 2.1022 19.5399 2.25137 19.5955 2.48364C19.6695 2.79277 20.0232 3.06869 20.3976 3.3608C20.8377 3.70417 21.3365 4.09344 21.4691 4.64691C21.6457 5.38487 21.3527 6.08365 21.2119 6.4195C21.2023 6.4424 21.1913 6.4686 21.1828 6.48961C21.1763 6.55978 21.1499 6.62951 21.102 6.69236C21.0066 6.81718 20.8492 6.8848 20.6888 6.8848Z" fill="black" fill-opacity="0.5"/>
<path d="M12.485 10.799C12.4748 10.799 12.4647 10.7987 12.4544 10.7982C12.3656 10.7935 12.0687 10.7523 11.9772 10.4197C11.965 10.3756 11.9547 10.3248 11.9417 10.2607C11.8861 9.98689 11.7704 9.41705 11.3798 9.03711C11.1623 8.82551 10.7167 8.74367 10.2448 8.65701C9.64706 8.54719 8.9696 8.42276 8.51137 7.97688C8.3294 7.79986 8.34722 7.52824 8.55116 7.37026C8.75511 7.21232 9.06793 7.22779 9.24991 7.40485C9.49206 7.64042 9.95722 7.72588 10.4497 7.81632C11.0287 7.92266 11.6849 8.04317 12.1184 8.46504C12.6963 9.02728 12.845 9.75961 12.9165 10.1115C12.9214 10.1356 12.9269 10.163 12.9317 10.185C12.9665 10.2485 12.9839 10.3203 12.9786 10.3956C12.9625 10.6235 12.7445 10.799 12.485 10.799Z" fill="black" fill-opacity="0.5"/>
<path d="M7.62739 17.7509C7.51025 17.7509 7.3652 17.7148 7.22287 17.5843C7.18694 17.5514 7.14883 17.512 7.10063 17.462C6.89475 17.249 6.46632 16.8057 5.90926 16.6462C5.59911 16.5574 5.16592 16.6799 4.70745 16.8097C4.12654 16.9741 3.46823 17.1604 2.81452 16.9732C2.55494 16.8988 2.41395 16.6559 2.49962 16.4305C2.58528 16.2052 2.86495 16.0827 3.12467 16.1572C3.47001 16.2561 3.9221 16.1281 4.40071 15.9927C4.96331 15.8335 5.60094 15.6531 6.21941 15.8302C7.04371 16.0663 7.59433 16.636 7.85896 16.9098C7.87702 16.9286 7.89766 16.9499 7.91443 16.9668C7.98139 17.0069 8.03786 17.0617 8.07656 17.1294C8.19821 17.3419 8.09834 17.5997 7.85356 17.7053C7.81585 17.7216 7.73295 17.7509 7.62739 17.7509Z" fill="black" fill-opacity="0.5"/>
<path d="M2.9611 27.2463C2.73151 27.2463 2.52564 27.1069 2.47709 26.9041C2.42141 26.6718 2.59329 26.4443 2.86088 26.3959C3.21696 26.3317 3.53478 26.0246 3.87121 25.6996C4.26678 25.3175 4.71511 24.8844 5.35269 24.7694C6.20243 24.6161 7.00752 24.8704 7.39434 24.9927C7.42076 25.0011 7.45095 25.0106 7.4752 25.018C7.55612 25.0236 7.63654 25.0466 7.70899 25.0883C7.93679 25.2194 7.999 25.486 7.84796 25.6838C7.79882 25.7481 7.60917 25.9502 7.23201 25.853C7.18193 25.8401 7.12625 25.8225 7.05573 25.8002C6.75478 25.705 6.12844 25.507 5.55406 25.6108C5.23426 25.6684 4.92975 25.9626 4.60732 26.274C4.19898 26.6685 3.7361 27.1156 3.0623 27.2373C3.0284 27.2434 2.9945 27.2463 2.9611 27.2463Z" fill="black" fill-opacity="0.5"/>
<path d="M8.85896 36.1274C8.72282 36.1274 8.58731 36.079 8.48952 35.9838C8.30755 35.8068 8.32537 35.5352 8.52931 35.3772C8.80066 35.167 8.8991 34.7632 9.00328 34.3357C9.12576 33.833 9.26463 33.2634 9.75062 32.887C10.3982 32.3852 11.2418 32.2561 11.6473 32.1941C11.675 32.1899 11.7066 32.185 11.7319 32.1809C11.8051 32.1506 11.888 32.1355 11.9747 32.1403C12.2476 32.1549 12.455 32.3588 12.4382 32.5956C12.4327 32.6726 12.385 32.9301 12.0022 33.0096C11.9513 33.0201 11.893 33.029 11.8191 33.0404C11.5036 33.0886 10.8473 33.1891 10.4096 33.5282C10.1658 33.717 10.0715 34.1039 9.97169 34.5136C9.84524 35.0325 9.70187 35.6206 9.18832 36.0184C9.09394 36.0915 8.9762 36.1274 8.85896 36.1274Z" fill="black" fill-opacity="0.5"/>
<path d="M41.1194 36.1464C40.9833 36.1464 40.8478 36.0979 40.75 36.0028C40.5079 35.7673 40.0427 35.6818 39.5502 35.5914C38.9713 35.485 38.3151 35.3645 37.8815 34.9426C37.3037 34.3805 37.1549 33.6482 37.0834 33.2962C37.0785 33.2721 37.073 33.2447 37.0682 33.2227C37.0333 33.159 37.0159 33.0869 37.0214 33.0115C37.0384 32.7746 37.2737 32.5948 37.5462 32.6095C37.6348 32.6142 37.9312 32.6558 38.0227 32.988C38.0349 33.0321 38.0452 33.0828 38.0582 33.147C38.1138 33.4208 38.2295 33.9907 38.6201 34.3706C38.8375 34.5822 39.2832 34.6641 39.7551 34.7508C40.3528 34.8605 41.0303 34.985 41.4885 35.4308C41.6704 35.6078 41.6526 35.8794 41.4487 36.0374C41.3544 36.1105 41.2367 36.1464 41.1194 36.1464Z" fill="black" fill-opacity="0.5"/>
<path d="M44.3271 27.6506C44.1448 27.6506 43.9619 27.6293 43.7805 27.5774C42.9564 27.3415 42.4058 26.7719 42.1412 26.4981C42.1231 26.4794 42.1024 26.4581 42.0856 26.4411C42.0189 26.4013 41.9626 26.3467 41.9238 26.2794C41.8016 26.0672 41.9007 25.8091 42.1451 25.7029C42.2248 25.6683 42.5057 25.5749 42.7769 25.8234C42.8129 25.8564 42.851 25.8958 42.8993 25.9458C43.1052 26.1588 43.5336 26.6019 44.0905 26.7614C44.4008 26.8503 44.8339 26.7277 45.2924 26.5979C45.8732 26.4335 46.5317 26.2472 47.1853 26.4345C47.4449 26.5088 47.5859 26.7518 47.5002 26.9771C47.4146 27.2024 47.1347 27.3249 46.8752 27.2504C46.5298 27.1515 46.0777 27.2795 45.5991 27.4149C45.2016 27.5274 44.7664 27.6506 44.3271 27.6506Z" fill="black" fill-opacity="0.5"/>
<path d="M44.0963 18.686C43.4631 18.686 42.9071 18.5103 42.6054 18.415C42.579 18.4066 42.5489 18.3971 42.5246 18.3897C42.4439 18.3841 42.3637 18.3613 42.2914 18.3197C42.0634 18.1888 42.0008 17.9222 42.1516 17.7244C42.2007 17.66 42.3903 17.4572 42.7679 17.5548C42.8179 17.5677 42.8736 17.5853 42.9441 17.6076C43.2451 17.7027 43.8715 17.9008 44.4458 17.797C44.7656 17.7393 45.0701 17.4451 45.3925 17.1337C45.8009 16.7392 46.2638 16.292 46.9377 16.1705C47.2053 16.1222 47.4673 16.2714 47.523 16.5037C47.5786 16.736 47.4067 16.9635 47.1391 17.0118C46.783 17.076 46.4652 17.383 46.1287 17.7081C45.7332 18.0902 45.2848 18.5232 44.6472 18.6382C44.4601 18.672 44.2751 18.686 44.0963 18.686Z" fill="black" fill-opacity="0.5"/>
<path d="M38.0564 11.2683C38.0464 11.2683 38.0363 11.268 38.0261 11.2674C37.7533 11.2531 37.5455 11.0496 37.562 10.8127C37.5673 10.7355 37.6146 10.4777 37.998 10.3981C38.0488 10.3876 38.1072 10.3786 38.1811 10.3673C38.4965 10.319 39.1529 10.2185 39.5906 9.87946C39.8343 9.69071 39.9286 9.30386 40.0284 8.8942C40.1549 8.37527 40.2982 7.78709 40.8118 7.38932C41.0158 7.23134 41.3286 7.24685 41.5106 7.42391C41.6926 7.60096 41.6747 7.87254 41.4708 8.03052C41.1994 8.24074 41.101 8.64458 40.9967 9.07212C40.8743 9.57467 40.7354 10.1443 40.2495 10.5206C39.6019 11.0224 38.7583 11.1515 38.3529 11.2136C38.3252 11.2178 38.2936 11.2227 38.2683 11.2268C38.2038 11.2534 38.1319 11.2683 38.0564 11.2683Z" fill="black" fill-opacity="0.5"/>
<path d="M30.0494 7.05677C29.8679 7.05681 29.6931 6.96977 29.6064 6.81918C29.5666 6.75009 29.4589 6.50618 29.7451 6.27077C29.7831 6.23954 29.8285 6.2065 29.8859 6.16461C30.1313 5.98588 30.6419 5.61389 30.8256 5.13028C30.928 4.86094 30.7868 4.4849 30.6374 4.08684C30.4481 3.58256 30.2335 3.01097 30.4491 2.44358C30.5348 2.21827 30.8147 2.09577 31.0742 2.17023C31.3338 2.24456 31.4747 2.48753 31.3891 2.71288C31.2751 3.01269 31.4224 3.40507 31.5784 3.82054C31.7618 4.30901 31.9696 4.86265 31.7655 5.39949C31.4938 6.11507 30.8376 6.59314 30.5222 6.82287C30.5006 6.83855 30.476 6.85647 30.4565 6.87099C30.4107 6.92886 30.3478 6.97772 30.2704 7.01136C30.1993 7.04216 30.1238 7.05677 30.0494 7.05677Z" fill="black" fill-opacity="0.5"/>
</svg>
