<svg width="50" height="50" viewBox="0 0 50 50" fill="none" xmlns="http://www.w3.org/2000/svg">
<path d="M24.9197 38.8113C24.8809 38.8113 24.8422 38.8051 24.8048 38.7929C24.7513 38.7753 23.48 38.3558 22.1868 37.6708C20.3459 36.6957 19.4125 35.6805 19.4125 34.6532C19.4125 33.5131 20.0046 32.4518 21.0797 31.6651C22.1107 30.9106 23.4744 30.4951 24.9197 30.4951C26.3649 30.4951 27.7287 30.9106 28.7597 31.6651C29.8348 32.4518 30.427 33.513 30.427 34.6532C30.427 35.6805 29.4935 36.6957 27.6526 37.6708C26.3595 38.3558 25.0881 38.7753 25.0346 38.7929C24.9972 38.8051 24.9585 38.8113 24.9197 38.8113ZM24.9197 31.3211C23.6309 31.3211 22.4242 31.6848 21.5219 32.345C20.6638 32.9729 20.1913 33.7927 20.1913 34.6532C20.1913 35.3209 21.0207 36.1286 22.5269 36.9277C23.5463 37.4685 24.5808 37.8461 24.9197 37.9644C25.2586 37.8461 26.2932 37.4685 27.3126 36.9277C28.8187 36.1286 29.6482 35.3209 29.6482 34.6532C29.6482 33.7927 29.1756 32.9729 28.3174 32.345C27.4152 31.6847 26.2085 31.3211 24.9197 31.3211Z" fill="black" fill-opacity="0.5"/>
<path d="M31.1845 37.1026C30.6058 37.1026 29.6995 37.0602 28.7607 36.8501C28.5503 36.803 28.4157 36.5839 28.4601 36.3607C28.5044 36.1376 28.7109 35.9946 28.9215 36.0419C29.9424 36.2703 30.941 36.2843 31.4367 36.273C31.4809 35.5634 31.4408 33.8578 30.1956 32.8319C28.828 31.7051 27.0956 31.1078 25.9833 31.3792C25.7736 31.4305 25.5647 31.2916 25.5166 31.0693C25.4683 30.847 25.5991 30.6253 25.8087 30.5742C27.1544 30.2459 29.1095 30.891 30.6734 32.1796C32.6446 33.8037 32.1913 36.6253 32.171 36.7446C32.1395 36.9302 31.9934 37.0696 31.816 37.0833C31.7922 37.0851 31.5557 37.1026 31.1845 37.1026Z" fill="black" fill-opacity="0.5"/>
<path d="M18.6548 37.1024C18.2837 37.1024 18.0472 37.0849 18.0234 37.0831C17.846 37.0694 17.6999 36.93 17.6684 36.7444C17.6481 36.6251 17.1949 33.8035 19.1659 32.1794C20.73 30.8909 22.6847 30.2455 24.0307 30.574C24.2403 30.6251 24.3711 30.8468 24.3229 31.0691C24.2747 31.2913 24.0658 31.4303 23.8561 31.379C22.7438 31.1076 21.0114 31.705 19.6437 32.8317C18.3991 33.8573 18.3586 35.5622 18.4027 36.2726C18.899 36.2837 19.8996 36.2695 20.9179 36.0417C21.1286 35.9943 21.3349 36.1373 21.3793 36.3605C21.4238 36.5837 21.2891 36.8028 21.0787 36.8499C20.1399 37.06 19.2336 37.1024 18.6548 37.1024Z" fill="black" fill-opacity="0.5"/>
<path d="M24.9197 31.1638C23.4209 31.1638 22.0219 30.2828 20.9804 28.6831C19.9693 27.13 19.4125 25.0725 19.4125 22.8897C19.4125 21.83 19.6973 20.7343 20.259 19.6332C20.7 18.7689 21.3123 17.8984 22.079 17.0459C23.3751 15.6048 24.654 14.719 24.7078 14.682C24.8367 14.5933 25.0026 14.5933 25.1316 14.682C25.1854 14.719 26.4643 15.6048 27.7604 17.0459C28.5271 17.8984 29.1395 18.7689 29.5804 19.6332C30.1422 20.7344 30.427 21.83 30.427 22.8897C30.427 25.0725 29.8702 27.1299 28.859 28.6831C27.8175 30.2828 26.4186 31.1638 24.9197 31.1638ZM24.9199 15.5299C23.9747 16.2417 20.1913 19.3155 20.1913 22.8897C20.1913 24.9065 20.6991 26.7973 21.6213 28.2137C22.513 29.5835 23.6844 30.3379 24.9197 30.3379C26.155 30.3379 27.3264 29.5835 28.2182 28.2137C29.1404 26.7973 29.6482 24.9064 29.6482 22.8897C29.6482 19.3104 25.8658 16.2412 24.9199 15.5299Z" fill="black" fill-opacity="0.5"/>
<path d="M21.3206 31.7799C20.5895 31.78 19.8397 31.6969 19.0863 31.53C18.1083 31.3134 17.1553 30.7937 16.2539 29.9854C15.5463 29.351 14.8681 28.5372 14.238 27.567C13.1729 25.9267 12.6168 24.4179 12.5937 24.3544C12.5382 24.2025 12.5721 24.0302 12.6803 23.9146C12.7141 23.8784 13.524 23.0168 14.7763 22.1013C14.9533 21.9719 15.1958 22.0191 15.3179 22.207C15.4399 22.3948 15.3953 22.652 15.2182 22.7814C14.3664 23.4041 13.7202 24.0105 13.4195 24.3073C13.883 25.4338 15.9465 29.9907 19.2455 30.7214C20.8271 31.0716 22.4501 31.0178 23.8155 30.5697C23.9463 30.5271 24.0785 30.4793 24.209 30.4273C24.2114 30.4263 24.2138 30.4253 24.2162 30.4244C24.2764 30.4009 24.3375 30.3754 24.3979 30.3487C24.4453 30.3279 24.4961 30.3171 24.5475 30.3171C24.7625 30.3171 24.9373 30.502 24.9373 30.7301C24.9373 30.9089 24.8304 31.0611 24.6807 31.1186C24.6178 31.1461 24.5543 31.1724 24.4917 31.1969C24.4901 31.1976 24.4887 31.1982 24.4871 31.1988C24.3403 31.2574 24.1915 31.3113 24.045 31.3591C23.1911 31.6393 22.2717 31.7799 21.3206 31.7799Z" fill="black" fill-opacity="0.5"/>
<path d="M28.5191 31.7799C27.5677 31.7799 26.6481 31.6392 25.7936 31.3588C25.6479 31.3114 25.4991 31.2574 25.3523 31.1988C25.3504 31.1981 25.3485 31.1973 25.3466 31.1965C25.2821 31.1712 25.2166 31.144 25.1517 31.1155C25.0058 31.0558 24.9021 30.9057 24.9021 30.73C24.9021 30.502 25.0761 30.317 25.2911 30.317C25.3425 30.317 25.394 30.3278 25.4414 30.3487C25.502 30.3754 25.5631 30.4009 25.6231 30.4243L25.6231 30.4243C25.6259 30.4254 25.6287 30.4266 25.6315 30.4277C25.7618 30.4796 25.8934 30.5272 26.023 30.5694C27.3893 31.0178 29.0124 31.0716 30.594 30.7215C33.8978 29.9896 35.9573 25.4342 36.4202 24.3075C36.1194 24.0107 35.4731 23.4042 34.6212 22.7814C34.4441 22.652 34.3995 22.3948 34.5215 22.207C34.6436 22.0192 34.8861 21.9719 35.0631 22.1013C36.3154 23.0168 37.1253 23.8783 37.1592 23.9145C37.2673 24.0302 37.3012 24.2025 37.2458 24.3544C37.2227 24.4179 36.6665 25.9267 35.6014 27.567C34.9713 28.5373 34.2931 29.3509 33.5855 29.9854C32.6841 30.7937 31.7311 31.3134 30.7531 31.5301C30 31.6968 29.2501 31.7799 28.5191 31.7799Z" fill="black" fill-opacity="0.5"/>
<path d="M24.6533 31.4391C24.2615 31.4391 23.857 31.3873 23.4445 31.2831C21.3946 30.7656 19.3891 29.0208 18.0798 26.6158C16.8554 24.3662 17.2547 21.482 17.8054 19.4586C18.2375 17.8691 18.7738 16.7466 18.7964 16.6996C18.8662 16.5545 19.0105 16.4667 19.1634 16.4749C19.2227 16.4781 20.6352 16.5603 22.3473 17.0652C22.5545 17.1262 22.6758 17.354 22.6182 17.5737C22.5605 17.7935 22.3457 17.922 22.1387 17.861C20.9235 17.5026 19.852 17.3671 19.3795 17.321C19.2036 17.7261 18.8498 18.5984 18.5537 19.6876C18.045 21.5571 17.6668 24.2048 18.7543 26.2028C19.9585 28.4148 21.7793 30.0136 23.6248 30.4796C24.6394 30.7359 25.5852 30.6202 26.3606 30.1454C26.6639 29.9598 26.9374 29.7215 27.1737 29.4374C27.3159 29.2663 27.562 29.2499 27.7233 29.4007C27.8846 29.5515 27.9001 29.8125 27.7579 29.9836C27.4656 30.3352 27.1265 30.6303 26.7499 30.8607C26.1228 31.2448 25.4121 31.4391 24.6533 31.4391Z" fill="black" fill-opacity="0.5"/>
<path d="M23.3801 31.2961C21.7746 31.2961 20.0389 30.7728 18.473 29.8137C17.6078 29.2839 16.8555 28.4744 16.2373 27.4079C15.752 26.5707 15.3473 25.573 15.0346 24.4425C14.5059 22.5314 14.422 20.9138 14.4187 20.8459C14.4108 20.6831 14.4938 20.5307 14.6306 20.4566C14.6921 20.4234 16.155 19.6384 18.079 19.1738C18.111 19.1648 18.1447 19.1599 18.1795 19.1599C18.3945 19.1599 18.5689 19.3446 18.5689 19.5727C18.5689 19.7656 18.443 19.9333 18.2656 19.9759C16.8612 20.3135 15.6949 20.8414 15.2171 21.0748C15.3257 22.2985 15.9438 27.3112 18.8625 29.0984C20.3598 30.0154 22.0157 30.5026 23.5261 30.4684C23.5268 30.4684 23.5275 30.4684 23.5283 30.4684C23.9158 30.4593 24.2899 30.4161 24.6399 30.3401C24.6656 30.3345 24.6919 30.3317 24.7181 30.3317C24.9331 30.3317 25.1079 30.5166 25.1079 30.7447C25.1079 30.9492 24.968 31.119 24.7841 31.1519C24.3911 31.2365 23.9737 31.2843 23.5432 31.2943C23.5422 31.2943 23.5413 31.2943 23.5403 31.2943C23.4871 31.2955 23.4336 31.2961 23.3801 31.2961Z" fill="black" fill-opacity="0.5"/>
<path d="M25.1862 31.4391C24.4273 31.4391 23.7166 31.2448 23.0894 30.8607C22.7127 30.6301 22.3736 30.335 22.0815 29.9836C21.9393 29.8124 21.9549 29.5514 22.1162 29.4006C22.2776 29.2498 22.5236 29.2663 22.6658 29.4374C22.9019 29.7215 23.1753 29.9597 23.4787 30.1453C24.2542 30.6202 25.2002 30.7357 26.2145 30.4796C28.0602 30.0136 29.8809 28.4148 31.0851 26.2028C32.1726 24.205 31.7945 21.5572 31.2858 19.6877C30.9889 18.5956 30.6359 17.7255 30.4601 17.3211C29.987 17.3675 28.9129 17.5035 27.7007 17.861C27.4936 17.922 27.2788 17.7935 27.2212 17.5737C27.1636 17.3539 27.2849 17.1262 27.4921 17.0652C29.2042 16.5603 30.6168 16.4781 30.6761 16.4749C30.8298 16.4667 30.9733 16.5545 31.043 16.6996C31.0657 16.7466 31.6019 17.8691 32.0341 19.4587C32.5847 21.4822 32.984 24.3665 31.7596 26.6158C30.4504 29.0208 28.4449 30.7657 26.3949 31.2832C25.9825 31.3873 25.5779 31.4391 25.1862 31.4391Z" fill="black" fill-opacity="0.5"/>
<path d="M26.4592 31.2961C26.4055 31.2961 26.3523 31.2955 26.2989 31.2944C26.298 31.2944 26.2971 31.2943 26.2963 31.2943C25.864 31.2843 25.445 31.2361 25.0507 31.1509C24.8693 31.1157 24.7316 30.9472 24.7316 30.7447C24.7316 30.5166 24.9055 30.3317 25.1206 30.3317C25.1468 30.3317 25.1738 30.3345 25.1996 30.3401C25.5496 30.4162 25.9237 30.4593 26.3112 30.4684C26.3119 30.4684 26.3126 30.4684 26.3133 30.4684C27.8246 30.5019 29.4797 30.0154 30.9769 29.0984C33.8955 27.3113 34.5137 22.2992 34.6224 21.0749C34.1436 20.8414 32.9746 20.3126 31.5739 19.9759C31.3965 19.9333 31.2706 19.7661 31.2706 19.5731C31.2706 19.345 31.4449 19.1599 31.66 19.1599C31.695 19.1599 31.7289 19.1648 31.7613 19.174C33.6848 19.6386 35.1474 20.4234 35.2088 20.4566C35.3457 20.5307 35.4287 20.6831 35.4207 20.8459C35.4174 20.9138 35.3335 22.5314 34.8049 24.4425C34.4921 25.573 34.0875 26.5707 33.6021 27.4079C32.9838 28.4744 32.2316 29.2839 31.3663 29.8137C29.8005 30.7728 28.0647 31.2961 26.4592 31.2961Z" fill="black" fill-opacity="0.5"/>
<path d="M29.8649 42.9265C27.6554 42.9265 26.3568 41.8553 25.6566 40.9566C25.3046 40.505 25.0608 40.0461 24.8971 39.6692C24.7334 40.0461 24.4896 40.505 24.1377 40.9566C23.4374 41.8553 22.1388 42.9265 19.9293 42.9265C17.9503 42.9265 14.9103 41.9324 12.3134 39.1424C10.3152 36.9956 7.93335 33.0335 7.93335 26.349C7.93335 23.4835 8.43775 20.8244 9.43261 18.4455C10.3396 16.2768 11.6379 14.3705 13.2915 12.7795C14.8163 11.3126 16.58 10.1684 18.5337 9.37869C20.3708 8.63613 22.3294 8.24365 24.1978 8.24365H25.5963C27.4648 8.24365 29.4234 8.63613 31.2605 9.37869C33.2142 10.1684 34.9779 11.3126 36.5027 12.7795C38.1563 14.3705 39.4547 16.2768 40.3616 18.4455C41.3565 20.8244 41.8609 23.4835 41.8609 26.349C41.8609 33.0335 39.479 36.9956 37.4809 39.1424C34.884 41.9324 31.844 42.9265 29.8649 42.9265ZM25.1979 38.7077C25.2488 38.9098 25.4846 39.7363 26.1194 40.5509C27.0185 41.7046 28.2786 42.2896 29.8649 42.2896C31.7226 42.2896 34.5867 41.3453 37.0536 38.695C38.9727 36.6331 41.2604 32.8174 41.2604 26.349C41.2604 14.3001 32.1006 8.88051 25.5963 8.88051H24.1978C17.6936 8.88051 8.53381 14.3001 8.53381 26.349C8.53381 32.8174 10.8216 36.6331 12.7407 38.695C15.2076 41.3453 18.0716 42.2896 19.9293 42.2896C21.5156 42.2896 22.7758 41.7046 23.6749 40.5509C24.3096 39.7363 24.5455 38.9098 24.5963 38.7077C24.6016 38.646 24.6237 38.5866 24.6609 38.5373C24.7179 38.4619 24.804 38.4176 24.8951 38.4176H24.8992C24.9903 38.4176 25.0764 38.4619 25.1334 38.5373C25.1706 38.5866 25.1926 38.646 25.1979 38.7077Z" fill="black" fill-opacity="0.5"/>
<path d="M24.8993 7.09185C24.6843 7.09185 24.5099 6.90694 24.5099 6.67884V0.413011C24.5099 0.184905 24.6843 0 24.8993 0C25.1144 0 25.2887 0.184905 25.2887 0.413011V6.67884C25.2887 6.90694 25.1144 7.09185 24.8993 7.09185Z" fill="black" fill-opacity="0.5"/>
<path d="M15.2767 9.38997C15.1421 9.38997 15.0112 9.31592 14.9391 9.18343L11.9852 3.75704C11.8777 3.5595 11.9415 3.3069 12.1278 3.19287C12.314 3.07879 12.5522 3.14649 12.6597 3.34403L15.6136 8.77041C15.7211 8.96796 15.6573 9.22055 15.471 9.33458C15.4097 9.37213 15.3428 9.38997 15.2767 9.38997Z" fill="black" fill-opacity="0.5"/>
<path d="M7.97335 17.4051C7.90731 17.4051 7.84037 17.3872 7.77903 17.3497L2.66279 14.2168C2.47653 14.1027 2.41271 13.8501 2.52027 13.6526C2.62782 13.4551 2.8659 13.3874 3.0522 13.5014L8.16844 16.6344C8.3547 16.7484 8.41853 17.001 8.31097 17.1985C8.23882 17.331 8.10793 17.4051 7.97335 17.4051Z" fill="black" fill-opacity="0.5"/>
<path d="M6.29716 27.8612L0.389409 27.8612C0.174377 27.8612 0 27.6762 0 27.4482C0 27.2201 0.174377 27.0352 0.389409 27.0352L6.29716 27.0352C6.5122 27.0352 6.68657 27.2202 6.68657 27.4482C6.68657 27.6763 6.5122 27.8612 6.29716 27.8612Z" fill="black" fill-opacity="0.5"/>
<path d="M3.85423 40.9939C3.71961 40.9939 3.58876 40.9198 3.5166 40.7873C3.40905 40.5898 3.47288 40.3372 3.65913 40.2232L8.77545 37.0903C8.96186 36.9762 9.19983 37.044 9.30738 37.2415C9.41494 37.439 9.35112 37.6916 9.16486 37.8056L4.04854 40.9385C3.98721 40.976 3.92027 40.9939 3.85423 40.9939Z" fill="black" fill-opacity="0.5"/>
<path d="M13.4561 50.0001C13.3901 50.0001 13.3231 49.9822 13.2618 49.9446C13.0755 49.8306 13.0117 49.578 13.1193 49.3805L16.0731 43.9541C16.1806 43.7566 16.4188 43.6889 16.6051 43.803C16.7913 43.917 16.8551 44.1696 16.7476 44.3671L13.7937 49.7935C13.7216 49.926 13.5907 50.0001 13.4561 50.0001Z" fill="black" fill-opacity="0.5"/>
<path d="M38.0673 49.0673C37.9327 49.0673 37.8019 48.9932 37.7297 48.8607L34.7759 43.4343C34.6683 43.2367 34.7322 42.9841 34.9184 42.8701C35.1048 42.756 35.3428 42.8238 35.4503 43.0213L38.4042 48.4477C38.5117 48.6452 38.4479 48.8978 38.2616 49.0118C38.2003 49.0494 38.1334 49.0673 38.0673 49.0673Z" fill="black" fill-opacity="0.5"/>
<path d="M46.9475 39.2955C46.8814 39.2955 46.8145 39.2776 46.7532 39.2401L41.6369 36.1072C41.4506 35.9931 41.3868 35.7405 41.4944 35.543C41.6019 35.3454 41.84 35.2778 42.0263 35.3918L47.1426 38.5248C47.3288 38.6388 47.3926 38.8914 47.2851 39.0889C47.213 39.2214 47.082 39.2955 46.9475 39.2955Z" fill="black" fill-opacity="0.5"/>
<path d="M49.6105 25.9955L43.7028 25.9955C43.4877 25.9955 43.3134 25.8105 43.3134 25.5824C43.3134 25.3544 43.4877 25.1694 43.7028 25.1694L49.6105 25.1695C49.8256 25.1695 49.9999 25.3544 49.9999 25.5825C49.9999 25.8105 49.8256 25.9955 49.6105 25.9955Z" fill="black" fill-opacity="0.5"/>
<path d="M40.8356 16.0371C40.7009 16.0371 40.5701 15.9631 40.4979 15.8306C40.3904 15.6331 40.4542 15.3805 40.6405 15.2664L45.7568 12.1335C45.9432 12.0195 46.1812 12.0872 46.2887 12.2847C46.3963 12.4822 46.3325 12.7348 46.1462 12.8489L41.0299 15.9818C40.9685 16.0193 40.9016 16.0371 40.8356 16.0371Z" fill="black" fill-opacity="0.5"/>
<path d="M33.9787 8.87018C33.9126 8.87018 33.8457 8.85233 33.7844 8.81479C33.5981 8.70076 33.5343 8.44816 33.6418 8.25062L36.5958 2.82424C36.7033 2.62669 36.9414 2.55904 37.1277 2.67307C37.314 2.78711 37.3778 3.0397 37.2703 3.23725L34.3163 8.66363C34.2442 8.79608 34.1133 8.87018 33.9787 8.87018Z" fill="black" fill-opacity="0.5"/>
<path d="M20.2759 7.45507C20.0999 7.45507 19.9403 7.32774 19.8975 7.13829L19.1899 4.00974C19.1397 3.78791 19.2686 3.56496 19.4778 3.51177C19.6871 3.45845 19.8972 3.59524 19.9473 3.81706L20.6549 6.94562C20.705 7.16744 20.5762 7.39039 20.367 7.44359C20.3364 7.45135 20.3059 7.45507 20.2759 7.45507Z" fill="black" fill-opacity="0.5"/>
<path d="M11.0459 13.2175C10.9462 13.2175 10.8466 13.1772 10.7706 13.0965L8.73392 10.9365C8.58186 10.7752 8.58186 10.5137 8.73392 10.3524C8.88602 10.1911 9.13251 10.1911 9.28465 10.3524L11.3213 12.5125C11.4734 12.6737 11.4734 12.9353 11.3213 13.0965C11.2452 13.1772 11.1456 13.2175 11.0459 13.2175Z" fill="black" fill-opacity="0.5"/>
<path d="M6.59991 22.3519C6.56658 22.3519 6.53262 22.3473 6.49886 22.3377L3.7235 21.5489C3.51579 21.4898 3.3925 21.2634 3.44819 21.043C3.50387 20.8227 3.71731 20.692 3.92514 20.751L6.70049 21.5398C6.9082 21.5989 7.03148 21.8253 6.9758 22.0457C6.92919 22.2302 6.77183 22.3519 6.59991 22.3519Z" fill="black" fill-opacity="0.5"/>
<path d="M4.0079 33.9132C3.83637 33.9132 3.67924 33.792 3.63228 33.608C3.57609 33.3878 3.69878 33.161 3.90638 33.1014L6.96285 32.2237C7.17041 32.164 7.38427 32.2943 7.4405 32.5145C7.49673 32.7346 7.37399 32.9614 7.16639 33.0211L4.10992 33.8987C4.07581 33.9085 4.04159 33.9132 4.0079 33.9132Z" fill="black" fill-opacity="0.5"/>
<path d="M9.85544 44.6988C9.75782 44.6988 9.66008 44.6601 9.58445 44.5824C9.43001 44.4236 9.42619 44.1621 9.57584 43.9984L12.0404 41.3018C12.1901 41.138 12.4366 41.134 12.591 41.2927C12.7455 41.4515 12.7493 41.713 12.5996 41.8768L10.1351 44.5733C10.0587 44.6568 9.95712 44.6988 9.85544 44.6988Z" fill="black" fill-opacity="0.5"/>
<path d="M41.4611 42.6239C41.3614 42.6239 41.2618 42.5835 41.1857 42.5029L38.9412 40.1223C38.7891 39.961 38.7891 39.6995 38.9412 39.5382C39.0933 39.3769 39.3398 39.377 39.4919 39.5382L41.7365 41.9188C41.8885 42.0801 41.8885 42.3416 41.7365 42.5029C41.6604 42.5835 41.5607 42.6239 41.4611 42.6239Z" fill="black" fill-opacity="0.5"/>
<path d="M46.2656 31.8536C46.2388 31.8536 46.2115 31.8507 46.1842 31.8445L43.1772 31.1667C42.9669 31.1193 42.8325 30.9 42.8772 30.6769C42.922 30.4538 43.1285 30.3112 43.3391 30.3588L46.3461 31.0365C46.5565 31.0839 46.6908 31.3032 46.6461 31.5264C46.6072 31.7206 46.4455 31.8536 46.2656 31.8536Z" fill="black" fill-opacity="0.5"/>
<path d="M43.2074 20.8416C43.0354 20.8416 42.8781 20.7199 42.8315 20.5353C42.7758 20.315 42.8991 20.0885 43.1068 20.0295L45.7244 19.2857C45.932 19.2266 46.1457 19.3574 46.2013 19.5777C46.257 19.798 46.1337 20.0245 45.926 20.0835L43.3084 20.8274C43.2747 20.837 43.2408 20.8416 43.2074 20.8416Z" fill="black" fill-opacity="0.5"/>
<path d="M37.7743 12.0921C37.6697 12.0921 37.5656 12.0478 37.4888 11.9601C37.3425 11.793 37.3516 11.5317 37.5091 11.3765L39.6961 9.2222C39.8537 9.06699 40.1 9.07662 40.2464 9.24377C40.3928 9.41087 40.3836 9.67222 40.2261 9.82743L38.0392 11.9817C37.9642 12.0555 37.8691 12.0921 37.7743 12.0921Z" fill="black" fill-opacity="0.5"/>
<path d="M29.5976 7.38185C29.5669 7.38185 29.5356 7.37796 29.5044 7.36983C29.2956 7.31544 29.1678 7.09179 29.2191 6.87025L29.9341 3.78093C29.9854 3.55943 30.1962 3.42401 30.4051 3.47828C30.614 3.53267 30.7417 3.75631 30.6905 3.97785L29.9755 7.06717C29.9319 7.25563 29.7727 7.38185 29.5976 7.38185Z" fill="black" fill-opacity="0.5"/>
</svg>
