<svg width="36" height="49" viewBox="0 0 36 49" fill="none" xmlns="http://www.w3.org/2000/svg">
<g opacity="0.5">
<path d="M35.4844 24.0785C35.5094 24.0301 35.4926 23.9689 35.4461 23.9402C31.4275 21.4578 26.538 25.4033 26.538 25.4033L26.5387 25.4083C26.5385 25.4081 26.5382 25.4078 26.538 25.4076V25.4033V7.17689C26.5756 5.32278 23.7548 4.3602 23.4029 4.24749C23.3788 4.23979 23.3552 4.24099 23.3321 4.25086C23.0164 4.38548 20.678 5.43836 20.678 7.09452V2.92031C20.678 1.4178 18.1517 0.179475 17.7907 0.00993404C17.7626 -0.00331135 17.7332 -0.00331135 17.7052 0.00993404C17.344 0.179234 14.818 1.4178 14.818 2.92031V6.30799C14.818 6.41491 14.673 6.45369 14.6239 6.3588C14.0254 5.2038 12.2308 4.32503 11.9307 4.18439C11.9026 4.17115 11.8732 4.17115 11.8452 4.18439C11.4842 4.35369 8.95799 5.59202 8.95799 7.09477V25.4035V25.4078C8.95775 25.4081 8.95751 25.4083 8.95727 25.4086L8.95799 25.4035C8.95799 25.4035 4.06828 21.4581 0.0498702 23.9405C0.00339091 23.9691 -0.0134669 24.0301 0.0115789 24.0787L3.0585 29.9965C3.93029 31.69 4.38424 33.5672 4.38256 35.4719C4.38256 42.8537 10.3666 48.8377 17.7483 48.8377C25.1301 48.8377 31.1141 42.8537 31.1141 35.4719V35.4717C31.1091 33.5735 31.5599 31.702 32.4288 30.0143L35.4844 24.0785Z" fill="black"/>
<path d="M28.3442 36.1296C28.3442 36.1296 23.6 43.4218 17.7479 43.4218C11.8957 43.4218 7.15164 36.1296 7.15164 36.1296C7.15164 36.1296 11.8957 28.8374 17.7479 28.8374C23.6 28.8374 28.3442 36.1296 28.3442 36.1296Z" fill="#656565"/>
<path d="M21.3801 39.7622C23.3869 37.7555 23.3869 34.5018 21.3801 32.4951C19.3734 30.4883 16.1197 30.4883 14.113 32.4951C12.1062 34.5018 12.1062 37.7555 14.113 39.7622C16.1197 41.769 19.3734 41.769 21.3801 39.7622Z" fill="black"/>
<path d="M19.1805 37.4294C19.9003 36.6414 19.8451 35.4191 19.0572 34.6993C18.2692 33.9795 17.0469 34.0347 16.3271 34.8226C15.6073 35.6105 15.6625 36.8328 16.4504 37.5527C17.2383 38.2725 18.4606 38.2173 19.1805 37.4294Z" fill="#1D1D1B"/>
<path d="M16.4012 34.1719C15.362 34.1719 15.3603 35.7868 16.4012 35.7868C17.4403 35.7868 17.4423 34.1719 16.4012 34.1719Z" fill="black"/>
</g>
</svg>
