<svg width="66" height="55" viewBox="0 0 66 55" fill="none" xmlns="http://www.w3.org/2000/svg">
<path d="M35.4024 39.7159C35.0308 39.8633 34.647 39.98 34.2601 40.0629C33.9592 40.1335 33.6552 40.1827 33.3482 40.2164C32.9521 40.2563 32.556 40.2656 32.1599 40.2471L32.123 40.4744L32.0094 41.1591C32.0801 41.1652 32.1507 41.1683 32.2213 41.1683C32.3288 41.1744 32.4362 41.1775 32.5437 41.1775C32.8477 41.1775 33.1486 41.1622 33.4495 41.1314C33.4986 41.1253 33.5447 41.1192 33.5938 41.113C33.8517 41.0823 34.1066 41.0424 34.3615 40.9871C34.4075 40.9779 34.4566 40.9656 34.5027 40.9534C34.9234 40.8612 35.341 40.7292 35.7463 40.5726L35.4024 39.7159ZM35.4024 39.7159C35.0308 39.8633 34.647 39.98 34.2601 40.0629C33.9592 40.1335 33.6552 40.1827 33.3482 40.2164C32.9521 40.2563 32.556 40.2656 32.1599 40.2471L32.123 40.4744L32.0094 41.1591C32.0801 41.1652 32.1507 41.1683 32.2213 41.1683C32.3288 41.1744 32.4362 41.1775 32.5437 41.1775C32.8477 41.1775 33.1486 41.1622 33.4495 41.1314C33.4986 41.1253 33.5447 41.1192 33.5938 41.113C33.8517 41.0823 34.1066 41.0424 34.3615 40.9871C34.4075 40.9779 34.4566 40.9656 34.5027 40.9534C34.9234 40.8612 35.341 40.7292 35.7463 40.5726L35.4024 39.7159ZM35.4024 39.7159C35.0308 39.8633 34.647 39.98 34.2601 40.0629C33.9592 40.1335 33.6552 40.1827 33.3482 40.2164C32.9521 40.2563 32.556 40.2656 32.1599 40.2471L32.123 40.4744L32.0094 41.1591C32.0801 41.1652 32.1507 41.1683 32.2213 41.1683C32.3288 41.1744 32.4362 41.1775 32.5437 41.1775C32.8477 41.1775 33.1486 41.1622 33.4495 41.1314C33.4986 41.1253 33.5447 41.1192 33.5938 41.113C33.8517 41.0823 34.1066 41.0424 34.3615 40.9871C34.4075 40.9779 34.4566 40.9656 34.5027 40.9534C34.9234 40.8612 35.341 40.7292 35.7463 40.5726L35.4024 39.7159ZM41.1473 31.2658C41.1381 31.1768 41.1228 31.0877 41.1074 30.9987C41.0706 30.7838 41.0276 30.5719 40.9723 30.36C40.9508 30.2741 40.9263 30.185 40.9017 30.099C40.7973 29.7275 40.6652 29.3621 40.5086 29.0059C40.4718 28.9169 40.4319 28.8278 40.3889 28.7388C40.2999 28.5515 40.2016 28.3642 40.0972 28.183C40.0511 28.0971 40.002 28.0111 39.9498 27.9282C39.7472 27.6027 39.523 27.2864 39.2743 26.9825C39.2098 26.9057 39.1453 26.832 39.0809 26.7583C38.9458 26.6017 38.8014 26.4482 38.651 26.3039C38.5804 26.2332 38.5097 26.1657 38.436 26.0981C38.3347 25.9999 38.2272 25.9078 38.1198 25.8187C37.9263 25.656 37.7237 25.5025 37.518 25.3612C37.4412 25.309 37.3644 25.2568 37.2877 25.2077C37.1065 25.0879 36.9223 24.9774 36.735 24.873C36.6551 24.83 36.5722 24.787 36.4893 24.744C36.1239 24.5567 35.7493 24.4001 35.3655 24.2712C35.2918 24.2435 35.2151 24.219 35.1414 24.1944C34.9234 24.1299 34.7023 24.0685 34.4781 24.0194C34.4014 24.001 34.3215 23.9856 34.2448 23.9703C33.8241 23.8874 33.4035 23.8352 32.9767 23.8167C32.9183 23.8137 32.8569 23.8106 32.7986 23.8106C32.5498 23.8014 32.3042 23.8045 32.0555 23.8198C31.9972 23.8229 31.9357 23.826 31.8774 23.8321C31.4322 23.8659 30.9869 23.9334 30.5479 24.0409C30.5141 24.047 30.4772 24.0562 30.4435 24.0655C30.1794 24.1269 29.9184 24.2067 29.6635 24.2957C29.6298 24.308 29.596 24.3203 29.5622 24.3326C29.1201 24.4953 28.6841 24.6918 28.2695 24.9283C28.2603 24.9313 28.2542 24.9375 28.245 24.9406C27.987 25.0879 27.7353 25.2507 27.4927 25.4257C27.4835 25.4288 27.4773 25.4349 27.4681 25.4411C27.0782 25.7205 26.7097 26.0367 26.3658 26.3868C26.3535 26.3991 26.3412 26.4113 26.329 26.4236C26.1754 26.5833 26.0219 26.7491 25.8776 26.9241C25.8346 26.9732 25.7947 27.0254 25.7548 27.0776C25.7425 27.093 25.7333 27.1053 25.7241 27.1206C25.4293 27.4922 25.1714 27.879 24.9503 28.2813C24.9288 28.3181 24.9073 28.3581 24.8889 28.3949C24.763 28.6283 24.6494 28.8678 24.5481 29.1103C24.5327 29.1502 24.5143 29.1902 24.4989 29.2301C24.33 29.6415 24.198 30.0591 24.0998 30.4859C24.0844 30.5504 24.0691 30.6118 24.0568 30.6763C24.0046 30.9127 23.9647 31.1553 23.9339 31.3948C23.9247 31.4593 23.9186 31.5238 23.9125 31.5913C23.8695 32.0058 23.8572 32.4204 23.8756 32.8349C23.8787 32.9178 23.8817 33.0007 23.8879 33.0836C23.9032 33.3077 23.9278 33.5319 23.9585 33.753C23.9708 33.8359 23.9831 33.9188 24.0015 34.0017C24.0691 34.3916 24.1642 34.7785 24.2871 35.1593C24.3147 35.2483 24.3454 35.3404 24.3792 35.4295C24.4498 35.6291 24.5296 35.8286 24.6156 36.0221C24.6525 36.1081 24.6924 36.1971 24.7354 36.2831C24.9012 36.627 25.0915 36.9617 25.3065 37.2871C25.3617 37.37 25.417 37.453 25.4754 37.5328C25.5951 37.7017 25.721 37.8675 25.8561 38.0271C25.9206 38.1039 25.9851 38.1807 26.0526 38.2544C26.3013 38.5369 26.5715 38.8071 26.8632 39.0588C26.9031 39.0926 26.9431 39.1295 26.9861 39.1632C27.0198 39.1909 27.0536 39.2185 27.0874 39.2431C27.2501 39.3782 27.419 39.5041 27.5909 39.6269C27.6708 39.6822 27.7506 39.7344 27.8335 39.7866C28.159 39.9984 28.4968 40.1857 28.8407 40.3454C28.9174 40.3822 28.9942 40.4191 29.074 40.4529C29.2767 40.5419 29.4855 40.6248 29.6943 40.6954C29.7772 40.7231 29.857 40.7507 29.9399 40.7783C30.3176 40.8981 30.7045 40.9902 31.0913 41.0547C31.1589 41.067 31.2295 41.0762 31.2971 41.0885C31.5335 41.1222 31.773 41.1437 32.0094 41.1591C32.0801 41.1652 32.1507 41.1683 32.2213 41.1683C32.3288 41.1744 32.4362 41.1775 32.5437 41.1775C32.8477 41.1775 33.1486 41.1622 33.4495 41.1314C33.4986 41.1253 33.5447 41.1192 33.5938 41.113C33.8517 41.0823 34.1066 41.0424 34.3615 40.9871C34.4075 40.9779 34.4566 40.9656 34.5027 40.9534C34.9234 40.8612 35.341 40.7292 35.7463 40.5726C35.7678 40.5634 35.7893 40.5542 35.8107 40.545C36.0748 40.4406 36.3327 40.3178 36.5876 40.1857C36.6091 40.1765 36.6275 40.1642 36.649 40.152C37.0482 39.9401 37.432 39.6975 37.7974 39.4181C37.8004 39.415 37.8035 39.415 37.8066 39.412C38.0461 39.2308 38.2795 39.0373 38.5005 38.8255C38.5036 38.8224 38.5067 38.8193 38.5097 38.8163C38.7615 38.5829 39.001 38.3281 39.2252 38.0578C39.2958 37.978 39.3603 37.892 39.4248 37.8091C39.4432 37.7846 39.4616 37.7631 39.48 37.7385C39.6489 37.5144 39.8055 37.2841 39.9467 37.0507C39.9652 37.0262 39.9805 36.9985 39.9959 36.974C40.22 36.6024 40.4135 36.2186 40.5762 35.8256C40.5977 35.7734 40.6161 35.7242 40.6376 35.672C40.7297 35.4356 40.8126 35.1961 40.8833 34.9535C40.8986 34.9013 40.914 34.8491 40.9293 34.7969C41.0368 34.4009 41.1166 33.9986 41.1627 33.5933C41.175 33.5196 41.1842 33.4428 41.1903 33.3692C41.2149 33.1358 41.2302 32.9055 41.2302 32.6721C41.2364 32.6138 41.2364 32.5555 41.2364 32.4971V32.448C41.2333 32.0519 41.2057 31.6589 41.1473 31.2658ZM39.7779 35.3404C39.6336 35.7089 39.4585 36.0712 39.2528 36.4182C39.0993 36.6823 38.9304 36.9371 38.74 37.1858C38.6694 37.281 38.5926 37.3762 38.5159 37.4683C38.3347 37.6863 38.1444 37.892 37.9448 38.0824C37.7237 38.2973 37.4903 38.4969 37.2478 38.6842C36.9253 38.9268 36.5907 39.1417 36.2406 39.326C35.9673 39.4764 35.6879 39.6054 35.4024 39.7159C35.0308 39.8633 34.647 39.98 34.2601 40.0629C33.9592 40.1335 33.6552 40.1827 33.3482 40.2164C32.9521 40.2563 32.556 40.2656 32.1599 40.2471C31.8528 40.2318 31.5458 40.198 31.2418 40.1458C30.8518 40.0813 30.465 39.9831 30.0842 39.8572C29.7925 39.762 29.507 39.6453 29.2275 39.5133C28.8714 39.3475 28.5275 39.151 28.1958 38.9207C27.984 38.7794 27.7752 38.6259 27.5756 38.457C27.5387 38.4263 27.5019 38.3956 27.4651 38.3588C27.158 38.0978 26.8786 37.8153 26.6268 37.5144C26.5132 37.3793 26.4027 37.2442 26.3044 37.1029C26.2798 37.0753 26.2614 37.0507 26.243 37.0231C26.1846 36.9432 26.1294 36.8603 26.0741 36.7774C25.9052 36.5226 25.7548 36.2616 25.6197 35.9945C25.5767 35.9085 25.5337 35.8225 25.4938 35.7365C25.4047 35.5431 25.3249 35.3466 25.2543 35.1439C25.2205 35.0549 25.1898 34.9658 25.1622 34.8737C25.0639 34.5759 24.9871 34.2719 24.9257 33.9648C24.9104 33.8819 24.895 33.799 24.8827 33.7161C24.849 33.495 24.8244 33.2709 24.809 33.0467C24.8029 32.9638 24.7998 32.8809 24.7968 32.798C24.7814 32.4664 24.7876 32.1348 24.8152 31.8032C24.8213 31.7387 24.8275 31.6712 24.8367 31.6067C24.8643 31.3641 24.9012 31.1246 24.9534 30.8882C24.9656 30.8237 24.981 30.7623 24.9963 30.6978C25.0762 30.3539 25.1806 30.0131 25.3126 29.6784C25.3249 29.6385 25.3433 29.5955 25.3587 29.5556C25.4569 29.313 25.5705 29.0735 25.6964 28.8401C25.7149 28.8033 25.7363 28.7634 25.7578 28.7265C25.939 28.3949 26.1509 28.0756 26.3842 27.7685C26.3934 27.7532 26.4027 27.7409 26.4149 27.7255C26.4733 27.6549 26.5285 27.5843 26.5869 27.5137C26.7128 27.3601 26.8479 27.2127 26.9891 27.0715C27.0014 27.0592 27.0137 27.0469 27.026 27.0347C27.3054 26.746 27.6094 26.482 27.9287 26.2486C27.9379 26.2425 27.9441 26.2363 27.9533 26.2302C28.1958 26.049 28.4446 25.8893 28.7025 25.745C28.7117 25.7389 28.7178 25.7358 28.727 25.7297C29.0709 25.5332 29.4271 25.3704 29.7894 25.2353C29.8232 25.223 29.857 25.2077 29.8908 25.1985C30.1456 25.1002 30.4066 25.0204 30.6707 24.959C30.7045 24.9498 30.7413 24.9406 30.7751 24.9344C31.1313 24.8484 31.4905 24.7901 31.8528 24.7594C31.9112 24.7533 31.9695 24.7471 32.0309 24.744C32.2059 24.7318 32.381 24.7256 32.5591 24.7256C32.6297 24.7256 32.7034 24.7256 32.774 24.7287C32.8323 24.7318 32.8937 24.7318 32.9521 24.7379C33.2929 24.7533 33.6337 24.7932 33.9715 24.8546C34.0483 24.8699 34.1281 24.8853 34.2049 24.9037C34.429 24.9498 34.6501 25.0081 34.8681 25.0757C34.9418 25.1002 35.0186 25.1248 35.0922 25.1494C35.3962 25.2537 35.6971 25.3796 35.9888 25.524C36.0717 25.5639 36.1546 25.6069 36.2345 25.6529C36.4218 25.7512 36.606 25.8617 36.7872 25.9815C36.8639 26.0306 36.9407 26.0828 37.0175 26.135C37.1894 26.2547 37.3614 26.3868 37.5272 26.5249C37.6009 26.5864 37.6715 26.6478 37.7421 26.7153C37.8158 26.7798 37.8895 26.8474 37.9601 26.918C38.1106 27.0592 38.2549 27.2127 38.39 27.3693C38.4545 27.443 38.519 27.5198 38.5834 27.5935C38.7769 27.8299 38.955 28.0786 39.1116 28.3335C39.2804 28.5945 39.4278 28.8647 39.5568 29.141C39.7349 29.5034 39.8792 29.881 39.9897 30.2648C40.0819 30.5596 40.1494 30.8575 40.2016 31.1614C40.2722 31.5575 40.3091 31.9567 40.3152 32.3589C40.3214 32.666 40.3091 32.9761 40.2784 33.2832C40.2384 33.6793 40.1678 34.0754 40.0665 34.4623C39.9897 34.7601 39.8946 35.0518 39.7779 35.3404ZM35.4024 39.7159C35.0308 39.8633 34.647 39.98 34.2601 40.0629C33.9592 40.1335 33.6552 40.1827 33.3482 40.2164C32.9521 40.2563 32.556 40.2656 32.1599 40.2471L32.123 40.4744L32.0094 41.1591C32.0801 41.1652 32.1507 41.1683 32.2213 41.1683C32.3288 41.1744 32.4362 41.1775 32.5437 41.1775C32.8477 41.1775 33.1486 41.1622 33.4495 41.1314C33.4986 41.1253 33.5447 41.1192 33.5938 41.113C33.8517 41.0823 34.1066 41.0424 34.3615 40.9871C34.4075 40.9779 34.4566 40.9656 34.5027 40.9534C34.9234 40.8612 35.341 40.7292 35.7463 40.5726L35.4024 39.7159ZM35.4024 39.7159C35.0308 39.8633 34.647 39.98 34.2601 40.0629C33.9592 40.1335 33.6552 40.1827 33.3482 40.2164C32.9521 40.2563 32.556 40.2656 32.1599 40.2471L32.123 40.4744L32.0094 41.1591C32.0801 41.1652 32.1507 41.1683 32.2213 41.1683C32.3288 41.1744 32.4362 41.1775 32.5437 41.1775C32.8477 41.1775 33.1486 41.1622 33.4495 41.1314C33.4986 41.1253 33.5447 41.1192 33.5938 41.113C33.8517 41.0823 34.1066 41.0424 34.3615 40.9871C34.4075 40.9779 34.4566 40.9656 34.5027 40.9534C34.9234 40.8612 35.341 40.7292 35.7463 40.5726L35.4024 39.7159ZM35.4024 39.7159C35.0308 39.8633 34.647 39.98 34.2601 40.0629C33.9592 40.1335 33.6552 40.1827 33.3482 40.2164C32.9521 40.2563 32.556 40.2656 32.1599 40.2471L32.123 40.4744L32.0094 41.1591C32.0801 41.1652 32.1507 41.1683 32.2213 41.1683C32.3288 41.1744 32.4362 41.1775 32.5437 41.1775C32.8477 41.1775 33.1486 41.1622 33.4495 41.1314C33.4986 41.1253 33.5447 41.1192 33.5938 41.113C33.8517 41.0823 34.1066 41.0424 34.3615 40.9871C34.4075 40.9779 34.4566 40.9656 34.5027 40.9534C34.9234 40.8612 35.341 40.7292 35.7463 40.5726L35.4024 39.7159Z" fill="black" fill-opacity="0.5"/>
<path d="M34.7318 47.2221C34.7133 47.2252 34.698 47.2252 34.6796 47.2252C34.4493 47.2252 34.2497 47.0501 34.2221 46.8137L33.6202 41.3727L33.5189 40.4577C33.826 40.4239 34.1299 40.3748 34.4309 40.3042L34.5322 41.2284L35.1371 46.7155C35.1647 46.9672 34.9835 47.1945 34.7318 47.2221Z" fill="black" fill-opacity="0.5"/>
<path d="M36.0152 54.6897C35.7327 54.7449 35.4257 54.7695 35.0971 54.7603L34.9989 53.8422H34.9958L34.48 49.1382C34.4523 48.8864 34.6335 48.6592 34.8853 48.6315C35.1371 48.6008 35.3673 48.785 35.395 49.0368L35.917 53.7716L36.0152 54.6897Z" fill="black" fill-opacity="0.5"/>
<path d="M32.3306 40.4885L32.1802 41.4005L31.3542 46.4024L31.2774 46.8599C31.2406 47.081 31.0441 47.2376 30.8261 47.2376C30.8015 47.2376 30.7769 47.2376 30.7524 47.2314C30.5006 47.1915 30.3317 46.9551 30.3716 46.7033L30.4453 46.2519C30.4484 46.2427 30.4484 46.2335 30.4514 46.2243L31.2621 41.2961L31.4125 40.3872C31.7165 40.4394 32.0236 40.4732 32.3306 40.4885Z" fill="black" fill-opacity="0.5"/>
<path d="M31.3542 46.4024L31.2774 46.8599L30.3563 52.4636L30.1997 53.4032C29.9202 53.2804 29.6285 53.1514 29.3307 53.0101L29.4873 52.0644L30.3716 46.7033L30.4453 46.2519C30.4484 46.2427 30.4484 46.2335 30.4514 46.2243C30.5067 45.9879 30.7339 45.8343 30.9765 45.8712C31.2252 45.9142 31.3972 46.1506 31.3542 46.4024Z" fill="black" fill-opacity="0.5"/>
<path d="M30.2549 40.0985L29.8649 40.9368L27.5283 45.9448C27.4515 46.1137 27.2857 46.212 27.1107 46.212C27.0462 46.212 26.9786 46.1966 26.9172 46.169C26.6869 46.0615 26.5856 45.7882 26.6931 45.5579L29.0113 40.5867L29.3982 39.7546C29.6776 39.8867 29.9632 40.0033 30.2549 40.0985Z" fill="black" fill-opacity="0.5"/>
<path d="M26.5396 48.0635L25.2162 50.9007L24.7924 51.8065C24.4393 51.8034 24.0893 51.8249 23.7485 51.8648L24.1968 50.9068L25.7044 47.6735C25.8119 47.4432 26.0882 47.345 26.3185 47.4525C26.5488 47.5599 26.647 47.8332 26.5396 48.0635Z" fill="black" fill-opacity="0.5"/>
<path d="M28.3665 39.162L27.7616 39.8682L24.1599 44.0595C24.0708 44.167 23.9419 44.2192 23.8098 44.2192C23.7054 44.2192 23.598 44.1854 23.512 44.1086C23.3186 43.9428 23.2971 43.6542 23.4629 43.4607L27.0339 39.3002L27.6357 38.6001C27.6726 38.6369 27.7094 38.6677 27.7463 38.6984C27.9458 38.8672 28.1546 39.0208 28.3665 39.162Z" fill="black" fill-opacity="0.5"/>
<path d="M17.8963 51.1067C17.7901 51.1067 17.6832 51.0702 17.5963 50.9956C17.4035 50.8298 17.3814 50.5393 17.5472 50.3461L23.462 43.4602C23.6278 43.2674 23.9183 43.2452 24.1114 43.4111C24.3042 43.5769 24.3263 43.8673 24.1605 44.0605L18.2458 50.9464C18.1549 51.0521 18.0259 51.1067 17.8963 51.1067Z" fill="black" fill-opacity="0.5"/>
<path d="M26.7988 37.7569L26.0526 38.2544L26.0281 38.2697L21.4284 41.3372C21.3486 41.3894 21.2595 41.4139 21.1736 41.4139C21.0231 41.4139 20.8788 41.3433 20.7897 41.2082C20.6485 40.9964 20.7038 40.7108 20.9156 40.5695L25.4754 37.5328L25.4784 37.5297L26.243 37.0231L26.2461 37.02C26.2645 37.0477 26.2829 37.0753 26.3044 37.1029C26.4518 37.3271 26.6176 37.5451 26.7988 37.7569Z" fill="black" fill-opacity="0.5"/>
<path d="M13.6179 46.4477C13.469 46.4477 13.3228 46.3759 13.2341 46.2426C13.0932 46.0307 13.1503 45.7449 13.3618 45.6039L18.9705 41.8656C19.1823 41.7237 19.4679 41.7817 19.6091 41.9933C19.7501 42.2048 19.693 42.491 19.4814 42.632L13.8728 46.3703C13.7945 46.4228 13.7057 46.4477 13.6179 46.4477Z" fill="black" fill-opacity="0.5"/>
<path d="M6.07426 51.4763C5.92533 51.4763 5.77948 51.4045 5.69044 51.2712C5.5495 51.0597 5.60661 50.7735 5.81817 50.6326L11.4268 46.8939C11.6384 46.752 11.9245 46.81 12.0655 47.0216C12.2067 47.2332 12.1493 47.5193 11.9377 47.6603L6.32911 51.399C6.2505 51.4515 6.16177 51.4763 6.07426 51.4763Z" fill="black" fill-opacity="0.5"/>
<path d="M25.6658 35.979L25.6197 35.9944L24.7876 36.2646L24.7354 36.283L19.5308 37.9749H19.5278L19.5155 37.9779C19.4725 37.9902 19.4264 37.9964 19.3865 37.9964C19.1931 37.9964 19.0119 37.8735 18.9474 37.6801C18.8707 37.4375 19.0027 37.1765 19.2453 37.0998L19.2698 37.0906C19.2729 37.0875 19.276 37.0875 19.2791 37.0875L24.3792 35.4294L24.459 35.4018L25.2543 35.1438L25.3341 35.1162C25.4263 35.411 25.5368 35.6965 25.6658 35.979Z" fill="black" fill-opacity="0.5"/>
<path d="M10.754 40.8069C10.56 40.8069 10.3794 40.6835 10.3162 40.4891C10.2376 40.2471 10.3696 39.9871 10.6116 39.9081L19.2428 37.098C19.4839 37.0197 19.7445 37.1517 19.8234 37.3934C19.9021 37.6353 19.77 37.8954 19.5281 37.9743L10.8968 40.7845C10.8492 40.7995 10.8013 40.8069 10.754 40.8069Z" fill="black" fill-opacity="0.5"/>
<path d="M24.9257 33.965L24.1305 33.9957L24.0015 34.0018L18.6097 34.226H18.5882C18.3425 34.226 18.1399 34.0325 18.1307 33.7869C18.1184 33.532 18.318 33.3171 18.5698 33.3048L23.8879 33.0837L24.0476 33.0776L24.8091 33.0469C24.8244 33.271 24.849 33.4952 24.8828 33.7162C24.895 33.7992 24.9104 33.8821 24.9257 33.965Z" fill="black" fill-opacity="0.5"/>
<path d="M9.51874 34.6032C9.2731 34.6032 9.06922 34.4095 9.05878 34.1617C9.04803 33.9074 9.24547 33.6928 9.49971 33.6824L16.2343 33.402C16.4888 33.3882 16.7032 33.5887 16.7136 33.843C16.7244 34.0972 16.5269 34.3118 16.2727 34.3223L9.53809 34.6026C9.53164 34.6029 9.52519 34.6032 9.51874 34.6032Z" fill="black" fill-opacity="0.5"/>
<path d="M0.460384 34.9801C0.214742 34.9801 0.0108585 34.7864 0.000418731 34.5386C-0.0103281 34.2843 0.187104 34.0697 0.441343 34.0593L7.17593 33.7789C7.43293 33.7633 7.6448 33.9656 7.65524 34.2199C7.66599 34.4741 7.46855 34.6887 7.21431 34.6992L0.479725 34.9795C0.473277 34.9801 0.466832 34.9801 0.460384 34.9801Z" fill="black" fill-opacity="0.5"/>
<path d="M24.9534 30.8883C24.9012 31.1248 24.8643 31.3643 24.8367 31.6068C24.8275 31.6713 24.8213 31.7389 24.8152 31.8034L24.1059 31.6375L23.9125 31.5915L19.2913 30.5015C19.2882 30.4984 19.2821 30.4984 19.279 30.4984L18.7233 30.3664C18.4838 30.3049 18.3333 30.0593 18.3917 29.8137C18.45 29.568 18.6987 29.4145 18.9443 29.4728L19.4909 29.6018C19.494 29.6018 19.5001 29.6049 19.5032 29.6049L24.0568 30.6765L24.2717 30.7287L24.9534 30.8883Z" fill="black" fill-opacity="0.5"/>
<path d="M19.3859 30.5094C19.3509 30.5094 19.3153 30.5054 19.2796 30.4971L9.89703 28.2845C9.64955 28.2261 9.49602 27.978 9.55436 27.7305C9.6127 27.4828 9.86141 27.3295 10.1083 27.3879L19.4909 29.6005C19.7384 29.6588 19.8919 29.9069 19.8336 30.1544C19.7835 30.3663 19.5947 30.5094 19.3859 30.5094Z" fill="black" fill-opacity="0.5"/>
<path d="M25.6964 28.8402C25.5705 29.0735 25.4569 29.313 25.3587 29.5556C25.3433 29.5955 25.3249 29.6385 25.3126 29.6784L24.72 29.3529L24.4989 29.2301L19.8962 26.6877C19.6721 26.5649 19.5922 26.2824 19.7151 26.0613C19.8379 25.8403 20.1173 25.7574 20.3414 25.8802L24.8889 28.3949L25.1223 28.5239L25.6964 28.8402Z" fill="black" fill-opacity="0.5"/>
<path d="M18.0702 25.6134C17.995 25.6134 17.9185 25.5947 17.8479 25.5557L11.9482 22.296C11.7256 22.1729 11.6448 21.8925 11.7679 21.6699C11.8911 21.4476 12.1714 21.3665 12.3937 21.4897L18.2934 24.7493C18.516 24.8725 18.5968 25.1525 18.4737 25.3754C18.3898 25.5274 18.2323 25.6134 18.0702 25.6134Z" fill="black" fill-opacity="0.5"/>
<path d="M10.1347 21.2289C10.0595 21.2289 9.983 21.2101 9.91237 21.1711L4.01267 17.9112C3.79005 17.788 3.7093 17.5077 3.83242 17.2851C3.95525 17.0625 4.23589 16.982 4.45851 17.1048L10.3582 20.3648C10.5808 20.4879 10.6616 20.7683 10.5385 20.9909C10.4543 21.1429 10.2968 21.2289 10.1347 21.2289Z" fill="black" fill-opacity="0.5"/>
<path d="M26.9891 27.0714C26.8479 27.2127 26.7128 27.3601 26.5869 27.5136C26.5285 27.5842 26.4733 27.6548 26.4149 27.7255C26.4026 27.7408 26.3934 27.7531 26.3842 27.7684L25.9267 27.3201L25.724 27.1206L22.0056 23.4543C21.8245 23.2763 21.8214 22.9846 22.0026 22.8034C22.1807 22.6222 22.4693 22.6222 22.6504 22.7973L22.6535 22.8003L26.3289 26.4235L26.5377 26.6293L26.9891 27.0714Z" fill="black" fill-opacity="0.5"/>
<path d="M22.3281 23.5871C22.2114 23.5871 22.0944 23.5429 22.0047 23.4545L15.5385 17.0837C15.3574 16.9053 15.3552 16.6136 15.5336 16.4325C15.712 16.2513 16.0037 16.2492 16.1849 16.4276L22.6511 22.7983C22.8322 22.9767 22.8344 23.2684 22.656 23.4495C22.566 23.5414 22.4469 23.5871 22.3281 23.5871Z" fill="black" fill-opacity="0.5"/>
<path d="M28.7271 25.7298C28.7179 25.7359 28.7118 25.739 28.7025 25.7451C28.4446 25.8894 28.1959 26.0491 27.9533 26.2303L27.6401 25.6837L27.4928 25.4258L24.9104 20.9121C24.7845 20.6941 24.8613 20.4116 25.0824 20.2857C25.3035 20.1598 25.5829 20.2366 25.7118 20.4546L28.2696 24.9284L28.417 25.1832L28.7271 25.7298Z" fill="black" fill-opacity="0.5"/>
<path d="M24.1492 19.1158C23.9893 19.1158 23.8342 19.0326 23.7491 18.8837L20.4023 13.0331C20.2758 12.8123 20.3525 12.5311 20.5733 12.4049C20.7941 12.278 21.0753 12.3551 21.2015 12.5759L24.5484 18.4265C24.6749 18.6472 24.5981 18.9285 24.3774 19.0547C24.3055 19.0962 24.2269 19.1158 24.1492 19.1158Z" fill="black" fill-opacity="0.5"/>
<path d="M19.6475 11.2464C19.4878 11.2464 19.3325 11.1632 19.2474 11.0143L15.9002 5.1637C15.7737 4.94293 15.8505 4.66167 16.0713 4.53547C16.292 4.40866 16.5733 4.48573 16.6995 4.7065L20.0467 10.5571C20.1732 10.7779 20.0964 11.0591 19.8756 11.1853C19.8035 11.2268 19.7249 11.2464 19.6475 11.2464Z" fill="black" fill-opacity="0.5"/>
<path d="M30.7751 24.9345C30.7414 24.9406 30.7045 24.9498 30.6708 24.959C30.4067 25.0204 30.1457 25.1003 29.8908 25.1985L29.7342 24.5752L29.6636 24.2958L28.4047 19.2847L28.3986 19.2601C28.3986 19.2571 28.3955 19.254 28.3955 19.2509V19.2479C28.331 19.0022 28.4815 18.7535 28.7271 18.689C28.9728 18.6276 29.2245 18.7781 29.2859 19.0237L30.5479 24.041L30.6155 24.3081L30.7751 24.9345Z" fill="black" fill-opacity="0.5"/>
<path d="M28.8391 19.5966C28.6331 19.5966 28.4455 19.4572 28.3927 19.2484L26.1779 10.4452C26.1159 10.1983 26.2654 9.94806 26.512 9.88603C26.7585 9.82339 27.0091 9.97385 27.0711 10.2201L29.2859 19.0233C29.3479 19.2702 29.1984 19.5204 28.9518 19.5824C28.914 19.5917 28.8763 19.5966 28.8391 19.5966Z" fill="black" fill-opacity="0.5"/>
<path d="M33.118 18.6123L32.9767 23.8168L32.9706 24.0533L32.9522 24.738C32.8938 24.7319 32.8324 24.7319 32.7741 24.7288C32.7034 24.7257 32.6298 24.7257 32.5591 24.7257C32.381 24.7257 32.206 24.7319 32.031 24.7441L32.0494 24.0748L32.0556 23.8199L32.1968 18.5877C32.2029 18.3329 32.4117 18.1272 32.6697 18.1394C32.9245 18.1456 33.1241 18.3574 33.118 18.6123Z" fill="black" fill-opacity="0.5"/>
<path d="M32.7182 16.7223C32.7139 16.7223 32.7099 16.7223 32.7056 16.7223C32.4513 16.7155 32.2508 16.5037 32.2576 16.2494L32.4378 9.51147C32.4443 9.25723 32.6534 9.05212 32.9104 9.06317C33.1646 9.06993 33.3651 9.28149 33.3584 9.53603L33.1781 16.274C33.1717 16.5239 32.9669 16.7223 32.7182 16.7223Z" fill="black" fill-opacity="0.5"/>
<path d="M32.9608 7.65934C32.9565 7.65934 32.9525 7.65934 32.9482 7.65903C32.6939 7.65228 32.4934 7.44072 32.5002 7.18648L32.6801 0.448512C32.6866 0.194272 32.8975 -0.01176 33.1527 0.000522083C33.4069 0.00727724 33.6074 0.218839 33.6007 0.473386L33.4207 7.21135C33.414 7.46129 33.2092 7.65934 32.9608 7.65934Z" fill="black" fill-opacity="0.5"/>
<path d="M36.9192 19.2324L36.9162 19.2478L36.7995 19.6316C36.7964 19.6408 36.7933 19.65 36.7903 19.6561L35.3655 24.2711L35.3134 24.4369L35.0923 25.1493C35.0186 25.1247 34.9418 25.1002 34.8681 25.0756C34.6501 25.0081 34.429 24.9497 34.2049 24.9037L34.4168 24.2128L34.4782 24.0194L35.9152 19.3706C35.9152 19.3675 35.9182 19.3614 35.9182 19.3583L36.038 18.9745C36.1117 18.7319 36.3696 18.5968 36.6122 18.6705C36.8548 18.7442 36.9899 18.9898 36.9192 19.2324Z" fill="black" fill-opacity="0.5"/>
<path d="M36.3567 19.9562C36.3119 19.9562 36.2658 19.9494 36.2207 19.9356C35.9778 19.8604 35.8418 19.6025 35.917 19.3596L38.718 10.3012C38.7929 10.0587 39.0514 9.92264 39.294 9.99725C39.5369 10.0725 39.6729 10.3304 39.5977 10.5736L36.7967 19.6316C36.7356 19.8291 36.5535 19.9562 36.3567 19.9562Z" fill="black" fill-opacity="0.5"/>
<path d="M40.4042 20.8843L37.5179 25.3611L37.4596 25.4502L37.0174 26.1349C36.9407 26.0827 36.8639 26.0305 36.7871 25.9814C36.606 25.8616 36.4218 25.7511 36.2345 25.6529L36.6612 24.9865L36.7349 24.8729L39.6305 20.3838C39.7686 20.1689 40.0542 20.1075 40.2661 20.2457C40.481 20.3838 40.5424 20.6694 40.4042 20.8843Z" fill="black" fill-opacity="0.5"/>
<path d="M41.2833 19.1299C41.1976 19.1299 41.1111 19.1063 41.0337 19.0562C40.82 18.9183 40.7586 18.6334 40.8964 18.4194L44.551 12.7558C44.6888 12.5421 44.9741 12.4807 45.1878 12.6185C45.4015 12.7564 45.4629 13.0413 45.325 13.2554L41.6705 18.919C41.5827 19.0553 41.4344 19.1299 41.2833 19.1299Z" fill="black" fill-opacity="0.5"/>
<path d="M46.1993 11.5122C46.1136 11.5122 46.0273 11.4886 45.9496 11.4385C45.7359 11.3007 45.6742 11.0157 45.8124 10.8017L49.4669 5.13811C49.6048 4.9244 49.89 4.86299 50.1037 5.00086C50.3174 5.13872 50.3792 5.42367 50.241 5.63769L46.5864 11.3013C46.4983 11.4376 46.3503 11.5122 46.1993 11.5122Z" fill="black" fill-opacity="0.5"/>
<path d="M43.3304 23.3871V23.3901L43.2537 23.4608L39.2743 26.9827L39.2528 27.0011L38.5834 27.5937L38.5619 27.6121C38.3623 27.3818 38.1474 27.1607 37.914 26.9581L37.9601 26.9182L38.608 26.3409L38.6509 26.3041L42.6119 22.8037C42.6181 22.7914 42.6304 22.7791 42.6426 22.7699H42.6457L42.7194 22.7054C42.9098 22.5427 43.1953 22.5642 43.3611 22.7515C43.5269 22.9388 43.5116 23.2182 43.3304 23.3871Z" fill="black" fill-opacity="0.5"/>
<path d="M42.9484 23.5743C42.821 23.5743 42.6942 23.5218 42.6033 23.4189C42.4347 23.2285 42.4526 22.9375 42.6429 22.7689L49.5065 16.6935C49.6972 16.5244 49.9882 16.5428 50.1565 16.7332C50.3251 16.9235 50.3073 17.2146 50.1169 17.3832L43.2533 23.4585C43.1658 23.5362 43.0565 23.5743 42.9484 23.5743Z" fill="black" fill-opacity="0.5"/>
<path d="M45.448 26.6097L40.5597 28.9801L39.7276 29.3824C39.5986 29.106 39.4512 28.8358 39.2823 28.5748L40.1206 28.1695L45.0488 25.7806C45.276 25.6701 45.5524 25.7653 45.6629 25.9956C45.7734 26.2228 45.6783 26.4991 45.448 26.6097Z" fill="black" fill-opacity="0.5"/>
<path d="M47.3517 25.6373C47.1807 25.6373 47.0164 25.5415 46.9369 25.3776C46.826 25.1485 46.9215 24.8731 47.1503 24.7622L53.2158 21.8222C53.4451 21.711 53.7203 21.8068 53.8311 22.0356C53.942 22.2647 53.8465 22.5401 53.6177 22.6509L47.5522 25.591C47.4874 25.6226 47.4189 25.6373 47.3517 25.6373Z" fill="black" fill-opacity="0.5"/>
<path d="M55.5098 21.6827C55.3388 21.6827 55.1745 21.5873 55.095 21.423C54.9841 21.1939 55.0796 20.9185 55.3084 20.8076L61.3739 17.8676C61.6033 17.7565 61.8787 17.8523 61.9892 18.081C62.1001 18.3101 62.0046 18.5855 61.7758 18.6963L55.7103 21.6364C55.6458 21.668 55.5774 21.6827 55.5098 21.6827Z" fill="black" fill-opacity="0.5"/>
<path d="M46.6455 30.273L46.1879 30.3559L41.2782 31.2402L40.3724 31.4029C40.3202 31.0989 40.2526 30.8011 40.1605 30.5063L41.0725 30.3405L46.0221 29.4501H46.0252L46.4704 29.3702C46.7191 29.3242 46.9586 29.49 47.0047 29.7418C47.0508 29.9874 46.888 30.2208 46.6455 30.273Z" fill="black" fill-opacity="0.5"/>
<path d="M46.1056 30.3642C45.887 30.3642 45.693 30.2079 45.6527 29.985C45.6079 29.7347 45.7743 29.4952 46.0246 29.4501L55.4035 27.761C55.6519 27.7161 55.8932 27.8823 55.9384 28.1328C55.9832 28.3831 55.8168 28.6226 55.5665 28.6677L46.1876 30.3565C46.1603 30.3617 46.133 30.3642 46.1056 30.3642Z" fill="black" fill-opacity="0.5"/>
<path d="M47.2872 33.7119C47.2626 33.9483 47.063 34.1295 46.8297 34.1295C46.8143 34.1295 46.799 34.1264 46.7836 34.1264L41.361 33.6105L40.4491 33.5246C40.4798 33.2175 40.4921 32.9074 40.486 32.6003L41.4071 32.6894L46.8726 33.2083C47.1244 33.2329 47.3117 33.457 47.2872 33.7119Z" fill="black" fill-opacity="0.5"/>
<path d="M58.0917 35.2017C58.077 35.2017 58.0623 35.2007 58.0472 35.1995L49.0107 34.3382C48.7576 34.314 48.5716 34.0892 48.5961 33.8362C48.6204 33.5829 48.8448 33.3953 49.0985 33.4214L58.135 34.2823C58.388 34.3066 58.5741 34.5311 58.5499 34.7844C58.5268 35.023 58.3263 35.2017 58.0917 35.2017Z" fill="black" fill-opacity="0.5"/>
<path d="M46.4858 37.6083C46.4151 37.7926 46.2432 37.9031 46.0559 37.9031C46.0006 37.9031 45.9453 37.8939 45.8901 37.8724L40.8083 35.9134L39.9486 35.5818C40.0653 35.2932 40.1605 35.0015 40.2372 34.7036L41.1001 35.0383L46.2217 37.0157C46.4612 37.1048 46.5779 37.3719 46.4858 37.6083Z" fill="black" fill-opacity="0.5"/>
<path d="M54.5259 41.1717C54.4706 41.1717 54.4148 41.1619 54.3601 41.1407L48.0717 38.7147C47.8346 38.6232 47.7164 38.3566 47.8079 38.119C47.8994 37.8816 48.1666 37.7643 48.4033 37.8552L54.6917 40.2812C54.9288 40.3727 55.047 40.6393 54.9555 40.8769C54.8852 41.0596 54.7105 41.1717 54.5259 41.1717Z" fill="black" fill-opacity="0.5"/>
<path d="M62.9846 44.4348C62.9293 44.4348 62.8734 44.425 62.8188 44.4038L56.5303 41.9778C56.2933 41.8863 56.1751 41.6198 56.2666 41.3824C56.3581 41.1451 56.6249 41.0271 56.862 41.1186L63.1504 43.5447C63.3875 43.6362 63.5057 43.9027 63.4142 44.1401C63.3439 44.3227 63.1691 44.4348 62.9846 44.4348Z" fill="black" fill-opacity="0.5"/>
<path d="M44.6649 41.1488C44.5728 41.2685 44.4346 41.333 44.2965 41.333C44.1982 41.333 44.103 41.3023 44.0201 41.2409L39.6508 37.98L38.9108 37.4273C39.1011 37.1786 39.27 36.9237 39.4235 36.6597L40.1666 37.2154L44.5697 40.504C44.7755 40.6544 44.8154 40.9431 44.6649 41.1488Z" fill="black" fill-opacity="0.5"/>
<path d="M48.2065 43.2164L48.9741 43.7906C48.9649 43.7937 48.9587 43.7968 48.9495 43.8029C48.7315 43.9319 48.5442 44.2052 48.3907 44.5061L47.6446 43.9472L44.0213 41.2421C43.8156 41.0886 43.7757 40.7999 43.9261 40.5973C44.0735 40.4008 44.3468 40.3547 44.5464 40.4868C44.5556 40.4898 44.5617 40.496 44.5709 40.5021L48.2065 43.2164Z" fill="black" fill-opacity="0.5"/>
<path d="M51.9372 46.5787C51.8482 46.7015 51.71 46.7629 51.5687 46.7629C51.4736 46.7629 51.3753 46.7353 51.2924 46.6739L50.3774 45.9891L49.2966 45.1816C49.2198 44.7425 49.1369 44.2942 49.0571 43.8521L50.144 44.6627V44.6657L51.8451 45.9339C52.0477 46.0874 52.0907 46.376 51.9372 46.5787Z" fill="black" fill-opacity="0.5"/>
<path d="M41.9567 44.0625C41.8707 44.127 41.7725 44.1577 41.6742 44.1577C41.536 44.1577 41.4009 44.0963 41.3088 43.9796L37.9773 39.6533L37.4185 38.9256C37.661 38.7382 37.8944 38.5387 38.1155 38.3237L38.6804 39.0576L42.0396 43.4177C42.1962 43.6173 42.1563 43.909 41.9567 44.0625Z" fill="black" fill-opacity="0.5"/>
<path d="M38.5607 46.1383C38.5055 46.1629 38.4471 46.1721 38.3888 46.1721C38.2383 46.1721 38.094 46.0984 38.008 45.9725C38.008 45.9725 38.008 45.9725 38.008 45.9694C37.9896 45.9418 37.9743 45.9142 37.962 45.8835L35.917 40.814L35.5731 39.9573C35.8587 39.8468 36.1381 39.7178 36.4114 39.5674L36.7583 40.4271L38.8156 45.5396C38.8279 45.5672 38.834 45.5979 38.8401 45.6286C38.8801 45.8405 38.7664 46.0554 38.5607 46.1383Z" fill="black" fill-opacity="0.5"/>
<path d="M39.3959 46.9795L39.7459 47.8454C39.5034 48.0389 39.2669 48.3213 39.1103 48.7328L38.6743 47.6489L38.0326 46.0584C38.0234 46.0307 38.0142 46.0031 38.008 45.9724C38.008 45.9724 38.008 45.9724 38.008 45.9693C37.9681 45.7605 38.0817 45.5425 38.2874 45.4596C38.4932 45.3798 38.7204 45.4535 38.8401 45.6285C38.8585 45.6561 38.8739 45.6838 38.8862 45.7145L39.3959 46.9795Z" fill="black" fill-opacity="0.5"/>
<path d="M57.1171 44.6809C55.981 44.6809 55.0537 45.6051 55.0537 46.7412C55.0537 47.8773 55.981 48.8016 57.1171 48.8016C58.2532 48.8016 59.1775 47.8773 59.1775 46.7412C59.1775 45.6051 58.2532 44.6809 57.1171 44.6809ZM57.1171 47.8804C56.4877 47.8804 55.9749 47.3707 55.9749 46.7412C55.9749 46.1148 56.4877 45.6021 57.1171 45.6021C57.7435 45.6021 58.2563 46.1148 58.2563 46.7412C58.2563 47.3707 57.7435 47.8804 57.1171 47.8804Z" fill="black" fill-opacity="0.5"/>
<path d="M11.9988 12.4404C10.8627 12.4404 9.93847 13.3647 9.93847 14.5008C9.93847 15.6368 10.8627 16.5611 11.9988 16.5611C13.138 16.5611 14.0622 15.6368 14.0622 14.5008C14.0622 13.3647 13.138 12.4404 11.9988 12.4404ZM11.9988 15.6399C11.3724 15.6399 10.8596 15.1271 10.8596 14.5008C10.8596 13.8713 11.3724 13.3616 11.9988 13.3616C12.6283 13.3616 13.141 13.8713 13.141 14.5008C13.141 15.1271 12.6283 15.6399 11.9988 15.6399Z" fill="black" fill-opacity="0.5"/>
<path d="M26.3068 4.69387C26.3068 5.07093 26.001 5.37676 25.6239 5.37676C25.2469 5.37676 24.9411 5.07093 24.9411 4.69387C24.9411 4.31681 25.2469 4.01099 25.6239 4.01099C26.001 4.01099 26.3068 4.3165 26.3068 4.69387Z" fill="black" fill-opacity="0.5"/>
<path d="M7.36233 25.6929L7.33162 25.6837C6.02972 25.3459 5.0103 24.3265 4.67254 23.0246L4.66641 22.9969C4.57736 22.7359 4.33786 22.5579 4.06458 22.5579C3.79437 22.5579 3.5518 22.7329 3.46583 22.9969L3.45662 23.0246C3.11886 24.3265 2.09944 25.3459 0.79754 25.6837L0.766833 25.6929C0.505838 25.7788 0.330818 26.0214 0.330818 26.2916C0.330818 26.5649 0.505841 26.8044 0.794471 26.8996C2.05032 27.2373 3.0728 28.2629 3.46583 29.5894C3.5518 29.8504 3.79437 30.0254 4.06458 30.0254C4.33786 30.0254 4.57736 29.8504 4.67254 29.5648C5.0103 28.309 6.03586 27.2865 7.36233 26.8934C7.62332 26.8044 7.79834 26.5649 7.79834 26.2916C7.79834 26.0214 7.62332 25.7788 7.36233 25.6929ZM4.05844 28.573C3.57637 27.569 2.77189 26.7583 1.80775 26.2978C2.8026 25.8372 3.604 25.0388 4.06458 24.0471C4.52823 25.0419 5.33578 25.8464 6.33677 26.3039C5.32657 26.789 4.51595 27.5997 4.05844 28.573Z" fill="black" fill-opacity="0.5"/>
<path d="M64.7014 30.6241L64.6706 30.6149C63.3687 30.2802 62.3493 29.2608 62.0116 27.9589L62.0054 27.9282C61.9164 27.6672 61.6769 27.4922 61.4036 27.4922C61.1334 27.4922 60.8908 27.6672 60.8049 27.9282L60.7956 27.9589C60.4579 29.2608 59.4385 30.2802 58.1366 30.6149L58.1089 30.6241C57.8449 30.7132 57.6698 30.9527 57.6698 31.2259C57.6698 31.4962 57.8449 31.7387 58.1335 31.8339C59.3893 32.1717 60.4118 33.1972 60.8049 34.5206C60.8908 34.7847 61.1334 34.9597 61.4036 34.9597C61.6769 34.9597 61.9164 34.7847 62.0116 34.4961C62.3493 33.2402 63.3749 32.2177 64.7014 31.8247C64.9623 31.7387 65.1374 31.4962 65.1374 31.2259C65.1374 30.9527 64.9623 30.7132 64.7014 30.6241ZM61.3975 33.5043C60.9154 32.5002 60.114 31.6896 59.1498 31.229C60.1416 30.7684 60.943 29.9701 61.4036 28.9783C61.8673 29.9762 62.6748 30.7777 63.6758 31.2352C62.6656 31.7234 61.855 32.534 61.3975 33.5043Z" fill="black" fill-opacity="0.5"/>
</svg>
