<svg width="50" height="50" viewBox="0 0 50 50" fill="none" xmlns="http://www.w3.org/2000/svg">
<path d="M25.6708 15.6167C20.8629 15.6167 16.9513 12.1139 16.9513 7.80835C16.9513 3.50283 20.8629 0 25.6708 0C30.4788 0 34.3904 3.50283 34.3904 7.80835C34.3904 12.1139 30.4788 15.6167 25.6708 15.6167ZM25.6708 1.20129C21.6025 1.20129 18.2927 4.16522 18.2927 7.80835C18.2927 11.4515 21.6025 14.4154 25.6708 14.4154C29.7391 14.4154 33.0489 11.4515 33.0489 7.80835C33.0489 4.16522 29.7391 1.20129 25.6708 1.20129Z" fill="black" fill-opacity="0.5"/>
<path d="M15.2422 36.0737C15.1385 36.0737 15.0558 36.0616 14.9829 36.0446C14.0143 35.8245 13.3263 34.8097 12.8837 32.9435C12.5686 31.6145 12.4409 30.1202 12.4265 29.1648L12.4195 28.7168C12.3895 26.8521 12.3584 24.924 12.6408 23.2412C13.333 19.1155 15.9576 17.0237 20.4418 17.0237H28.3676C28.738 17.0237 29.0384 17.2926 29.0384 17.6243C29.0384 17.9561 28.738 18.225 28.3676 18.225H20.4417C16.6192 18.225 14.5619 19.8756 13.9673 23.4197C13.7012 25.0052 13.7315 26.8832 13.7607 28.6994L13.7678 29.1486C13.7807 30.0058 13.9005 31.4488 14.1958 32.6939C14.6166 34.4684 15.1289 34.8064 15.2794 34.8688C15.7093 34.8199 17.3151 34.1851 19.2749 33.0923C21.3846 31.9159 22.9508 30.7434 23.4727 29.9504C23.8435 29.2509 24.2794 25.8652 24.4684 23.8801C24.4999 23.5495 24.8248 23.3047 25.1937 23.3326C25.5628 23.3608 25.8365 23.6515 25.805 23.9821C25.7192 24.8839 25.2608 29.4367 24.6641 30.5031L24.6455 30.5342C23.726 31.9615 20.933 33.5926 19.7748 34.2277C18.8035 34.7602 17.8179 35.2385 16.9993 35.5744C16.0395 35.9683 15.549 36.0737 15.2422 36.0737Z" fill="black" fill-opacity="0.5"/>
<path d="M36.0994 36.0742C35.7944 36.0742 35.304 35.9692 34.3421 35.5745C33.5236 35.2386 32.5379 34.7604 31.5666 34.2278C30.4084 33.5928 27.6154 31.9616 26.696 30.5344L26.6773 30.5032C26.0748 29.4263 25.3518 24.5604 25.2713 24.009C25.2234 23.6801 25.4822 23.3786 25.8495 23.3357C26.2168 23.2925 26.5535 23.5245 26.6015 23.8534C26.892 25.8439 27.4905 29.2415 27.8686 29.9504C28.3904 30.7433 29.9568 31.9161 32.0666 33.0925C34.025 34.1845 35.6297 34.8191 36.0611 34.8688C36.2169 34.8038 36.7267 34.4612 37.1458 32.6941C37.441 31.4489 37.5609 30.006 37.5738 29.1488L37.5809 28.6996C37.6102 26.8834 37.6404 25.0054 37.3744 23.4199C36.7797 19.8758 34.7225 18.2252 30.8999 18.2252H22.9741C22.6036 18.2252 22.3033 17.9563 22.3033 17.6246C22.3033 17.2928 22.6036 17.0239 22.9741 17.0239H30.8999C35.3841 17.0239 38.0087 19.1158 38.7009 23.2414C38.9834 24.9243 38.9523 26.8524 38.9223 28.717L38.9152 29.165C38.9008 30.1204 38.7732 31.6148 38.4581 32.9437C38.0154 34.81 37.3275 35.8247 36.3547 36.0458C36.2832 36.0624 36.2017 36.0742 36.0994 36.0742Z" fill="black" fill-opacity="0.5"/>
<path d="M5.32043 50.0001C2.09011 50.0001 0.822755 48.9659 0.329094 48.0895C-0.304146 46.9654 0.066909 45.6747 0.679625 44.9512C2.24009 43.1085 7.29059 42.5348 12.33 42.1053C13.2763 42.0246 14.3489 41.9332 14.5648 41.8655C14.7037 41.821 14.8688 41.7741 15.06 41.7196C16.452 41.3237 19.043 40.5868 19.4464 38.5996C19.7556 37.0769 19.6289 35.681 19.0092 33.7817C18.9053 33.4632 19.1093 33.1297 19.4649 33.0367C19.8205 32.9437 20.1929 33.1264 20.2968 33.4448C20.9707 35.5102 21.1111 37.1161 20.7662 38.8145C20.2184 41.5129 17.0086 42.4258 15.466 42.8645C15.2873 42.9154 15.1329 42.9593 15.0169 42.9965C14.6656 43.1092 13.9381 43.1749 12.457 43.3011C9.41454 43.5604 3.08374 44.1002 1.74838 45.677C1.45212 46.0268 1.13002 46.8443 1.52669 47.5485C1.99359 48.3773 3.39825 48.821 5.47592 48.7979C8.45975 48.7646 12.7013 48.1563 16.8031 47.568C22.8377 46.7025 28.0492 45.955 29.9368 46.8218C30.2664 46.9732 30.3965 47.3352 30.2276 47.6304C30.0585 47.9255 29.6542 48.0421 29.3246 47.8908C27.8279 47.2033 22.0834 48.0273 17.0153 48.7541C12.8657 49.3493 8.57478 49.9647 5.49262 49.9991C5.43474 49.9997 5.37724 50.0001 5.32043 50.0001Z" fill="black" fill-opacity="0.5"/>
<path d="M44.6796 49.9999C44.6226 49.9999 44.5655 49.9996 44.5074 49.9989C40.9752 49.9596 35.8396 48.616 30.8731 47.3167C28.2624 46.6336 25.7965 45.9885 23.7896 45.5993C21.2224 45.1016 20.2442 45.1987 19.8759 45.3679C19.5462 45.5193 19.142 45.4027 18.973 45.1075C18.8039 44.8124 18.9341 44.4503 19.2637 44.2989C20.9419 43.5285 24.9115 44.5054 31.2492 46.1635C35.9019 47.3808 41.1753 48.7604 44.524 48.7977C46.6044 48.8218 48.0064 48.3771 48.4733 47.5482C48.87 46.844 48.5478 46.0266 48.2516 45.6769C46.9163 44.0999 40.5854 43.5603 37.543 43.3009C36.062 43.1746 35.3344 43.109 34.9831 42.9963C34.8671 42.9591 34.7127 42.9151 34.534 42.8643C32.9914 42.4256 29.7816 41.5127 29.2338 38.8143C28.793 36.6431 29.1974 34.8217 29.9402 32.7549C30.0537 32.4391 30.4313 32.2657 30.7842 32.3671C31.1368 32.4687 31.3306 32.8071 31.2172 33.1229C30.5362 35.0177 30.1627 36.6741 30.5536 38.5994C30.9571 40.5865 33.548 41.3235 34.9399 41.7193C35.1312 41.7738 35.2963 41.8207 35.4354 41.8654C35.6512 41.9329 36.7237 42.0244 37.6701 42.105C42.7094 42.5346 47.76 43.1082 49.3203 44.951C49.933 45.6745 50.3041 46.9651 49.6709 48.0893C49.1774 48.9657 47.9095 49.9999 44.6796 49.9999Z" fill="black" fill-opacity="0.5"/>
<path d="M18.4022 30.4583C18.1072 30.4583 17.8368 30.2826 17.7555 30.0155C17.1266 27.9505 17.7099 22.5499 17.735 22.321C17.7713 21.9909 18.0993 21.7492 18.4682 21.782C18.8368 21.8145 19.1063 22.1084 19.0701 22.4385C18.9057 23.9368 18.5815 28.1619 19.0497 29.6994C19.1471 30.0194 18.9364 30.3496 18.579 30.4369C18.52 30.4514 18.4606 30.4583 18.4022 30.4583Z" fill="black" fill-opacity="0.5"/>
<path d="M32.9395 30.4581C32.8811 30.4581 32.8217 30.4512 32.7626 30.4368C32.4053 30.3495 32.1945 30.0194 32.292 29.6993C32.7602 28.1619 32.4359 23.9368 32.2715 22.4385C32.2353 22.1084 32.5048 21.8144 32.8734 21.782C33.2429 21.7495 33.5704 21.9908 33.6066 22.3209C33.6318 22.5498 34.215 27.9504 33.5862 30.0154C33.5049 30.2824 33.2345 30.4581 32.9395 30.4581Z" fill="black" fill-opacity="0.5"/>
</svg>
