<svg width="31" height="31" viewBox="0 0 31 31" fill="none" xmlns="http://www.w3.org/2000/svg">
<path d="M29.3462 14.5345H17.0262V2.49152H28.1003C28.7884 2.49152 29.346 1.93368 29.346 1.24576C29.346 0.557624 28.7882 0 28.1003 0H15.7803C15.0921 0 14.5345 0.557847 14.5345 1.24576V14.5347H2.49153V2.49175C2.49153 1.80361 1.93368 1.24599 1.24576 1.24599C0.557625 1.24599 0 1.80383 0 2.49175V15.7807C0 16.4688 0.557848 17.0265 1.24576 17.0265H14.5347V28.1005H2.49153C1.80339 28.1005 1.24576 28.6583 1.24576 29.3462C1.24576 30.0342 1.80361 30.592 2.49153 30.592H15.7805C16.4686 30.592 17.0262 30.0342 17.0262 29.3462V17.0262H28.1003V28.1003C28.1003 28.7884 28.6581 29.346 29.346 29.346C30.0342 29.346 30.5918 28.7882 30.5918 28.1003V15.7803C30.592 15.0921 30.0344 14.5345 29.3462 14.5345Z" fill="black" fill-opacity="0.5"/>
<path d="M22.8844 6.21387C20.5954 6.21387 20.5917 9.77128 22.8844 9.77128C25.1734 9.77128 25.1772 6.21387 22.8844 6.21387Z" fill="black" fill-opacity="0.5"/>
<path d="M8.50645 6.21387C6.21747 6.21387 6.21369 9.77128 8.50645 9.77128C10.7954 9.77128 10.7992 6.21387 8.50645 6.21387Z" fill="black" fill-opacity="0.5"/>
<path d="M22.8844 20.5918C20.5954 20.5918 20.5917 24.1492 22.8844 24.1492C25.1734 24.1492 25.1772 20.5918 22.8844 20.5918Z" fill="black" fill-opacity="0.5"/>
<path d="M8.50645 20.5918C6.21747 20.5918 6.21369 24.1492 8.50645 24.1492C10.7954 24.1492 10.7992 20.5918 8.50645 20.5918Z" fill="black" fill-opacity="0.5"/>
</svg>
