<svg width="48" height="56" viewBox="0 0 48 56" fill="none" xmlns="http://www.w3.org/2000/svg">
<path d="M25.2276 11.1738C24.8041 11.1307 24.3747 11.1084 23.9405 11.1084C23.5062 11.1084 23.0768 11.1307 22.6533 11.1738C14.4571 11.8331 7.98563 18.7007 7.98563 27.0632C7.98563 35.8608 15.1428 43.0189 23.9405 43.0189C32.7381 43.0189 39.8953 35.8617 39.8953 27.0632C39.8953 18.7007 33.4238 11.8331 25.2276 11.1738ZM35.4688 23.7121C35.4688 30.0686 30.2969 35.2404 23.9405 35.2404C17.584 35.2404 12.4121 30.0694 12.4121 23.7121C12.4121 17.3548 17.584 12.1838 23.9405 12.1838C30.2969 12.1838 35.4688 17.3557 35.4688 23.7121ZM23.9405 41.9435C15.736 41.9435 9.06103 35.2685 9.06103 27.0632C9.06103 22.7169 10.9455 18.8132 13.9268 16.09C12.3096 18.2094 11.3376 20.8466 11.3376 23.7121C11.3376 30.6617 16.9917 36.315 23.9413 36.315C30.8909 36.315 36.545 30.6617 36.545 23.7121C36.545 20.8466 35.5722 18.2094 33.9549 16.09C36.9363 18.8132 38.8207 22.7169 38.8207 27.0632C38.8207 35.2685 32.1449 41.9435 23.9405 41.9435Z" fill="black" fill-opacity="0.5"/>
<path d="M47.8095 41.2552C47.802 41.2411 47.0327 39.8845 46.8697 38.3872C46.7713 37.483 46.8466 36.4548 46.9268 35.3653C47.1204 32.7306 47.3396 29.7443 44.7975 28.2437C44.4592 28.0443 44.1035 27.8689 43.7403 27.706C44.1035 27.5438 44.4583 27.3684 44.7975 27.1683C47.3404 25.6677 47.1212 22.6814 46.9268 20.0466C46.8466 18.958 46.7713 17.9289 46.8697 17.0256C47.0327 15.5357 47.802 14.17 47.8103 14.1567C47.9104 13.9813 47.9021 13.7646 47.7921 13.5959C47.6821 13.4271 47.4835 13.3378 47.2842 13.356C47.2701 13.3576 46.069 13.4751 44.364 12.7868C43.5004 12.4377 42.6136 11.8636 41.6739 11.2564C39.4784 9.83526 36.9893 8.22465 34.4885 9.70126C34.3413 9.78812 34.2015 9.88986 34.0575 9.98417C34.0658 9.81541 34.0824 9.64665 34.0824 9.47872C34.0824 6.52633 31.3997 5.19697 29.0321 4.02478C28.0535 3.54002 27.1295 3.08256 26.4007 2.53825C25.2004 1.6407 24.4153 0.284041 24.4079 0.270806C24.307 0.0954324 24.125 -0.00631374 23.9132 0.000304114C23.7105 0.0110581 23.5319 0.133484 23.4491 0.318784C23.4442 0.329538 22.9544 1.40825 21.4754 2.54155C20.7358 3.10903 19.7903 3.58056 18.7902 4.08104C16.4507 5.24992 13.7986 6.57431 13.7986 9.47872C13.7986 9.64996 13.8152 9.82203 13.8235 9.99327C13.6803 9.89896 13.5405 9.7972 13.3933 9.71035C10.8512 8.21057 8.34305 9.8452 6.12938 11.2879C5.21446 11.8843 4.35082 12.4477 3.51118 12.7984C2.13053 13.375 0.562934 13.3576 0.545562 13.3617C0.350335 13.3584 0.158411 13.4701 0.063279 13.6488C-0.0310255 13.8267 -0.0169564 14.0442 0.0980289 14.2097C0.104647 14.2196 0.789585 15.2156 1.01128 17.0413C1.12296 17.9661 1.04935 19.02 0.971586 20.136C0.788767 22.7451 0.581954 25.7016 3.0835 27.1782C3.4144 27.3734 3.76265 27.5463 4.11836 27.7068C3.76265 27.8664 3.41522 28.0393 3.0835 28.2354C0.581954 29.712 0.788767 32.6685 0.971586 35.2776C1.05017 36.3936 1.12379 37.4466 1.01128 38.3723C0.790413 40.1972 0.105473 41.194 0.0996824 41.2014C-0.0177845 41.366 -0.032679 41.5836 0.0616254 41.7631C0.15593 41.9426 0.345365 42.0568 0.546382 42.051C0.561272 42.0526 2.12226 42.0336 3.51118 42.6143C4.34999 42.9651 5.21446 43.5284 6.12938 44.1249C7.72014 45.1614 9.46311 46.2988 11.2623 46.298C11.9655 46.298 12.6786 46.1243 13.3941 45.7016C13.5414 45.6147 13.6812 45.5129 13.8251 45.4186C13.816 45.594 13.7995 45.7694 13.7995 45.9431C13.7995 48.8475 16.4516 50.1719 18.791 51.3408C19.7919 51.8413 20.7366 52.3128 21.4762 52.8803C22.9362 53.9987 23.4458 55.0948 23.45 55.103C23.5327 55.2883 23.7122 55.4116 23.914 55.4224C23.9231 55.4232 23.9322 55.4232 23.9413 55.4232C24.1341 55.4232 24.3128 55.3198 24.4087 55.1519C24.4162 55.1378 25.1946 53.7869 26.4007 52.8844C27.1295 52.3401 28.0535 51.8826 29.0321 51.3979C31.3997 50.2257 34.0824 48.8972 34.0824 45.9439C34.0824 45.7727 34.0658 45.6006 34.0575 45.4286C34.2015 45.5237 34.3413 45.6246 34.4885 45.7115C35.1917 46.1268 35.894 46.2972 36.5889 46.2972C38.3658 46.2972 40.0963 45.1779 41.6747 44.1563C42.6136 43.5483 43.5004 42.9742 44.3649 42.6259C46.0706 41.9377 47.2726 42.0543 47.2825 42.0568C47.4819 42.0799 47.6812 41.9881 47.7929 41.8185C47.9038 41.649 47.9104 41.4314 47.8095 41.2552ZM35.0345 10.6269C36.9644 9.48865 38.9672 10.7858 41.089 12.159C42.0296 12.767 43.0016 13.3965 43.9612 13.7836C44.9993 14.2031 45.8804 14.3602 46.4917 14.4148C46.2278 15.0278 45.9068 15.9336 45.8009 16.9097C45.6917 17.9107 45.7745 19.0374 45.8539 20.1269C46.0417 22.6747 46.2179 25.082 44.2499 26.2434C43.9223 26.437 43.5757 26.6041 43.2225 26.7579C42.8957 20.2278 39.308 14.5439 34.0592 11.3011C34.3744 11.0563 34.697 10.8263 35.0345 10.6269ZM23.9405 45.9655C13.888 45.9655 5.70913 37.7866 5.70913 27.7341C5.70913 17.6816 13.888 9.50272 23.9405 9.50272C33.993 9.50272 42.1719 17.6816 42.1719 27.7341C42.1719 37.7866 33.9939 45.9655 23.9405 45.9655ZM19.2708 5.04228C20.2726 4.54181 21.3091 4.02479 22.1297 3.39527C23.0181 2.71363 23.6022 2.03529 23.9595 1.53647C24.3533 2.075 24.9712 2.81207 25.7563 3.39857C26.5637 4.00163 27.5754 4.50292 28.554 4.98768C30.8438 6.12181 33.0061 7.19226 33.0061 9.4779C33.0061 9.86835 32.9722 10.2605 32.9234 10.6526C30.2382 9.23469 27.1824 8.42731 23.9405 8.42731C20.6986 8.42731 17.6428 9.23387 14.9576 10.6526C14.908 10.2605 14.874 9.86753 14.874 9.4779C14.874 7.23858 17.0099 6.17146 19.2708 5.04228ZM2.04532 20.2104C2.12391 19.0936 2.20416 17.938 2.08007 16.9114C1.94523 15.7996 1.65735 14.9517 1.40918 14.3908C2.07345 14.3255 3.02146 14.1683 3.92645 13.7903C4.85626 13.4023 5.80261 12.7852 6.71671 12.1879C8.85675 10.7932 10.8785 9.47459 12.8465 10.6352C13.1824 10.8337 13.5033 11.0621 13.816 11.3036C8.56888 14.5488 4.98282 20.2344 4.65855 26.7654C4.30449 26.6107 3.95789 26.4436 3.63113 26.2509C1.70203 25.1134 1.86912 22.7318 2.04532 20.2104ZM12.8465 44.7759C10.8793 45.9381 8.85758 44.6204 6.71671 43.2232C5.80179 42.6267 4.85626 42.0096 3.92645 41.6217C3.02146 41.2428 2.07345 41.0856 1.40918 41.0202C1.65735 40.4586 1.94523 39.6115 2.08007 38.4997C2.20416 37.4723 2.12391 36.3174 2.04532 35.2007C1.86912 32.6801 1.70203 30.2985 3.63113 29.1594C3.95789 28.9667 4.30449 28.7996 4.65689 28.6457C4.96297 35.1841 8.53578 40.8796 13.7763 44.1389C13.4768 44.3681 13.1683 44.5856 12.8465 44.7759ZM28.5548 50.4325C27.5762 50.9173 26.5637 51.4186 25.7571 52.0216C24.9712 52.609 24.3541 53.3452 23.9604 53.8837C23.603 53.3849 23.0198 52.7066 22.1305 52.0249C21.3091 51.3954 20.2734 50.8784 19.2716 50.3779C17.0108 49.2487 14.8749 48.1816 14.8749 45.9423C14.8749 45.5676 14.9063 45.1895 14.9518 44.8123C17.6387 46.2326 20.6969 47.0408 23.9413 47.0408C27.1857 47.0408 30.244 46.2326 32.9309 44.8123C32.9764 45.1895 33.007 45.5667 33.007 45.9423C33.007 48.2279 30.8446 49.2992 28.5548 50.4325ZM43.9612 41.6283C43.0016 42.0154 42.0296 42.6449 41.089 43.253C38.968 44.6262 36.9644 45.9241 35.0345 44.785C34.7102 44.5939 34.4 44.3747 34.0981 44.1431C39.3403 40.8862 42.9156 35.1924 43.2241 28.6548C43.5773 28.8095 43.924 28.9766 44.2507 29.1693C46.2187 30.3308 46.0417 32.738 45.8547 35.2859C45.7745 36.3753 45.6917 37.502 45.8018 38.5038C45.9076 39.4791 46.2286 40.3849 46.4925 40.9979C45.8804 41.0517 44.9993 41.2089 43.9612 41.6283Z" fill="black" fill-opacity="0.5"/>
</svg>
