<svg width="50" height="50" viewBox="0 0 50 50" fill="none" xmlns="http://www.w3.org/2000/svg">
<path d="M25 40.9491C21.6953 40.9491 18.3151 39.7663 15.7261 37.704C14.4275 36.6694 13.4007 35.4784 12.6745 34.164C11.9008 32.7638 11.5086 31.2911 11.5086 29.7868C11.5086 29.7748 11.509 29.7628 11.5099 29.7508C11.512 29.7201 11.7262 26.6375 11.5207 23.1981C11.2546 18.743 10.4246 15.7234 9.12066 14.466C8.68 14.041 8.19857 13.8345 7.64884 13.8345C7.32036 13.8345 7.04918 13.6024 7.03111 13.3058C7.01298 13.0093 7.25428 12.7516 7.58078 12.7189C7.60467 12.7165 7.82424 12.6956 8.19084 12.6956C9.47741 12.6956 12.7497 12.9622 15.3419 15.432C16.9343 16.9494 17.9895 19.0151 18.5 21.6048C18.5777 21.3111 18.6617 21.0136 18.7525 20.7139C20.0426 16.4565 22.0641 13.78 24.7611 12.7589C24.9139 12.701 25.0861 12.701 25.239 12.7589C27.9361 13.7802 29.9578 16.457 31.248 20.7151C31.3386 21.0141 31.4224 21.311 31.4999 21.604C32.0102 19.0146 33.0651 16.9489 34.657 15.4319C37.2488 12.9622 40.5221 12.6956 41.8092 12.6956C42.1762 12.6956 42.3956 12.7165 42.4194 12.7189C42.7458 12.7516 42.9871 13.0093 42.9689 13.3058C42.9508 13.6024 42.6796 13.8344 42.3512 13.8344C41.8014 13.8344 41.3199 14.041 40.8792 14.4661C39.5742 15.7247 38.7441 18.7479 38.4786 23.2088C38.274 26.6473 38.488 29.72 38.4902 29.7507C38.4911 29.7627 38.4915 29.7747 38.4915 29.7867C38.4915 31.291 38.0992 32.7637 37.3256 34.1639C36.5993 35.4784 35.5726 36.6694 34.2739 37.7039C31.6848 39.7663 28.3046 40.9491 25 40.9491ZM12.746 29.8037C12.7588 35.0533 18.5937 39.8302 25 39.8302C31.4063 39.8302 37.2412 35.0533 37.254 29.8037C37.236 29.5357 37.0429 26.5101 37.2429 23.1487C37.5068 18.7151 38.313 15.6633 39.6413 14.0631C38.3803 14.3494 36.8659 14.9526 35.5546 16.2021C33.1887 18.4566 32.136 22.1368 32.4262 27.1403L32.4276 27.1656C32.4442 27.4737 32.1818 27.7359 31.8411 27.7516C31.4992 27.7671 31.2099 27.5305 31.1918 27.2225L31.1905 27.1989C31.1631 26.7481 30.4636 16.2476 25.0001 13.8878C19.5367 16.2475 18.8373 26.7479 18.8099 27.2L18.8086 27.2224C18.7905 27.5305 18.4998 27.7675 18.1593 27.7515C17.8185 27.7359 17.5561 27.4737 17.5727 27.1656L17.5742 27.1401C17.5742 27.1395 17.5743 27.1389 17.5743 27.1383C17.8637 22.1369 16.8106 18.4568 14.4443 16.2022C13.1331 14.953 11.6193 14.3497 10.359 14.0632C11.6871 15.6635 12.4933 18.7152 12.7571 23.1485C12.957 26.51 12.764 29.5357 12.746 29.8037Z" fill="black" fill-opacity="0.5"/>
<path d="M15.1722 16.6545C15.0605 16.6545 14.9475 16.6271 14.8457 16.5698C14.5557 16.4065 14.467 16.0615 14.6477 15.7992C15.7122 14.2538 16.9952 13.1887 18.4613 12.6335C18.6143 12.5756 18.7864 12.5756 18.9392 12.6335C20.248 13.1288 21.4148 14.0339 22.4071 15.3237C22.6023 15.5773 22.5331 15.926 22.2526 16.1025C21.9722 16.2789 21.5865 16.2164 21.3913 15.9627C20.5986 14.9323 19.6944 14.1933 18.7004 13.7626C17.5726 14.2514 16.5636 15.1343 15.6981 16.3908C15.5808 16.561 15.3788 16.6545 15.1722 16.6545Z" fill="black" fill-opacity="0.5"/>
<path d="M28.5714 16.6545C28.4596 16.6545 28.3466 16.6271 28.2448 16.5698C27.9547 16.4064 27.8662 16.0613 28.0469 15.7991C29.1117 14.2537 30.3948 13.1886 31.8606 12.6335C32.0136 12.5756 32.1856 12.5756 32.3385 12.6335C33.6474 13.1289 34.8143 14.034 35.8065 15.3237C36.0017 15.5773 35.9325 15.926 35.652 16.1025C35.3715 16.2789 34.9859 16.2164 34.7907 15.9627C33.998 14.9324 33.0937 14.1934 32.0997 13.7626C30.972 14.2513 29.963 15.1343 29.0972 16.3909C28.9798 16.561 28.778 16.6545 28.5714 16.6545Z" fill="black" fill-opacity="0.5"/>
<path d="M27.2942 15.0487C27.2856 15.0487 27.277 15.0486 27.2684 15.0483C26.9269 15.0356 26.6615 14.775 26.6756 14.4663L27.0567 6.06852C27.0708 5.7598 27.3598 5.52018 27.7003 5.53243C28.0417 5.54513 28.3071 5.80568 28.2931 6.1144L27.9119 14.5122C27.8983 14.8131 27.6242 15.0487 27.2942 15.0487Z" fill="black" fill-opacity="0.5"/>
<path d="M27.7302 6.65922C27.1118 6.65922 26.5371 6.40807 26.1534 5.97023C25.8198 5.5895 25.6702 5.11422 25.732 4.63184C25.7938 4.1494 26.0598 3.71765 26.4807 3.41609C26.8345 3.16259 27.2777 3.02295 27.7285 3.02295C28.3469 3.02295 28.9216 3.27415 29.3053 3.71206C29.6388 4.09267 29.7884 4.56795 29.7266 5.05039C29.6648 5.53277 29.3988 5.96458 28.9777 6.26613C28.624 6.51963 28.1809 6.65922 27.7302 6.65922ZM27.7285 4.14191C27.553 4.14191 27.3872 4.19422 27.2492 4.29313C27.0873 4.40911 26.985 4.57511 26.9613 4.76058C26.9376 4.9461 26.9951 5.12888 27.1233 5.2753C27.2708 5.44365 27.4921 5.54021 27.7302 5.54021C27.9057 5.54021 28.0714 5.48796 28.2094 5.38904C28.3713 5.273 28.4736 5.10695 28.4974 4.92148C28.5212 4.73602 28.4636 4.55324 28.3354 4.40688C28.1877 4.23847 27.9665 4.14191 27.7285 4.14191Z" fill="black" fill-opacity="0.5"/>
<path d="M30.0537 14.6823C30.0412 14.6823 30.0287 14.6819 30.016 14.6812C29.6749 14.6627 29.415 14.3977 29.4355 14.0892L29.8016 8.56622C29.822 8.25778 30.1151 8.02319 30.4563 8.04126C30.7974 8.05978 31.0573 8.32475 31.0369 8.63325L30.6707 14.1563C30.651 14.4532 30.3785 14.6823 30.0537 14.6823Z" fill="black" fill-opacity="0.5"/>
<path d="M30.607 9.178C29.9213 9.178 29.2898 8.86749 28.9175 8.3474C28.3153 7.50544 28.5827 6.37765 29.5135 5.83322C29.8397 5.64238 30.2169 5.5415 30.6044 5.5415C31.2902 5.5415 31.9218 5.85207 32.2939 6.37233C32.5856 6.78008 32.6842 7.26615 32.5715 7.74098C32.4589 8.21581 32.1485 8.62261 31.6975 8.88635C31.3715 9.07713 30.9943 9.178 30.607 9.178ZM30.6044 6.66046C30.456 6.66046 30.3112 6.69929 30.1856 6.77275C29.8276 6.98211 29.7249 7.41581 29.9564 7.73958C30.0995 7.9396 30.3428 8.05905 30.607 8.05905C30.7552 8.05905 30.8999 8.02028 31.0254 7.94682C31.1989 7.84533 31.3183 7.6889 31.3616 7.50628C31.4049 7.32372 31.367 7.1368 31.2548 6.97998C31.1116 6.77991 30.8686 6.66046 30.6044 6.66046Z" fill="black" fill-opacity="0.5"/>
<path d="M20.4078 14.4946C20.086 14.4946 19.8144 14.2694 19.7913 13.9746L19.3733 8.63911C19.3491 8.33089 19.6058 8.06329 19.9467 8.04147C20.2883 8.01954 20.5834 8.25184 20.6076 8.56005L21.0256 13.8955C21.0498 14.2037 20.7931 14.4713 20.4522 14.4932C20.4373 14.4941 20.4225 14.4946 20.4078 14.4946Z" fill="black" fill-opacity="0.5"/>
<path d="M19.8027 9.178H19.8026C19.4152 9.178 19.0381 9.07713 18.7119 8.88623C18.2611 8.6225 17.9507 8.21576 17.8381 7.74093C17.7255 7.26604 17.8241 6.77997 18.1159 6.37222C18.4879 5.85207 19.1195 5.5415 19.8053 5.5415C20.1926 5.5415 20.5698 5.64238 20.8961 5.83327C21.8269 6.37759 22.0943 7.50539 21.4921 8.34723C21.12 8.86749 20.4884 9.178 19.8027 9.178ZM19.8053 6.66046C19.5411 6.66046 19.298 6.77991 19.1549 6.97998C19.0427 7.13686 19.0047 7.32378 19.048 7.50634C19.0913 7.68895 19.2107 7.84538 19.3841 7.94682C19.5096 8.02028 19.6544 8.0591 19.8027 8.0591C20.0669 8.0591 20.3099 7.93965 20.4531 7.73958C20.6846 7.41587 20.5819 6.98216 20.2241 6.77286C20.0984 6.69935 19.9536 6.66046 19.8053 6.66046Z" fill="black" fill-opacity="0.5"/>
<path d="M23.2249 14.8144C22.8999 14.8144 22.6273 14.5852 22.6077 14.2881L22.0712 6.1247C22.0509 5.81626 22.311 5.55134 22.6521 5.53299C22.995 5.51459 23.2862 5.7499 23.3065 6.05829L23.843 14.2217C23.8633 14.5301 23.6032 14.7951 23.2621 14.8134C23.2496 14.8141 23.2372 14.8144 23.2249 14.8144Z" fill="black" fill-opacity="0.5"/>
<path d="M22.6334 6.65917C22.1827 6.65917 21.7396 6.51958 21.3858 6.26614C20.5169 5.6436 20.37 4.49785 21.0585 3.71206C21.4421 3.2741 22.0168 3.02295 22.6352 3.02295C23.086 3.02295 23.5292 3.1626 23.8831 3.41615C24.3039 3.7176 24.5699 4.14935 24.6317 4.63179C24.6935 5.11417 24.5439 5.58945 24.2104 5.97012C23.8265 6.40802 23.2517 6.65917 22.6334 6.65917ZM22.6352 4.14185C22.3971 4.14185 22.1759 4.23842 22.0284 4.40682C21.7637 4.709 21.8201 5.14964 22.1542 5.38904C22.2922 5.4879 22.4579 5.54021 22.6334 5.54021C22.8715 5.54021 23.0929 5.44359 23.2405 5.27519C23.3686 5.12888 23.4262 4.9461 23.4024 4.76058C23.3787 4.57511 23.2764 4.40911 23.1146 4.29319C22.9765 4.19416 22.8107 4.14185 22.6352 4.14185Z" fill="black" fill-opacity="0.5"/>
<path d="M25.205 13.8922C25.204 13.8922 25.203 13.8922 25.202 13.8922C24.8603 13.8907 24.5845 13.639 24.5862 13.33L24.6405 3.06583C24.6421 2.75778 24.9188 2.50903 25.2591 2.50903C25.2602 2.50903 25.2611 2.50903 25.2622 2.50903C25.6038 2.51049 25.8796 2.7622 25.8779 3.0712L25.8237 13.3354C25.822 13.6434 25.5453 13.8922 25.205 13.8922Z" fill="black" fill-opacity="0.5"/>
<path d="M25.2039 3.63622C24.7532 3.63622 24.3101 3.49663 23.9562 3.24319C23.5353 2.94157 23.2694 2.50982 23.2075 2.02744C23.1457 1.54506 23.2954 1.06972 23.6289 0.689055C24.0125 0.251151 24.5873 0 25.2056 0C25.6564 0 26.0996 0.139645 26.4535 0.393257C26.8743 0.694648 27.1402 1.1264 27.2021 1.60889C27.2639 2.09127 27.1143 2.56655 26.7809 2.94722C26.397 3.38507 25.8222 3.63622 25.2039 3.63622ZM25.2056 1.1189C24.9676 1.1189 24.7464 1.21547 24.5989 1.38387C24.4705 1.53029 24.413 1.71307 24.4367 1.89859C24.4606 2.08406 24.5628 2.25011 24.7246 2.36609C24.8627 2.46495 25.0284 2.51726 25.2038 2.51726C25.442 2.51726 25.6633 2.42064 25.8109 2.25224C25.9391 2.10593 25.9966 1.92315 25.9729 1.73763C25.949 1.55216 25.8468 1.38617 25.685 1.27024C25.5468 1.17116 25.3811 1.1189 25.2056 1.1189Z" fill="black" fill-opacity="0.5"/>
<path d="M25.0001 50.0001C24.6584 50.0001 24.3813 49.7496 24.3813 49.4406V40.3898C24.3813 40.0808 24.6584 39.8303 25.0001 39.8303C25.3417 39.8303 25.6188 40.0808 25.6188 40.3898V49.4406C25.6188 49.7496 25.3417 50.0001 25.0001 50.0001Z" fill="black" fill-opacity="0.5"/>
<path d="M25.0007 45.4745C24.9806 45.4745 24.9604 45.4736 24.9399 45.4719C24.4346 45.4273 23.8172 45.4073 22.9382 45.4073C22.5434 45.4073 22.1324 45.411 21.6973 45.415C21.2274 45.4193 20.7416 45.4236 20.2378 45.4236C20.2375 45.4236 20.2372 45.4236 20.237 45.4236C17.8135 45.4236 14.9593 45.3229 12.1649 44.5766C8.93211 43.7131 6.38768 42.1667 4.38617 39.8488C2.73232 37.9575 1.52687 35.9034 0.805687 33.7465C0.227861 32.0182 -0.0414832 30.2219 0.00516855 28.4074C0.0847363 25.3117 1.05088 23.2475 1.09197 23.1611C1.193 22.9487 1.42769 22.8145 1.68359 22.8231C1.93906 22.8318 2.16228 22.9817 2.24544 23.2003C2.26796 23.2595 4.57073 29.2118 10.4151 36.6088C13.3923 39.9043 17.2144 41.8349 19.898 42.8743C22.7099 43.9633 24.8965 44.3302 25.0888 44.3611C25.389 44.3996 25.6199 44.6329 25.6199 44.9151C25.6199 45.2149 25.3591 45.4596 25.0315 45.4739C25.0213 45.4744 25.011 45.4745 25.0007 45.4745ZM1.72714 25.0704C1.49889 25.9194 1.27219 27.0944 1.24119 28.4822C1.15476 32.3421 2.54027 35.9338 5.35924 39.1576C9.26554 43.6814 14.8182 44.3047 20.237 44.3048C20.2373 44.3048 20.2376 44.3048 20.2378 44.3048C20.3274 44.3048 20.4164 44.3046 20.505 44.3044C20.1644 44.1863 19.8104 44.0573 19.4458 43.9164C16.6201 42.8258 12.5911 40.793 9.44385 37.3022C9.43562 37.2931 9.42764 37.2837 9.42009 37.2741C5.15833 31.8833 2.77538 27.3253 1.72714 25.0704Z" fill="black" fill-opacity="0.5"/>
<path d="M24.9994 45.4746C24.6925 45.4746 24.4276 45.269 24.3866 44.9884C24.3429 44.6896 24.569 44.4132 24.8978 44.3634C24.9202 44.36 27.1715 44.0094 30.1019 42.8744C32.7855 41.835 36.6076 39.9044 39.5848 36.6089C45.4293 29.2119 47.732 23.2596 47.7546 23.2003C47.8379 22.9818 48.0612 22.832 48.3166 22.8233C48.5707 22.8153 48.807 22.9489 48.9081 23.1613C48.9491 23.2476 49.9152 25.3118 49.9948 28.4076C50.0415 30.222 49.7721 32.0183 49.1943 33.7467C48.4732 35.9036 47.2677 37.9576 45.6115 39.8516C43.6124 42.1669 41.0679 43.7133 37.8352 44.5768C35.0407 45.3231 32.1865 45.4238 29.7631 45.4238C29.2592 45.4238 28.7733 45.4193 28.3032 45.4151C27.868 45.4112 27.4568 45.4075 27.0619 45.4075C26.1829 45.4075 25.5655 45.4274 25.0601 45.472C25.0398 45.4738 25.0194 45.4746 24.9994 45.4746ZM29.4951 44.3044C29.584 44.3046 29.6732 44.3047 29.763 44.3047C35.1818 44.3047 40.7344 43.6815 44.6385 39.1603C48.1676 35.1243 48.8263 31.0996 48.7576 28.4335C48.7224 27.0616 48.4991 25.9052 48.2739 25.0682C47.2262 27.3223 44.8431 31.8814 40.5799 37.2741C40.5723 37.2837 40.5643 37.2931 40.5561 37.3022C37.4088 40.793 33.3799 42.8258 30.5542 43.9164C30.1896 44.0572 29.8357 44.1862 29.4951 44.3044Z" fill="black" fill-opacity="0.5"/>
</svg>
