<svg width="57" height="33" viewBox="0 0 57 33" fill="none" xmlns="http://www.w3.org/2000/svg">
<path d="M43.8448 33C43.5196 33 43.2557 32.7354 43.2548 32.4081C43.2547 32.385 43.256 32.3621 43.2585 32.3397C41.3406 25.7996 35.3039 21.2517 28.5001 21.2517C21.6966 21.2517 15.6598 25.7999 13.7416 32.3396C13.7441 32.3621 13.7454 32.3849 13.7454 32.4081C13.7445 32.7353 13.4805 33 13.1553 33C13.1548 33 13.1543 33 13.1537 33L0.588437 32.9665C0.399161 32.966 0.221686 32.8742 0.111176 32.7197C0.000608214 32.5653 -0.0295472 32.3669 0.029985 32.1862C0.131585 31.8782 2.46043 24.9193 5.96445 22.9675C5.10652 20.0137 6.81378 15.4593 7.7283 13.3521C7.06028 13.4652 6.27355 13.4506 5.75582 12.9579L5.75576 12.9579C5.29248 12.5169 5.02775 11.921 5.01016 11.2799C4.99258 10.6388 5.22428 10.0291 5.66266 9.56323C6.56745 8.60152 8.08141 8.55957 9.03753 9.46953C9.56836 9.97477 9.61586 10.792 9.53166 11.4801C11.5731 10.5768 16.1946 8.79368 19.1891 9.65883C20.6647 6.9499 25.101 4.93884 27.2198 4.10496C26.6893 3.71211 26.182 3.15791 26.1631 2.4677C26.1455 1.82644 26.3771 1.21669 26.8155 0.750852C27.2538 0.284954 27.8463 0.0186842 28.4837 0.00100012C29.7985 -0.0369792 30.8996 1.01149 30.936 2.33495C30.9561 3.06901 30.4163 3.68012 29.8736 4.1068C31.9885 4.94133 36.4079 6.94943 37.8969 9.65355C40.8848 8.77569 45.5207 10.5685 47.5646 11.4751C47.4653 10.8196 47.4958 10.0658 47.9681 9.56365L47.9681 9.56353C48.873 8.60188 50.3871 8.55981 51.3432 9.46982C52.2993 10.3801 52.341 11.9028 51.4363 12.8642C50.9166 13.4168 50.0644 13.4488 49.3663 13.352C50.2836 15.471 51.9952 20.0539 51.1125 23.0112C54.5733 25.0214 56.8692 31.8803 56.97 32.1861C57.0296 32.3667 56.9994 32.5652 56.8889 32.7196C56.7783 32.8741 56.6008 32.9658 56.4115 32.9664L43.8462 32.9999C43.8459 33 43.8453 33 43.8448 33ZM28.5001 20.0649C32.1898 20.0649 35.6817 21.2587 38.598 23.5174C41.3057 25.6145 43.3298 28.5468 44.3325 31.8118L55.5691 31.7818C55.2892 31.0438 54.8102 29.8678 54.1775 28.6381C53.1048 26.5537 51.9883 25.0727 50.9064 24.288C50.8041 25.0179 50.5266 25.9237 49.7951 26.2801C49.2212 26.5597 48.5734 26.5979 47.971 26.3874C47.3685 26.177 46.8837 25.7431 46.6057 25.1658C46.3277 24.5887 46.2898 23.9371 46.499 23.3312C46.7083 22.7254 47.1396 22.2377 47.7135 21.9582C48.4853 21.5821 49.4209 21.9842 50.0589 22.3777C50.3556 21.0361 50.1184 19.0927 49.3594 16.6958C48.7982 14.9241 48.113 13.4258 47.8755 12.9257C47.3774 12.686 45.8824 11.9932 44.1228 11.4284C41.8428 10.6967 39.9768 10.447 38.6555 10.6906C39.1095 11.2815 39.5875 12.1481 39.3123 12.9449C39.1032 13.5509 38.6719 14.0387 38.0979 14.3183C37.524 14.5979 36.8761 14.636 36.2737 14.4255C35.6713 14.2151 35.1864 13.7813 34.9084 13.2041C34.6305 12.6269 34.5926 11.9754 34.8018 11.3695C35.0803 10.5632 36.008 10.1816 36.7325 10.0036C35.9999 8.84738 34.4713 7.64546 32.259 6.49373C30.6147 5.63778 29.067 5.06168 28.5453 4.87605C28.0245 5.06091 26.4803 5.63416 24.8392 6.48614C22.7192 7.58671 21.2271 8.73356 20.4617 9.84232C21.2002 9.93566 22.1569 10.2073 22.5247 10.9711V10.9711C23.0986 12.1628 22.6015 13.6018 21.4169 14.1789C20.843 14.4585 20.1951 14.4966 19.5928 14.2862C18.9904 14.0758 18.5056 13.642 18.2276 13.0647C17.8598 12.3012 18.2405 11.3782 18.6253 10.7375C17.294 10.4363 15.363 10.6726 12.9809 11.4342C11.2165 11.9983 9.71704 12.6917 9.21766 12.9315C8.97929 13.4326 8.29052 14.9362 7.729 16.7058C7.00252 18.9956 6.75406 20.8703 6.99431 22.1989C7.58232 21.7353 8.4602 21.2329 9.26627 21.5145C9.86868 21.725 10.3535 22.1588 10.6315 22.736C10.9095 23.3132 10.9474 23.9648 10.7381 24.5707C10.529 25.1765 10.0977 25.6642 9.5237 25.9439C8.94979 26.2235 8.3019 26.2615 7.69962 26.0512C6.90139 25.7724 6.52177 24.846 6.34383 24.1187C5.18209 24.8491 3.97322 26.3989 2.81544 28.6521C2.18507 29.8789 1.70916 31.0476 1.43074 31.782L12.6675 31.812C13.6702 28.5469 15.6945 25.6144 18.4024 23.5173C21.3187 21.2586 24.8104 20.0649 28.5001 20.0649ZM48.3996 22.9925C48.3336 22.9925 48.2756 23.0031 48.228 23.0263C47.9377 23.1677 47.7197 23.4143 47.6138 23.7207C47.508 24.0271 47.5271 24.3566 47.6677 24.6485C47.8084 24.9405 48.0536 25.1599 48.3582 25.2664C48.6627 25.3727 48.9904 25.3535 49.2807 25.2121L49.2808 25.212C49.5885 25.0621 49.7551 24.2565 49.7804 23.6201C49.3471 23.3044 48.7568 22.9925 48.3996 22.9925ZM7.40673 23.4067C7.50685 24.0362 7.76635 24.8178 8.08684 24.9299C8.39146 25.0363 8.71916 25.0171 9.00932 24.8756C9.29955 24.7342 9.51767 24.4875 9.62346 24.1811C9.72931 23.8746 9.71019 23.5452 9.56959 23.2533C9.42899 22.9614 9.18373 22.742 8.87905 22.6355C8.55838 22.5237 7.87354 22.9749 7.40673 23.4067ZM37.431 11.0747C36.8052 11.1754 36.028 11.4363 35.9166 11.7588C35.8108 12.0652 35.8299 12.3947 35.9705 12.6866C36.1111 12.9785 36.3563 13.1978 36.6609 13.3042C36.9656 13.4107 37.2933 13.3915 37.5836 13.2501C37.8738 13.1087 38.0918 12.862 38.1977 12.5556C38.309 12.2332 37.8603 11.5441 37.431 11.0747ZM19.8795 10.9864C19.5078 11.5027 19.1417 12.2401 19.2896 12.5472C19.4302 12.8391 19.6754 13.0584 19.98 13.1649C20.2846 13.2713 20.6123 13.252 20.9025 13.1106C21.5016 12.8187 21.753 12.0909 21.4628 11.4883C21.3148 11.1813 20.5131 11.0132 19.8795 10.9864ZM6.56685 12.0958C6.81342 12.3304 7.62226 12.202 8.22413 12.0013C8.3901 11.3861 8.473 10.5662 8.22649 10.3316C7.74298 9.8714 6.97738 9.89264 6.51976 10.379C6.29804 10.6146 6.18086 10.9229 6.18977 11.2471C6.19862 11.5714 6.33256 11.8728 6.56685 12.0958ZM48.9193 12.0462C49.5309 12.2132 50.346 12.2965 50.5793 12.0486C51.0369 11.5623 51.0157 10.7923 50.5322 10.332C50.0488 9.87187 49.2831 9.893 48.8254 10.3793C48.5922 10.6272 48.7197 11.4409 48.9193 12.0462ZM28.5501 1.18696C28.5389 1.18696 28.5277 1.18708 28.5164 1.18744C28.1939 1.1964 27.8943 1.33105 27.6726 1.56664C27.4509 1.80223 27.3337 2.11057 27.3427 2.43488C27.3521 2.77871 28.0139 3.26253 28.5803 3.54714C29.1303 3.23019 29.7659 2.70904 29.7566 2.3677C29.7384 1.70983 29.2005 1.18696 28.5501 1.18696ZM36.4271 32.9662H20.5729C20.5173 32.9662 20.4628 32.9583 20.4107 32.9433L17.4316 32.9587C17.1048 32.9614 16.8403 32.696 16.8386 32.3683C16.837 32.0405 17.0997 31.7735 17.4256 31.7718L20.2496 31.7572C20.4475 31.4351 20.6629 31.1267 20.8938 30.8333L18.4232 29.4481C18.1386 29.2885 18.0364 28.9271 18.1952 28.6408C18.3538 28.3545 18.713 28.2518 18.9978 28.4115L21.7028 29.9281C22.0886 29.5472 22.5044 29.2002 22.945 28.8905L21.0053 26.8941C20.7776 26.6597 20.7819 26.284 21.015 26.0548C21.248 25.8258 21.6215 25.8301 21.8493 26.0645L23.9786 28.2562C24.4743 27.9931 24.9928 27.7727 25.5285 27.5986L24.1521 25.1462C23.9919 24.8608 24.0921 24.4989 24.3759 24.3378C24.6598 24.1766 25.0195 24.2774 25.1797 24.5628L26.7132 27.2952C27.1065 27.2207 27.5061 27.1704 27.9104 27.1455V24.5027C27.9104 24.1749 28.1745 23.9092 28.5004 23.9092C28.8262 23.9092 29.0904 24.1749 29.0904 24.5027V27.1455C29.4945 27.1704 29.8943 27.2207 30.2875 27.2952L31.821 24.5628C31.9812 24.2773 32.3412 24.1768 32.6248 24.3378C32.9086 24.4989 33.0088 24.8608 32.8486 25.1462L31.4722 27.5988C32.0078 27.7729 32.5264 27.9931 33.022 28.2563L35.1515 26.0645C35.3791 25.8302 35.7527 25.8258 35.9859 26.0548C36.2189 26.2839 36.2232 26.6596 35.9955 26.8941L34.0556 28.8907C34.4961 29.2004 34.9119 29.5473 35.2976 29.9282L38.003 28.4114C38.2874 28.2519 38.6469 28.3544 38.8056 28.6408C38.9643 28.927 38.8622 29.2885 38.5776 29.448L36.1066 30.8335C36.3374 31.1268 36.5527 31.4351 36.7506 31.7572L39.5752 31.7718C39.9011 31.7734 40.1639 32.0405 40.1622 32.3682C40.1605 32.6949 39.8967 32.9586 39.5722 32.9586C39.5712 32.9586 39.5702 32.9586 39.5691 32.9586L36.5895 32.9433C36.5373 32.9583 36.4828 32.9662 36.4271 32.9662ZM21.6595 31.7793H35.3407C33.7463 29.6196 31.2101 28.3143 28.5004 28.3143C25.7903 28.3143 23.254 29.6196 21.6595 31.7793Z" fill="black" fill-opacity="0.5"/>
</svg>
