<svg width="34" height="35" viewBox="0 0 34 35" fill="none" xmlns="http://www.w3.org/2000/svg">
<g opacity="0.5">
<path d="M25.7504 2.74042C23.4257 1.19036 19.9402 3.56839 18.5136 5.48655C15.3539 9.73503 15.9954 14.3454 16.297 15.7638C16.3172 15.8583 16.4528 15.8575 16.4704 15.7624C16.7662 14.1664 18.2738 8.72163 25.1819 7.50101C26.9357 7.19124 27.7539 5.10609 26.5876 3.54837C26.332 3.20673 26.0506 2.94067 25.7504 2.74042Z" fill="#232323"/>
<path d="M32.4406 11.0206C31.4852 8.39497 27.2684 8.24731 24.983 8.94816C19.921 10.5007 17.7081 14.5957 17.1112 15.9173C17.0713 16.0055 17.1813 16.085 17.2518 16.0189C18.4354 14.9079 22.8744 11.4131 29.1638 14.5202C30.7605 15.309 32.6544 14.1134 32.6372 12.1676C32.6332 11.7408 32.5641 11.3596 32.4406 11.0206Z" fill="black"/>
<path d="M32.9286 21.6547C33.7136 18.9732 30.403 16.3571 28.1463 15.5685C23.148 13.822 18.9398 15.8116 17.6761 16.5231C17.5919 16.5704 17.6333 16.6998 17.7293 16.6881C19.3408 16.4938 24.9873 16.3059 28.2158 22.534C29.0354 24.1151 31.2696 24.2734 32.4078 22.6949C32.6575 22.3489 32.8273 22.001 32.9286 21.6547Z" fill="#232323"/>
<path d="M27.0251 30.5127C29.2456 28.8166 28.1268 24.7481 26.7753 22.7765C23.7817 18.4095 19.2125 17.5207 17.7728 17.3457C17.6769 17.334 17.6337 17.4627 17.718 17.5103C19.1317 18.3079 23.793 21.5002 22.7065 28.4307C22.4307 30.1901 24.1374 31.6405 25.9893 31.0428C26.3953 30.9116 26.7383 30.7319 27.0251 30.5127Z" fill="black"/>
<path d="M17.0225 34.1551C19.8162 34.1031 21.3238 30.1623 21.4023 27.7731C21.5759 22.4813 18.4202 19.0595 17.3638 18.066C17.2933 17.9998 17.1824 18.078 17.2221 18.1661C17.889 19.646 19.7547 24.9787 14.7754 29.9201C13.5113 31.1745 14.0277 33.354 15.874 33.9688C16.2788 34.1038 16.6616 34.1619 17.0225 34.1551Z" fill="#232323"/>
<path d="M6.80516 31.1672C9.08708 32.7796 12.6356 30.4968 14.1136 28.6178C17.3871 24.4564 16.8705 19.8304 16.6074 18.4043C16.5898 18.3093 16.4541 18.3065 16.4339 18.401C16.0949 19.9885 14.4407 25.3906 7.50219 26.4238C5.74074 26.6861 4.86628 28.7482 5.98991 30.337C6.23648 30.6852 6.51054 30.9589 6.80516 31.1672Z" fill="black"/>
<path d="M0.341262 22.7091C1.2253 25.3596 5.43668 25.6213 7.74019 24.9824C12.8422 23.5675 15.1652 19.5337 15.7978 18.2288C15.84 18.1418 15.7322 18.0592 15.6599 18.1235C14.4468 19.202 9.91502 22.5755 3.7118 19.2995C2.13701 18.4679 0.211364 19.6117 0.176016 21.5574C0.168181 21.984 0.227036 22.3667 0.341262 22.7091Z" fill="#232323"/>
<path d="M0.141055 12.0657C-0.716164 14.7251 2.52257 17.4298 4.75712 18.279C9.70645 20.1601 13.9669 18.2851 15.2494 17.6081C15.3349 17.563 15.2969 17.4326 15.2006 17.4417C13.5844 17.5923 7.9349 17.6273 4.87622 11.3142C4.09962 9.71154 1.87047 9.49301 0.690074 11.0399C0.430976 11.379 0.251799 11.7222 0.141055 12.0657Z" fill="black"/>
<path d="M6.28212 3.3706C4.01675 5.00598 5.02494 9.10332 6.32269 11.1108C9.19715 15.5573 13.7406 16.5693 15.1749 16.7831C15.2705 16.7974 15.3171 16.6699 15.2343 16.6201C13.8426 15.7845 9.26941 12.4672 10.543 5.56875C10.8663 3.8174 9.19941 2.32131 7.33209 2.86894C6.92238 2.98891 6.57465 3.15938 6.28212 3.3706Z" fill="#232323"/>
<path d="M16.3796 0.000105815C13.5856 -0.0234011 11.9718 3.87509 11.8288 6.2613C11.5121 11.5465 14.5741 15.0524 15.6032 16.0741C15.6718 16.1422 15.7848 16.0672 15.7475 15.9778C15.121 14.4804 13.4 9.09919 18.5112 4.29438C19.8088 3.07463 19.3516 0.881874 17.5226 0.217412C17.1215 0.0716688 16.7404 0.00306594 16.3796 0.000105815Z" fill="black"/>
</g>
</svg>
