<svg width="43" height="54" viewBox="0 0 43 54" fill="none" xmlns="http://www.w3.org/2000/svg">
<path d="M24.0243 54C22.3286 54 22.2256 53.9672 22.0696 53.9175C20.3709 53.3765 20.5214 51.0153 20.5628 50.5911L20.5129 35.1499C20.5129 35.1324 20.5136 35.1148 20.5149 35.0973C20.5294 34.9128 20.8793 30.5568 21.6794 28.4928C22.1726 27.2203 22.7224 25.9288 23.3135 24.6544C25.3073 20.3551 25.7948 18.3127 25.2455 16.5603C25.0834 16.0429 24.6183 14.2797 25.4405 13.314C25.7417 12.9603 26.1803 12.7656 26.6756 12.7656C27.5574 12.7656 28.572 13.3673 29.8666 14.6582C30.257 14.9968 33.3168 17.8768 31.4365 23.4322C31.1607 24.2927 30.7335 25.2921 30.3203 26.2587C29.9342 27.1618 29.5351 28.0956 29.288 28.8557C29.0613 29.5534 29.0286 29.9061 29.0355 30.0718C29.1764 30.0476 29.4332 29.9793 29.854 29.7906C30.3283 29.3875 33.3118 26.6668 33.1207 22.2288C32.8555 16.0797 29.8295 13.156 27.1597 10.5766C26.311 9.75653 25.5094 8.98203 24.8425 8.14998C23.3936 6.34198 20.9696 3.31699 21.8135 1.21626C22.0984 0.47708 22.8907 0 23.8345 0C24.494 0 25.52 0.222068 26.6686 1.2775C27.0808 1.62139 27.4946 1.96145 27.9323 2.32119C30.4806 4.41548 33.3688 6.78924 36.401 10.3607C38.2356 12.5217 40.5058 15.5037 41.7861 19.4143C43.3018 24.0435 43.029 28.9102 40.9753 33.8794C40.9723 33.8867 40.9691 33.8939 40.9658 33.9012C40.3782 35.1927 39.1373 36.6047 37.8236 38.0996C36.0526 40.1149 34.0454 42.399 34.0454 44.148C34.0454 45.5954 35.1197 47.4369 35.9881 48.9209C36.9761 50.4036 37.1974 51.7954 36.5949 52.7418C36.2672 53.2567 35.5467 53.8704 33.9757 53.8705C33.951 53.8705 33.9263 53.8703 33.9012 53.87C33.5447 53.877 27.1352 54 24.0243 54ZM22.5678 52.5325C22.7031 52.5403 23.0663 52.5522 24.0244 52.5522C27.1909 52.5522 33.814 52.4237 33.8805 52.4224C33.8909 52.4222 33.9013 52.4223 33.9115 52.4223C34.5805 52.4334 35.0095 52.2985 35.1821 52.0274C35.4724 51.5714 35.231 50.6141 34.5814 49.645C34.5734 49.633 34.5658 49.6207 34.5586 49.6084C33.6063 47.9813 32.4212 45.9561 32.4212 44.148C32.4212 41.8995 34.5176 39.514 36.5451 37.2069C37.7824 35.7988 38.9515 34.4685 39.4559 33.3676C43.6903 23.1089 39.0017 15.8229 35.106 11.2342C32.1613 7.76583 29.3297 5.43863 26.8314 3.38539C26.3863 3.01949 25.9657 2.67394 25.5441 2.32208C25.5339 2.31368 25.5241 2.30506 25.5145 2.29615C24.6859 1.53026 24.0637 1.44761 23.8346 1.44761C23.6874 1.44761 23.4286 1.47888 23.3491 1.68807C23.3473 1.69263 23.3455 1.69718 23.3437 1.70174C22.7821 3.08797 25.0665 5.93852 26.1643 7.30838C26.7721 8.06689 27.5402 8.80903 28.3535 9.59483C31.0722 12.2215 34.4556 15.4904 34.7437 22.173C34.9814 27.6872 31.023 30.8068 30.8543 30.9369C30.8065 30.9738 30.754 31.0056 30.6979 31.0317C29.9627 31.373 29.3955 31.5319 28.9129 31.5319C28.3997 31.5319 27.9706 31.3426 27.7047 30.9986C27.0007 30.0882 27.6633 28.4084 28.8027 25.7432C29.2045 24.8033 29.6199 23.8315 29.8765 23.03C29.8776 23.0264 29.8788 23.0228 29.8801 23.0193C30.5788 20.9577 30.5972 19.0983 29.9348 17.4929C29.443 16.3013 28.736 15.6972 28.729 15.6913C28.7089 15.6748 28.6938 15.661 28.6758 15.6428C27.4446 14.4106 26.8577 14.2403 26.712 14.2169C26.5751 14.422 26.4991 15.1784 26.8101 16.1706C27.5544 18.5453 26.6831 21.1787 24.8146 25.2074C24.2358 26.4554 23.6974 27.7198 23.2148 28.9654C22.5134 30.7748 22.1672 34.8127 22.1374 35.1729L22.1872 50.6212C22.1873 50.6457 22.1859 50.6702 22.1833 50.6947C22.1046 51.4271 22.256 52.3511 22.5678 52.5325Z" fill="black" fill-opacity="0.5"/>
<path d="M18.7255 54C15.6148 54 9.20518 53.877 8.84891 53.8701C8.82382 53.8704 8.79913 53.8706 8.77444 53.8706C7.20351 53.8706 6.48302 53.2568 6.15525 52.7419C5.55267 51.7954 5.77404 50.4036 6.76213 48.9208C7.63043 47.4369 8.70467 45.5953 8.70467 44.148C8.70467 42.3992 6.6974 40.115 4.92645 38.0997C3.61271 36.6048 2.37183 35.1927 1.78435 33.9012C1.78102 33.8939 1.77792 33.8867 1.77483 33.8794C-0.278894 28.9103 -0.551747 24.0434 0.96388 19.4143C2.24424 15.5036 4.5144 12.5216 6.3491 10.3607C9.381 6.78938 12.2691 4.41577 14.8172 2.32157C15.2551 1.96175 15.6689 1.62154 16.0813 1.2775C17.23 0.222141 18.256 0 18.9154 0C19.8593 0 20.6515 0.47708 20.9364 1.21626C21.7804 3.31699 19.3563 6.34198 17.9074 8.14998C17.2406 8.98203 16.439 9.75653 15.5903 10.5766C12.9205 13.156 9.8944 16.0796 9.62941 22.2288C9.43702 26.6911 12.4157 29.3867 12.8946 29.7899C13.3164 29.9791 13.5735 30.0476 13.7146 30.0718C13.7215 29.9062 13.6888 29.5535 13.4621 28.8557C13.215 28.0957 12.8159 27.162 12.4299 26.2589C12.0168 25.2924 11.5895 24.2931 11.3137 23.4327C9.43321 17.877 12.4935 14.9965 12.8836 14.6581C14.1782 13.3671 15.1926 12.7656 16.0745 12.7656C16.5698 12.7656 17.0084 12.9603 17.3095 13.314C18.1317 14.2797 17.6667 16.0428 17.5045 16.5603C16.9552 18.3127 17.4427 20.3552 19.4366 24.6544C20.0278 25.929 20.5775 27.2204 21.0707 28.4929C21.8708 30.5569 22.2207 34.9128 22.2352 35.0973C22.2366 35.1148 22.2372 35.1323 22.2372 35.1499L22.1873 50.5911C22.2288 51.0153 22.3793 53.3765 20.6805 53.9175C20.5243 53.9672 20.4213 54 18.7255 54ZM8.85167 52.4223C8.8576 52.4223 8.86352 52.4224 8.86953 52.4224C8.93604 52.4238 15.5591 52.5523 18.7256 52.5523C19.683 52.5523 20.0464 52.5405 20.1819 52.5326C20.4923 52.3505 20.6466 51.4119 20.5668 50.6947C20.5641 50.6703 20.5628 50.6458 20.5628 50.6213L20.6127 35.173C20.5829 34.8127 20.2361 30.7734 19.5354 28.9655C19.0526 27.72 18.5144 26.4556 17.9354 25.2074C16.067 21.1788 15.1957 18.5454 15.94 16.1707C16.2508 15.179 16.175 14.4229 16.0382 14.2173C15.8879 14.2417 15.3009 14.4153 14.0744 15.6429C14.0563 15.661 14.0372 15.6783 14.017 15.6948C14.0141 15.6973 13.3071 16.3013 12.8154 17.493C12.153 19.0984 12.1713 20.9576 12.8701 23.0194C12.8713 23.0229 12.8725 23.0265 12.8736 23.0301C13.1301 23.8316 13.5456 24.8035 13.9474 25.7435C15.0866 28.4085 15.7492 30.0882 15.0453 30.9987C14.7795 31.3426 14.3503 31.532 13.8372 31.532C13.3546 31.5321 12.7874 31.3732 12.0521 31.0318C11.996 31.0058 11.9435 30.974 11.8957 30.9371C11.7271 30.807 7.76857 27.6873 8.00628 22.1732C8.29433 15.4906 11.6777 12.2216 14.3964 9.59497C15.2097 8.80925 15.978 8.06703 16.5857 7.30852C17.6835 5.93858 19.9679 3.08811 19.4062 1.70189C19.4045 1.69733 19.4027 1.6927 19.4009 1.68821C19.3214 1.47895 19.0626 1.44775 18.9153 1.44775C18.6863 1.44775 18.0641 1.5304 17.2354 2.29629C17.2258 2.3052 17.2159 2.31382 17.2059 2.32222C16.7841 2.67415 16.3634 3.01993 15.918 3.38598C13.4199 5.43907 10.5884 7.76621 7.64408 11.2344C3.74826 15.823 -0.94027 23.109 3.29412 33.3678C3.79851 34.4687 4.96754 35.799 6.20494 37.2071C8.23227 39.5141 10.3287 41.8997 10.3287 44.1481C10.3287 45.9561 9.14363 47.9813 8.19144 49.6085C8.18421 49.6209 8.17656 49.6332 8.16852 49.6451C7.51892 50.6142 7.27748 51.5717 7.56773 52.0276C7.7403 52.2987 8.17063 52.4339 8.83834 52.4224C8.84289 52.4224 8.84728 52.4223 8.85167 52.4223Z" fill="black" fill-opacity="0.5"/>
</svg>
