<svg width="50" height="50" viewBox="0 0 50 50" fill="none" xmlns="http://www.w3.org/2000/svg">
<path d="M22.6282 48.5997C21.8708 48.5998 21.2299 48.0057 20.8701 46.9699C20.6136 46.2317 20.1383 45.8083 19.5661 45.8083C19.1802 45.8083 18.7736 45.997 18.3901 46.354C17.8408 46.8655 17.272 47.1358 16.7451 47.1359C16.0106 47.1361 15.1919 46.5852 15.0971 45.0388C15.0397 44.1035 14.5455 43.5225 13.8072 43.5225C13.5154 43.5225 13.2018 43.608 12.8752 43.7766C12.3988 44.0225 11.9517 44.1472 11.5464 44.1472C11.0488 44.1472 10.6354 43.9612 10.3512 43.6092C10.0919 43.2882 9.83079 42.6827 10.0591 41.6216C10.1842 41.0399 10.1044 40.5354 9.83437 40.201C9.59766 39.9079 9.22542 39.7531 8.75787 39.7531C8.60024 39.7531 8.43279 39.7711 8.26008 39.8067C8.00058 39.8602 7.75281 39.8873 7.52355 39.8873C6.80931 39.8873 6.25532 39.621 5.96361 39.1374C5.62791 38.5809 5.68694 37.8118 6.12977 36.9716C6.43354 36.3954 6.47539 35.8527 6.24772 35.4436C6.02005 35.0345 5.53681 34.7841 4.88706 34.7386C3.50385 34.6418 3.049 33.9894 2.90096 33.6092C2.75292 33.229 2.64698 32.4407 3.60051 31.4339C4.04841 30.961 4.23517 30.4497 4.1263 29.9943C4.01743 29.539 3.61962 29.1675 3.00626 28.9484C1.7005 28.4819 1.43848 27.7309 1.39851 27.3249C1.35855 26.9188 1.46916 26.1312 2.65894 25.4191C3.21785 25.0846 3.53557 24.6426 3.55359 24.1747C3.57157 23.7069 3.28879 23.2418 2.75724 22.8653C1.62574 22.0638 1.57599 21.27 1.64708 20.8682C1.71813 20.4664 2.03709 19.7379 3.37487 19.3732C4.00333 19.2018 4.42844 18.8621 4.57201 18.4164C4.71558 17.9707 4.56868 17.4466 4.15842 16.9406C3.28745 15.8664 3.45103 15.0897 3.62608 14.7224C3.80013 14.3572 4.29623 13.7445 5.6634 13.7445L5.71573 13.7447C6.35883 13.7447 6.85334 13.531 7.10817 13.1431C7.36448 12.753 7.36364 12.2099 7.10588 11.6137C6.74055 10.7688 6.73002 10.0132 7.0762 9.48629C7.36463 9.04728 7.87319 8.80552 8.5083 8.80552C8.79674 8.80552 9.11283 8.85442 9.44788 8.95085C9.67312 9.01569 9.88967 9.04856 10.0915 9.04856C10.5066 9.04856 10.8472 8.90984 11.0764 8.64739C11.3501 8.33399 11.4583 7.84825 11.3811 7.27969C11.2695 6.45742 11.4099 5.79428 11.7874 5.36206C12.0684 5.04032 12.4578 4.87022 12.9135 4.87022C13.3571 4.87022 13.8419 5.03079 14.3545 5.34752C14.7031 5.5629 15.0549 5.67676 15.3719 5.67676C16.0594 5.67676 16.5435 5.14707 16.6669 4.25991C16.8383 3.02712 17.4692 2.29115 18.3543 2.29115C18.916 2.29115 19.5028 2.60604 20.0513 3.2018C20.4301 3.61321 20.8627 3.83976 21.2696 3.83976C21.8027 3.83976 22.2771 3.45293 22.5713 2.77847C23.1383 1.47851 23.9241 1.28442 24.342 1.28442C24.7404 1.28442 25.5005 1.4648 26.1156 2.67276C26.434 3.29792 26.9065 3.65651 27.4121 3.65651C27.8401 3.65651 28.2819 3.40383 28.6563 2.94505C29.3395 2.10798 29.9728 1.93227 30.3838 1.93227C31.2227 1.93227 31.8634 2.63036 32.0978 3.79959C32.2659 4.63835 32.7515 5.13908 33.3969 5.13908C33.7353 5.13908 34.1066 5.00364 34.4708 4.74744C35.0042 4.37217 35.5139 4.18192 35.9856 4.18192C36.4134 4.18192 36.7866 4.3406 37.065 4.64084C37.4458 5.0515 37.615 5.69399 37.5543 6.49894C37.5123 7.05463 37.6412 7.52448 37.9169 7.82194C38.1408 8.06339 38.4601 8.19104 38.8404 8.19104C39.0725 8.19104 39.3225 8.14422 39.5836 8.05191C39.9692 7.91552 40.3311 7.84641 40.6591 7.84641C41.243 7.84641 41.722 8.07119 42.0078 8.47927C42.2578 8.83606 42.4732 9.48843 42.0801 10.5705C41.8639 11.1652 41.8888 11.6981 42.15 12.071C42.3979 12.4248 42.853 12.6197 43.4315 12.6197C43.4913 12.6197 43.5531 12.6176 43.6152 12.6135C43.7104 12.6071 43.8047 12.6039 43.8954 12.6039C45.1147 12.6039 45.5861 13.1672 45.7586 13.5029C46.072 14.1132 45.9233 14.8978 45.3398 15.7122C44.9604 16.2417 44.845 16.7736 45.0149 17.21C45.1848 17.6463 45.6294 17.9601 46.2669 18.0937C47.624 18.3781 47.9858 19.0863 48.0808 19.4831C48.1756 19.88 48.1733 20.6753 47.0916 21.5429C46.5834 21.9504 46.3289 22.4314 46.3747 22.8974C46.4206 23.3634 46.764 23.7856 47.3419 24.0861C48.572 24.7261 48.7293 25.5057 48.7136 25.9135C48.698 26.3212 48.4812 27.0864 47.2055 27.6299C46.6063 27.8852 46.2313 28.2797 46.1498 28.7408C46.0682 29.2018 46.2851 29.701 46.7604 30.1465C47.7722 31.0946 47.7135 31.8877 47.5883 32.2762C47.4632 32.6646 47.0481 33.3429 45.6731 33.522C45.0272 33.6062 44.5598 33.8849 44.3569 34.3068C44.154 34.7288 44.2281 35.268 44.5656 35.8252C45.0695 36.6568 45.1672 37.434 44.8406 38.0138C44.5464 38.5363 43.9503 38.8241 43.1623 38.8241C42.9872 38.8241 42.8007 38.81 42.608 38.7821C42.4809 38.7637 42.3565 38.7544 42.2381 38.7544C41.723 38.7544 41.3223 38.9234 41.0794 39.2432C40.8129 39.5942 40.7564 40.1119 40.9204 40.701C41.2192 41.7742 40.9772 42.4006 40.7217 42.7372C40.439 43.1094 39.9927 43.3144 39.4651 43.3144C39.0917 43.3144 38.6788 43.2154 38.2377 43.0201C37.9368 42.8869 37.6489 42.8193 37.3819 42.8193C36.5896 42.8193 36.0965 43.4298 36.095 44.4125C36.094 45.0506 35.9611 45.5684 35.7002 45.952C35.4127 46.3743 34.9796 46.6069 34.4807 46.6069C33.9807 46.607 33.4293 46.3701 32.8862 45.9217C32.5083 45.6098 32.1155 45.4449 31.7501 45.4449C31.1442 45.4449 30.6693 45.8966 30.4474 46.6842C30.1366 47.7863 29.5017 48.4185 28.7053 48.4185C28.2684 48.4185 27.6094 48.2196 26.9504 47.2716C26.588 46.7504 26.137 46.4634 25.6805 46.4634C25.2003 46.4634 24.7443 46.7775 24.3962 47.3478C23.9032 48.1551 23.2754 48.5997 22.6282 48.5997ZM19.5661 44.8153C20.5721 44.8153 21.4101 45.4989 21.8079 46.644C22.0174 47.2469 22.324 47.6068 22.6282 47.6068C22.9077 47.6068 23.2517 47.3166 23.5483 46.8305C24.0757 45.9661 24.8528 45.4704 25.6801 45.4704C26.4713 45.4704 27.2118 45.9088 27.7652 46.7047C28.079 47.156 28.4302 47.4255 28.7048 47.4255C29.0188 47.4254 29.3128 47.0476 29.4913 46.4147C29.8325 45.204 30.6979 44.4519 31.7497 44.4519C32.3485 44.4519 32.9599 44.6953 33.5178 45.1559C33.8757 45.4513 34.2174 45.614 34.4802 45.614C35.0551 45.6139 35.1013 44.6931 35.1018 44.4109C35.1029 43.6611 35.3191 43.0188 35.7269 42.5534C36.1378 42.0846 36.7254 41.8263 37.3815 41.8263C37.7879 41.8263 38.2111 41.9226 38.6393 42.1122C38.9485 42.2491 39.2339 42.3215 39.4647 42.3215C39.7902 42.3214 39.8959 42.1823 39.9306 42.1366C40.0972 41.9171 40.1092 41.4909 39.9635 40.9674C39.7143 40.0723 39.8296 39.2466 40.2884 38.6426C40.7199 38.0744 41.4122 37.7614 42.2377 37.7614C42.4034 37.7614 42.5758 37.7742 42.7498 37.7994C42.8955 37.8204 43.0342 37.8312 43.1618 37.8312C43.4014 37.8312 43.8258 37.7915 43.9751 37.5265C44.1138 37.2801 44.0169 36.8365 43.716 36.3398C43.1987 35.4859 43.1084 34.6111 43.4617 33.8765C43.8149 33.1419 44.5546 32.6664 45.5445 32.5374C46.1433 32.4594 46.5539 32.2479 46.6429 31.9717C46.7318 31.6955 46.5218 31.2841 46.0811 30.8712C45.3526 30.1886 45.0296 29.3706 45.1716 28.5679C45.3136 27.7652 45.8975 27.1077 46.8159 26.7164C47.3715 26.4796 47.7099 26.1652 47.721 25.8753C47.7322 25.5854 47.419 25.2459 46.8832 24.9672C45.9977 24.5064 45.466 23.8059 45.3862 22.9947C45.3064 22.1835 45.6913 21.3928 46.47 20.7683C46.9412 20.3904 47.1822 19.9963 47.1147 19.7142C47.0473 19.432 46.6541 19.1896 46.063 19.0657C45.0859 18.861 44.385 18.3299 44.0893 17.5703C43.7936 16.8107 43.951 15.9454 44.5324 15.1339C44.8778 14.6517 45.006 14.2116 44.8751 13.9568C44.7576 13.7281 44.4004 13.597 43.8951 13.597C43.8264 13.597 43.7544 13.5995 43.681 13.6044C43.597 13.61 43.5129 13.6128 43.4311 13.6128C42.5195 13.6128 41.7755 13.2676 41.3365 12.6409C40.8841 11.9951 40.8166 11.1394 41.1465 10.2314C41.3367 9.70813 41.354 9.27725 41.1943 9.04916C41.0969 8.91008 40.9167 8.83953 40.6588 8.83953C40.4438 8.83953 40.1932 8.88959 39.9142 8.98824C39.5466 9.11823 39.1852 9.18416 38.8401 9.18416C38.1858 9.18416 37.5993 8.94017 37.1885 8.49728C36.7227 7.99486 36.5008 7.25869 36.5638 6.42435C36.6021 5.91711 36.5193 5.51321 36.3366 5.31624C36.2473 5.21997 36.1357 5.17508 35.9853 5.17508C35.7295 5.17508 35.3944 5.31168 35.0418 5.55978C34.5095 5.9343 33.9406 6.13226 33.3966 6.13226C32.2591 6.13226 31.3882 5.31326 31.124 3.99497C30.9898 3.32528 30.713 2.92544 30.3835 2.92544C30.1105 2.92544 29.7612 3.16154 29.4253 3.57314C28.8588 4.26732 28.1437 4.64967 27.4119 4.64967C26.5195 4.64967 25.7244 4.09338 25.2306 3.1235C24.9609 2.59382 24.6286 2.27754 24.3418 2.27754C24.0481 2.27754 23.7264 2.61328 23.4811 3.17563C23.0284 4.21334 22.2016 4.83288 21.2693 4.83288C20.5817 4.83288 19.8896 4.49257 19.3207 3.87457C18.9753 3.4994 18.623 3.28427 18.3541 3.28427C17.8444 3.28427 17.6864 4.13583 17.6501 4.3968C17.458 5.77765 16.5637 6.66988 15.3716 6.66988C14.8702 6.66988 14.338 6.50479 13.8324 6.19243C13.3922 5.92045 13.0896 5.86335 12.9133 5.86335C12.7481 5.86335 12.6243 5.91305 12.5349 6.01538C12.3569 6.2193 12.2948 6.6315 12.3647 7.14613C12.481 8.00301 12.289 8.76819 11.824 9.3007C11.4067 9.77854 10.7913 10.0417 10.0912 10.0417C9.79644 10.0417 9.4875 9.99581 9.17295 9.90525C8.92721 9.83455 8.70351 9.79865 8.508 9.79865C8.30312 9.79865 8.03226 9.83906 7.90571 10.0317C7.75375 10.263 7.7953 10.7071 8.01697 11.2197C8.41184 12.1329 8.38369 13.0097 7.93768 13.6886C7.49316 14.3652 6.70396 14.7378 5.71548 14.7378L5.66315 14.7376C5.07164 14.7376 4.64514 14.8917 4.52217 15.1497C4.39751 15.4113 4.54977 15.8469 4.9294 16.3152C5.55811 17.0907 5.76676 17.9451 5.51685 18.721C5.26694 19.4968 4.59887 20.0687 3.63576 20.3313C3.05313 20.4901 2.67508 20.7556 2.62454 21.0412C2.574 21.3269 2.83806 21.7059 3.33089 22.055C4.14551 22.6321 4.57688 23.3984 4.54555 24.2129C4.51422 25.0274 4.02522 25.7584 3.16865 26.2712C2.65046 26.5813 2.35805 26.9388 2.38649 27.2277C2.41489 27.5164 2.77139 27.8101 3.34007 28.0133C4.2801 28.3491 4.9022 28.9706 5.09179 29.7634C5.28134 30.5562 5.00769 31.392 4.3212 32.1168C3.90587 32.5553 3.7208 32.9785 3.82605 33.2489C3.93134 33.5193 4.35382 33.7059 4.95626 33.7481C5.95209 33.8178 6.7188 34.2484 7.11517 34.9607C7.51153 35.673 7.47346 36.5516 7.00794 37.4348C6.74164 37.94 6.66901 38.3848 6.81363 38.6245C6.95526 38.8593 7.31911 38.8943 7.5234 38.8943C7.68544 38.8943 7.86585 38.8741 8.05946 38.8342C8.29801 38.785 8.53293 38.7601 8.75772 38.7601C9.52448 38.7601 10.1811 39.0503 10.6066 39.577C11.0688 40.1495 11.2191 40.9497 11.0296 41.8306C10.9175 42.3517 10.9517 42.7727 11.1234 42.9854C11.1572 43.0272 11.2599 43.1543 11.5462 43.1543C11.7881 43.1543 12.0901 43.0643 12.4196 42.8943C12.8885 42.6523 13.3553 42.5295 13.8071 42.5295C15.0816 42.5295 15.9982 43.5135 16.088 44.978C16.1047 45.2514 16.2016 46.1431 16.7448 46.143C16.8997 46.143 17.2316 46.0759 17.7135 45.6273C18.2841 45.0961 18.9247 44.8153 19.5661 44.8153Z" fill="black" fill-opacity="0.5"/>
<path d="M22.9037 45.1215C22.8861 45.1215 22.8685 45.1206 22.8508 45.1187C22.7147 45.1041 22.5906 45.0339 22.5079 44.9247C21.7677 43.9472 20.714 43.4087 19.5406 43.4087C18.9758 43.4087 18.4208 43.5343 17.8911 43.782C17.7675 43.8398 17.6255 43.844 17.4986 43.794C17.3716 43.7439 17.271 43.6437 17.2201 43.5171C16.6248 42.0338 15.2971 41.1124 13.755 41.1124C13.5363 41.1124 13.3144 41.1304 13.0955 41.1658C12.9606 41.1876 12.8225 41.1528 12.714 41.0696C12.6055 40.9864 12.5362 40.8621 12.5223 40.726C12.4438 39.9578 12.1691 39.2772 11.7055 38.7032C11.0838 37.9334 10.2092 37.4663 9.17612 37.3522C9.04004 37.3372 8.91622 37.2666 8.83391 37.1572C8.7516 37.0478 8.71814 36.9093 8.74137 36.7743C8.89438 35.8866 8.75612 35.0235 8.34144 34.2783C7.9267 33.533 7.26593 32.9606 6.43066 32.6229C6.30376 32.5716 6.20373 32.4702 6.15408 32.3427C6.10444 32.2152 6.1096 32.0728 6.16843 31.9492C6.55546 31.1355 6.65525 30.2669 6.45687 29.4373C6.25849 28.6076 5.77668 27.8781 5.06349 27.3276C4.95516 27.244 4.88615 27.1194 4.87275 26.9832C4.85935 26.847 4.90279 26.7113 4.99269 26.6081C5.58491 25.9291 5.91529 25.1197 5.94811 24.2672C5.98092 23.4149 5.71373 22.5825 5.17548 21.8599C5.09377 21.7501 5.0609 21.6115 5.08473 21.4768C5.10856 21.342 5.18695 21.2231 5.30138 21.148C6.05479 20.6539 6.59126 19.9636 6.85279 19.1517C7.11431 18.3397 7.08165 17.466 6.75821 16.625C6.70911 16.4972 6.71487 16.3549 6.77415 16.2316C6.83342 16.1082 6.94096 16.0148 7.07142 15.9734C7.93504 15.6994 8.6403 15.1758 9.11093 14.4594C9.5765 13.7507 9.77826 12.9042 9.69436 12.0116C9.68155 11.8754 9.72549 11.7399 9.81584 11.6371C9.90619 11.5344 10.0349 11.4736 10.1716 11.4688C11.2512 11.4318 12.2172 10.9862 12.8915 10.2141C13.3435 9.69648 13.6381 9.07287 13.767 8.36062C13.7914 8.22597 13.8703 8.1073 13.985 8.03273C14.0997 7.95815 14.2402 7.93427 14.3731 7.96669C14.6921 8.04444 15.013 8.08392 15.3268 8.08392C16.7987 8.08392 18.0187 7.30514 18.6738 5.94728C18.7333 5.8239 18.8412 5.73055 18.9718 5.68944C19.1025 5.64828 19.2444 5.66298 19.3638 5.73006C19.9647 6.06734 20.5999 6.23838 21.2517 6.23838C22.3194 6.23838 23.313 5.77881 24.0493 4.94432C24.1399 4.84164 24.2689 4.78097 24.4058 4.7766C24.5422 4.77238 24.6752 4.82462 24.7722 4.92139C25.5043 5.6519 26.4455 6.05422 27.4226 6.05422C28.1549 6.05422 28.853 5.84316 29.4975 5.42683C29.6123 5.35265 29.7526 5.32913 29.8854 5.36175C30.0181 5.39437 30.1315 5.48032 30.1988 5.59923C30.8985 6.83495 32.078 7.54366 33.435 7.54366C33.8245 7.54366 34.2193 7.48289 34.6085 7.36308C34.7392 7.32276 34.8808 7.33831 34.9997 7.40588C35.1186 7.47341 35.2044 7.58706 35.2368 7.71997C35.3993 8.38614 35.7051 8.96483 36.1458 9.43999C36.8685 10.2194 37.8924 10.6366 39.0114 10.6084C39.1487 10.6047 39.2801 10.658 39.3764 10.755C39.4727 10.8521 39.5247 10.9846 39.5202 11.1213C39.4916 11.9794 39.7213 12.7825 40.1844 13.4437C40.697 14.1755 41.4542 14.6859 42.374 14.9196C42.5065 14.9533 42.6193 15.0401 42.6857 15.1597C42.7521 15.2792 42.7663 15.4209 42.7249 15.5512C42.452 16.4103 42.4714 17.2846 42.7809 18.0797C43.0903 18.8746 43.667 19.5318 44.4485 19.98C44.5672 20.0481 44.6526 20.1621 44.6844 20.2953C44.7162 20.4284 44.6917 20.5687 44.6166 20.6831C44.1224 21.4365 43.9053 22.2834 43.9888 23.1323C44.0724 23.9812 44.4503 24.7695 45.082 25.4121C45.1779 25.5097 45.2293 25.6426 45.224 25.7793C45.2188 25.9161 45.1573 26.0446 45.0542 26.1345C44.3751 26.7266 43.9375 27.4836 43.789 28.3235C43.6405 29.1635 43.7918 30.0247 44.2266 30.8137C44.2927 30.9336 44.3063 31.0754 44.2644 31.2056C44.2225 31.3359 44.1286 31.443 44.005 31.5018C43.1913 31.8887 42.5659 32.4995 42.1963 33.2681C41.8265 34.0371 41.7399 34.9076 41.946 35.7851C41.9773 35.9181 41.9524 36.0581 41.8771 36.1721C41.8018 36.2862 41.6829 36.3641 41.5483 36.3877C40.5735 36.5583 39.7272 37.0597 39.1654 37.7994C38.7084 38.4011 38.4478 39.1468 38.4118 39.9559C38.4057 40.0924 38.3437 40.2203 38.2403 40.3096C38.1368 40.3989 38.0013 40.4413 37.8652 40.4277C37.7232 40.4131 37.5796 40.4058 37.4384 40.4058C35.7652 40.4058 34.4006 41.4055 33.8773 43.0147C33.835 43.1449 33.7407 43.2519 33.6169 43.3102C33.493 43.3687 33.3505 43.3733 33.2232 43.3231C32.7524 43.1376 32.2669 43.0435 31.7806 43.0435C30.5411 43.0435 29.4145 43.6638 28.6898 44.7453C28.6137 44.8589 28.4942 44.9361 28.3594 44.9586C28.2246 44.9814 28.0864 44.9472 27.9775 44.8646C27.289 44.3425 26.4955 44.0667 25.6828 44.0667C24.7884 44.0667 23.9392 44.39 23.227 45.0015C23.1366 45.0794 23.0218 45.1215 22.9037 45.1215ZM19.5406 42.4157C20.8681 42.4157 22.0716 42.9529 22.9775 43.9391C23.7853 43.3715 24.7113 43.0739 25.6829 43.0739C26.553 43.0739 27.4016 43.32 28.1637 43.7898C29.0736 42.6786 30.3672 42.0507 31.7807 42.0507C32.2282 42.0507 32.6737 42.1135 33.1107 42.2379C33.8711 40.4828 35.4888 39.413 37.4385 39.413C37.4477 39.413 37.4569 39.413 37.4661 39.4131C37.582 38.5927 37.8918 37.8351 38.3748 37.199C38.9917 36.3868 39.8719 35.8019 40.8885 35.52C40.7623 34.5865 40.9024 33.6682 41.3016 32.838C41.7004 32.0088 42.3293 31.3265 43.1361 30.8424C42.7635 29.9784 42.6511 29.0571 42.8114 28.1509C42.9717 27.2447 43.3932 26.4179 44.0396 25.734C43.4477 25.0024 43.091 24.1457 43.0008 23.2299C42.9107 22.3141 43.0936 21.4043 43.5315 20.5714C42.7642 20.0266 42.1895 19.2979 41.8557 18.4403C41.5218 17.5825 41.4525 16.6567 41.6498 15.7361C40.7109 15.3998 39.9297 14.8109 39.3713 14.0138C38.876 13.3068 38.591 12.477 38.5351 11.5901C37.3223 11.5032 36.2262 10.9874 35.4179 10.1156C34.971 9.63368 34.6345 9.07068 34.4141 8.43698C34.0885 8.50346 33.7608 8.53708 33.4351 8.53708C31.8985 8.53708 30.4982 7.78889 29.6023 6.51231C28.9186 6.86374 28.1739 7.0476 27.4227 7.0476C26.3425 7.0476 25.3014 6.66533 24.4434 5.96198C23.5608 6.78435 22.4444 7.2317 21.2517 7.2317C20.5902 7.2317 19.945 7.09392 19.3277 6.82149C18.4633 8.24315 17.0005 9.07723 15.3267 9.07723C15.0962 9.07723 14.8633 9.0604 14.6302 9.02699C14.4342 9.7149 14.0964 10.344 13.6391 10.8676C12.8889 11.7267 11.8608 12.2675 10.7058 12.4202C10.7032 13.3557 10.4425 14.241 9.9406 15.0049C9.43228 15.7787 8.71323 16.3736 7.84241 16.7456C8.09391 17.6525 8.07986 18.5805 7.79768 19.4565C7.51555 20.3324 6.98534 21.094 6.25193 21.6835C6.73865 22.4888 6.97551 23.3862 6.94011 24.3057C6.90471 25.2253 6.59965 26.1018 6.05241 26.8673C6.73835 27.5114 7.20844 28.3115 7.42246 29.2065C7.63648 30.1016 7.57914 31.0279 7.25873 31.9127C8.09301 32.3479 8.76153 32.9915 9.20898 33.7955C9.65638 34.5994 9.85104 35.5068 9.78134 36.445C10.8571 36.6727 11.8016 37.242 12.4778 38.0794C12.9541 38.6692 13.2803 39.3703 13.4346 40.1297C13.5416 40.1229 13.6486 40.1195 13.755 40.1195C15.5471 40.1195 17.1082 41.0934 17.9337 42.6928C18.4548 42.5087 18.9933 42.4157 19.5406 42.4157Z" fill="black" fill-opacity="0.5"/>
<path d="M23.1698 42.6792C23.1523 42.6792 23.1346 42.6782 23.117 42.6763C22.9808 42.6617 22.8567 42.5916 22.7741 42.4824C22.1377 41.6419 21.2321 41.179 20.2242 41.179C19.7386 41.179 19.2612 41.287 18.8054 41.5001C18.6817 41.5579 18.5398 41.5621 18.4129 41.5121C18.286 41.4619 18.1853 41.3618 18.1345 41.2352C17.6227 39.9598 16.4817 39.1676 15.1567 39.1676C14.9685 39.1676 14.7774 39.1831 14.5889 39.2136C14.454 39.2357 14.3159 39.2007 14.2074 39.1175C14.0989 39.0342 14.0295 38.91 14.0156 38.7739C13.9482 38.1131 13.712 37.5279 13.3135 37.0345C12.7795 36.3733 12.0277 35.9719 11.1393 35.8738C11.0033 35.8588 10.8795 35.7882 10.7971 35.6788C10.7148 35.5694 10.6813 35.4308 10.7046 35.2959C10.8362 34.5324 10.7174 33.7904 10.3612 33.1501C10.0048 32.5098 9.43668 32.0178 8.71822 31.7273C8.59137 31.676 8.49129 31.5747 8.44164 31.4471C8.392 31.3196 8.39716 31.1772 8.45599 31.0537C8.78891 30.3538 8.8748 29.6071 8.70441 28.8944C8.53398 28.1816 8.11965 27.5546 7.50624 27.081C7.39791 26.9974 7.3289 26.8728 7.3155 26.7366C7.3021 26.6004 7.34548 26.4647 7.43544 26.3616C7.9448 25.7775 8.22892 25.0817 8.25711 24.3493C8.28526 23.617 8.05546 22.9014 7.59252 22.28C7.51075 22.1702 7.47794 22.0316 7.50177 21.8968C7.5256 21.7621 7.60399 21.6431 7.71842 21.5681C8.36648 21.1431 8.82778 20.5498 9.05243 19.8522C9.27717 19.1546 9.24892 18.4035 8.97076 17.6801C8.92166 17.5524 8.92742 17.4101 8.9867 17.2867C9.04597 17.1634 9.1535 17.07 9.28392 17.0287C10.0268 16.7928 10.6331 16.3429 11.0374 15.7274C11.4375 15.1185 11.6108 14.3908 11.5386 13.623C11.5258 13.4868 11.5698 13.3513 11.6601 13.2486C11.7505 13.1459 11.8792 13.085 12.0159 13.0803C12.9443 13.0485 13.7745 12.6656 14.3538 12.0024C14.7424 11.5574 14.9956 11.0212 15.1064 10.4086C15.1307 10.2739 15.2096 10.1553 15.3244 10.0807C15.4391 10.0061 15.5796 9.98222 15.7124 10.0145C15.9873 10.0815 16.2634 10.1155 16.5333 10.1155C17.798 10.1155 18.8463 9.44609 19.4094 8.27889C19.4689 8.15551 19.5768 8.06217 19.7075 8.02106C19.8381 7.97985 19.98 7.99464 20.0995 8.06167C20.6165 8.35188 21.1627 8.49905 21.7229 8.49905C22.6402 8.49905 23.494 8.10393 24.1271 7.38647C24.2177 7.28379 24.3467 7.22306 24.4836 7.21874C24.6212 7.21457 24.7531 7.2668 24.85 7.36357C25.4795 7.99181 26.2885 8.33783 27.1279 8.33783C27.7573 8.33783 28.3575 8.15626 28.9118 7.79817C29.0266 7.724 29.1669 7.70046 29.2997 7.73308C29.4324 7.7657 29.5458 7.85164 29.6132 7.97056C30.2148 9.03304 31.2284 9.64247 32.3941 9.64247C32.729 9.64247 33.0687 9.59018 33.4038 9.487C33.5345 9.44674 33.6761 9.46223 33.795 9.52981C33.9139 9.59733 33.9997 9.71098 34.0321 9.84389C34.1719 10.417 34.4349 10.9147 34.8136 11.3231C35.4144 11.9711 36.2562 12.3279 37.184 12.3279C37.215 12.3279 37.246 12.3275 37.277 12.3268C37.4142 12.3237 37.5457 12.3765 37.6419 12.4736C37.7381 12.5706 37.7901 12.7031 37.7855 12.8397C37.7609 13.5779 37.9582 14.2683 38.3562 14.8365C38.7966 15.4652 39.4476 15.9038 40.2387 16.1048C40.3712 16.1385 40.484 16.2253 40.5505 16.3449C40.6169 16.4644 40.6311 16.606 40.5896 16.7364C40.3549 17.4753 40.3714 18.2269 40.6373 18.91C40.9032 19.593 41.399 20.1578 42.0712 20.5434C42.1899 20.6115 42.2753 20.7255 42.307 20.8586C42.3389 20.9917 42.3143 21.132 42.2393 21.2465C41.8142 21.8945 41.6274 22.6224 41.6993 23.3517C41.7711 24.0812 42.0961 24.7588 42.6394 25.3114C42.7353 25.409 42.7867 25.5419 42.7814 25.6786C42.7762 25.8154 42.7147 25.9439 42.6116 26.0338C42.0274 26.543 41.6512 27.1936 41.5236 27.9154C41.396 28.637 41.5262 29.3772 41.9002 30.056C41.9663 30.1758 41.9799 30.3176 41.9379 30.4479C41.896 30.5782 41.8022 30.6853 41.6785 30.7441C40.9787 31.0768 40.441 31.6018 40.1234 32.2622C39.8057 32.923 39.7314 33.6712 39.9087 34.426C39.9399 34.559 39.915 34.699 39.8397 34.813C39.7645 34.9271 39.6455 35.005 39.511 35.0286C38.6725 35.1753 37.9449 35.6062 37.4622 36.2417C37.0696 36.7587 36.8457 37.3999 36.8148 38.0959C36.8087 38.2324 36.7466 38.3604 36.6432 38.4497C36.5397 38.539 36.4043 38.5818 36.268 38.5677C36.1458 38.5551 36.0221 38.5488 35.9006 38.5488C34.4626 38.5488 33.2899 39.4081 32.8401 40.7914C32.7977 40.9216 32.7035 41.0285 32.5796 41.0869C32.4558 41.1453 32.3133 41.15 32.1859 41.0998C31.7807 40.9401 31.3632 40.8592 30.945 40.8592C29.8802 40.8592 28.9122 41.3925 28.289 42.3225C28.2129 42.436 28.0934 42.5132 27.9585 42.5357C27.8237 42.5586 27.6856 42.5244 27.5767 42.4417C26.9844 41.9927 26.3023 41.7554 25.6041 41.7554C24.8356 41.7554 24.1056 42.0334 23.4933 42.5593C23.4028 42.6371 23.2879 42.6792 23.1698 42.6792ZM20.2242 40.1859C21.3869 40.1859 22.4423 40.6491 23.2432 41.5007C23.9506 41.0162 24.7578 40.7624 25.6041 40.7624C26.3603 40.7624 27.0981 40.9714 27.7635 41.3708C28.5702 40.4086 29.7057 39.8661 30.945 39.8661C31.325 39.8661 31.7034 39.9171 32.075 40.0181C32.7556 38.4956 34.1695 37.5663 35.8716 37.5559C35.9802 36.8474 36.2526 36.1929 36.6716 35.6411C37.2097 34.9326 37.9728 34.4187 38.8544 34.1629C38.7545 33.3515 38.8813 32.5542 39.2287 31.8319C39.5757 31.1103 40.1184 30.514 40.8135 30.0857C40.4991 29.3321 40.4064 28.5309 40.5459 27.7424C40.6853 26.9539 41.0472 26.2332 41.6009 25.6333C41.095 24.9925 40.7896 24.246 40.7112 23.4491C40.6327 22.6523 40.7867 21.8607 41.1581 21.1335C40.4979 20.6529 40.0026 20.0165 39.7121 19.2703C39.4215 18.524 39.3563 17.7198 39.5179 16.919C38.7059 16.6174 38.0295 16.1008 37.543 15.4063C37.1125 14.7918 36.8607 14.0733 36.8033 13.3053C35.7465 13.217 34.7924 12.7608 34.0856 11.9985C33.7002 11.5829 33.4073 11.0996 33.2113 10.5571C32.9393 10.6093 32.6659 10.6356 32.3941 10.6356C31.0453 10.6356 29.8148 9.98753 29.0175 8.87942C28.4231 9.17594 27.7783 9.3309 27.1279 9.3309C26.1847 9.3309 25.2753 9.0034 24.521 8.39979C23.7428 9.10757 22.7656 9.49217 21.7228 9.49217C21.1524 9.49217 20.5957 9.37698 20.0621 9.14908C19.2905 10.385 18.0035 11.1087 16.5333 11.1087C16.346 11.1087 16.1569 11.0961 15.9675 11.0713C15.7914 11.6625 15.4967 12.2033 15.1016 12.6558C14.4459 13.4066 13.5521 13.8839 12.547 14.0289C12.5352 14.8405 12.3038 15.6082 11.8671 16.2729C11.4249 16.9461 10.8031 17.4671 10.0513 17.7989C10.2602 18.5883 10.2429 19.3947 9.99742 20.1569C9.75197 20.919 9.29534 21.5837 8.6651 22.1028C9.07908 22.8065 9.28 23.5875 9.24922 24.3876C9.21839 25.1879 8.9581 25.9512 8.49119 26.621C9.07968 27.187 9.48384 27.8848 9.67001 28.6636C9.85622 29.4423 9.81145 30.2476 9.54257 31.0186C10.262 31.4048 10.8394 31.9677 11.2287 32.6673C11.618 33.3669 11.7921 34.1542 11.7413 34.969C12.6757 35.1786 13.4956 35.6797 14.0859 36.4107C14.4984 36.9214 14.7841 37.526 14.9254 38.1807C15.0027 38.1767 15.0798 38.1747 15.1566 38.1747C16.7323 38.1747 18.1069 39.021 18.8467 40.4146C19.294 40.2626 19.7555 40.1859 20.2242 40.1859Z" fill="black" fill-opacity="0.5"/>
<path d="M21.0579 3.05896C20.2731 3.05896 19.6345 2.4204 19.6345 1.63546C19.6345 0.850528 20.2731 0.211914 21.0579 0.211914C21.8427 0.211914 22.4813 0.850528 22.4813 1.63546C22.4813 2.42035 21.8427 3.05896 21.0579 3.05896ZM21.0579 1.20494C20.8205 1.20494 20.6274 1.39808 20.6274 1.63546C20.6274 1.87284 20.8205 2.06593 21.0579 2.06593C21.2952 2.06593 21.4884 1.87284 21.4884 1.63546C21.4884 1.39808 21.2952 1.20494 21.0579 1.20494Z" fill="black" fill-opacity="0.5"/>
<path d="M14.919 5.0011C14.2838 5.0011 13.7204 4.57351 13.5489 3.96131C13.3372 3.20553 13.7798 2.41835 14.5355 2.20659C14.6611 2.17139 14.7905 2.15356 14.92 2.15356C15.5551 2.15356 16.1186 2.58111 16.2901 3.19326C16.5018 3.94915 16.0592 4.73632 15.3035 4.94808C15.1779 4.98333 15.0486 5.0011 14.919 5.0011ZM14.92 3.14664C14.881 3.14664 14.8417 3.1521 14.8034 3.16282C14.5748 3.22687 14.441 3.4649 14.505 3.69349C14.5569 3.87874 14.7272 4.00808 14.919 4.00808C14.9581 4.00808 14.9973 4.00262 15.0356 3.9919C15.2642 3.92785 15.398 3.68977 15.334 3.46118C15.2821 3.27598 15.1119 3.14664 14.92 3.14664Z" fill="black" fill-opacity="0.5"/>
<path d="M9.53332 8.52704C9.03161 8.52704 8.57667 8.27128 8.31623 7.84284C8.11874 7.51803 8.05952 7.13561 8.14957 6.76621C8.23963 6.3968 8.46809 6.08455 8.79297 5.88698C9.01602 5.75139 9.2714 5.67969 9.53154 5.67969C10.0331 5.67969 10.4881 5.9354 10.7486 6.36374C11.1563 7.03452 10.9424 7.91191 10.2719 8.31969C10.0489 8.45534 9.79346 8.52704 9.53332 8.52704ZM9.53159 6.67271C9.4534 6.67271 9.37635 6.69446 9.30883 6.73553C9.21058 6.79526 9.14148 6.88969 9.11427 7.00136C9.08707 7.11307 9.10494 7.2287 9.16471 7.32696C9.2435 7.45665 9.38131 7.53402 9.53338 7.53402C9.61157 7.53402 9.68857 7.51226 9.75613 7.4712C9.95888 7.34787 10.0236 7.08248 9.90025 6.87961C9.82146 6.75012 9.68365 6.67271 9.53159 6.67271Z" fill="black" fill-opacity="0.5"/>
<path d="M5.29601 13.3754C4.93415 13.3754 4.58916 13.2393 4.32461 12.9922C3.75101 12.4562 3.72038 11.5536 4.25615 10.9801C4.52428 10.693 4.90351 10.5283 5.2965 10.5283C5.65837 10.5283 6.00335 10.6644 6.26786 10.9115C6.84135 11.4475 6.87208 12.3501 6.33641 12.9236C6.06823 13.2107 5.689 13.3754 5.29601 13.3754ZM5.29645 11.5213C5.17577 11.5213 5.06397 11.5699 4.98166 11.658C4.81962 11.8315 4.8289 12.1044 5.00236 12.2666C5.08229 12.3412 5.18659 12.3824 5.29596 12.3824C5.41669 12.3824 5.52849 12.3338 5.61076 12.2458C5.77275 12.0723 5.76346 11.7993 5.59001 11.6372C5.51013 11.5625 5.40582 11.5213 5.29645 11.5213Z" fill="black" fill-opacity="0.5"/>
<path d="M2.52402 19.1875C2.29774 19.1875 2.07156 19.1323 1.8698 19.0277C1.17304 18.6664 0.900042 17.8055 1.26116 17.1087C1.50685 16.6346 1.99138 16.3401 2.52561 16.3401C2.75189 16.3401 2.97808 16.3953 3.17988 16.5C3.8767 16.8613 4.14974 17.7221 3.78858 18.4189C3.54284 18.893 3.0583 19.1875 2.52402 19.1875ZM2.52556 17.3331C2.36372 17.3331 2.21702 17.4222 2.14265 17.5656C2.03343 17.7764 2.11599 18.0368 2.32669 18.146C2.38869 18.1781 2.45507 18.1945 2.52398 18.1945C2.68587 18.1945 2.83267 18.1053 2.90699 17.9618C3.0162 17.7511 2.9336 17.4908 2.7228 17.3815C2.66085 17.3494 2.59447 17.3331 2.52556 17.3331Z" fill="black" fill-opacity="0.5"/>
<path d="M1.42482 25.5315C1.32757 25.5315 1.22972 25.5214 1.13395 25.5015C0.761767 25.4241 0.441955 25.2064 0.233496 24.8883C0.0250376 24.5703 -0.0471469 24.1902 0.0302991 23.8179C0.166971 23.1609 0.752682 22.6841 1.42294 22.6841C1.52014 22.6841 1.61794 22.6942 1.71361 22.7141C2.48206 22.874 2.97717 23.6293 2.81736 24.3977C2.68074 25.0546 2.09513 25.5315 1.42482 25.5315ZM1.42294 23.6771C1.22063 23.6771 1.04375 23.8214 1.0024 24.0201C0.978964 24.1327 1.00081 24.2476 1.06381 24.3438C1.12686 24.44 1.22356 24.5058 1.33616 24.5293C1.3656 24.5354 1.39538 24.5385 1.42482 24.5385C1.62713 24.5385 1.80396 24.3942 1.84532 24.1954C1.89367 23.9631 1.74384 23.7347 1.5114 23.6862C1.48211 23.6801 1.45233 23.6771 1.42294 23.6771Z" fill="black" fill-opacity="0.5"/>
<path d="M2.07389 31.9373C1.32877 31.9373 0.705377 31.3545 0.65469 30.6105C0.601421 29.8274 1.19498 29.1468 1.97783 29.0934C2.01064 29.0912 2.04321 29.0901 2.07548 29.0901C2.82065 29.0901 3.44409 29.6729 3.49482 30.4169C3.52074 30.7962 3.39737 31.1629 3.14736 31.4495C2.8974 31.736 2.55088 31.9081 2.17159 31.934C2.13912 31.9361 2.10631 31.9373 2.07389 31.9373ZM2.07548 30.0831C2.0655 30.0831 2.05542 30.0835 2.04529 30.0842C1.80869 30.1003 1.62917 30.3062 1.6453 30.543C1.66129 30.778 1.86588 30.9588 2.10407 30.9433C2.21875 30.9354 2.32355 30.8834 2.39916 30.7967C2.47472 30.7101 2.51205 30.5992 2.50421 30.4845C2.48887 30.2594 2.30057 30.0831 2.07548 30.0831Z" fill="black" fill-opacity="0.5"/>
<path d="M4.42953 37.9303C3.82843 37.9303 3.28934 37.5495 3.08808 36.9829C2.82555 36.2432 3.21363 35.4278 3.95309 35.1651C4.10699 35.1104 4.26724 35.0828 4.42943 35.0828C5.03053 35.0828 5.56957 35.4635 5.77073 36.0302C5.89797 36.3884 5.87807 36.7749 5.71469 37.1183C5.5513 37.4616 5.26401 37.7208 4.90577 37.848C4.75192 37.9026 4.59172 37.9303 4.42953 37.9303ZM4.42943 36.0757C4.38068 36.0757 4.33218 36.0842 4.28531 36.1008C4.06176 36.1803 3.94435 36.4269 4.02373 36.6506C4.0846 36.822 4.24768 36.9372 4.42948 36.9372C4.47818 36.9372 4.52668 36.9288 4.57355 36.9122C4.68182 36.8737 4.7687 36.7953 4.8181 36.6915C4.86755 36.5876 4.87355 36.4708 4.83508 36.3624C4.77421 36.1909 4.61118 36.0757 4.42943 36.0757Z" fill="black" fill-opacity="0.5"/>
<path d="M8.31398 43.0657C7.85153 43.0657 7.41645 42.8403 7.1501 42.4627C6.69779 41.8213 6.85149 40.9313 7.4927 40.4789C7.73427 40.3085 8.01769 40.2185 8.31244 40.2185C8.77488 40.2185 9.20997 40.4439 9.47626 40.8216C9.69544 41.1322 9.78048 41.5097 9.7158 41.8844C9.65106 42.2592 9.44434 42.5862 9.13371 42.8054C8.89219 42.9757 8.60872 43.0657 8.31398 43.0657ZM8.31244 41.2115C8.22367 41.2115 8.13808 41.2388 8.06501 41.2904C7.87114 41.4272 7.82468 41.6963 7.96145 41.8903C8.04202 42.0045 8.17378 42.0727 8.31398 42.0727C8.40274 42.0727 8.48833 42.0454 8.56146 41.9939C8.65533 41.9276 8.71784 41.8287 8.7374 41.7154C8.75701 41.6021 8.73124 41.4879 8.66501 41.394C8.58439 41.2797 8.45263 41.2115 8.31244 41.2115Z" fill="black" fill-opacity="0.5"/>
<path d="M13.4375 46.9629C13.1115 46.9629 12.7925 46.8493 12.5394 46.6432C11.9309 46.1476 11.8389 45.2493 12.3343 44.6406C12.6059 44.307 13.0084 44.1157 13.4388 44.1157C13.7647 44.1157 14.0837 44.2292 14.3367 44.4353C14.6315 44.6753 14.8152 45.0159 14.854 45.3942C14.8928 45.7726 14.7819 46.1433 14.5418 46.4381C14.2704 46.7715 13.8679 46.9629 13.4375 46.9629ZM13.4388 45.1087C13.3084 45.1087 13.1864 45.1666 13.1043 45.2675C12.9545 45.4515 12.9823 45.7232 13.1663 45.8731C13.2645 45.953 13.368 45.9698 13.4375 45.9698C13.5679 45.9698 13.6898 45.9119 13.7719 45.811C13.8445 45.7218 13.878 45.6098 13.8663 45.4954C13.8546 45.3809 13.799 45.278 13.7099 45.2054C13.6117 45.1255 13.5083 45.1087 13.4388 45.1087Z" fill="black" fill-opacity="0.5"/>
<path d="M19.4238 49.3329C19.228 49.3329 19.0372 49.2931 18.8567 49.2146C18.137 48.9016 17.8061 48.0613 18.119 47.3415C18.3453 46.8213 18.8579 46.4854 19.4248 46.4854C19.6206 46.4854 19.8113 46.5252 19.9918 46.6036C20.3405 46.7553 20.6092 47.0336 20.7486 47.3875C20.888 47.7413 20.8811 48.1282 20.7296 48.4768C20.5034 48.9969 19.9909 49.3329 19.4238 49.3329ZM19.4248 47.4784C19.2532 47.4784 19.098 47.5802 19.0294 47.7377C18.9349 47.9552 19.035 48.2093 19.2526 48.304C19.3075 48.3278 19.3651 48.34 19.4238 48.34C19.5954 48.34 19.7506 48.2382 19.819 48.0808C19.8648 47.9754 19.8669 47.8585 19.8247 47.7514C19.7826 47.6444 19.7013 47.5601 19.5959 47.5144C19.5411 47.4905 19.4835 47.4784 19.4248 47.4784Z" fill="black" fill-opacity="0.5"/>
<path d="M25.8288 49.9999C25.7638 49.9999 25.698 49.9954 25.6332 49.9865C24.8559 49.8792 24.3106 49.1594 24.4176 48.3819C24.5145 47.681 25.1201 47.1526 25.8264 47.1526C25.8915 47.1526 25.9573 47.1572 26.022 47.166C26.3986 47.2179 26.7325 47.4134 26.9621 47.7166C27.1918 48.0197 27.2896 48.3941 27.2377 48.7707C27.1411 49.4715 26.5353 49.9999 25.8288 49.9999ZM25.8264 48.1456C25.6133 48.1456 25.4305 48.3056 25.4012 48.5176C25.3689 48.7525 25.5338 48.9703 25.7689 49.0028C25.7888 49.0056 25.809 49.0069 25.8288 49.0069C26.042 49.0069 26.2249 48.847 26.2541 48.6351C26.2698 48.5212 26.2402 48.408 26.1707 48.3163C26.1013 48.2246 26.0003 48.1655 25.8864 48.1498C25.8664 48.147 25.8462 48.1456 25.8264 48.1456Z" fill="black" fill-opacity="0.5"/>
<path d="M32.1725 48.9147C31.4654 48.9147 30.8597 48.3857 30.7636 47.6843C30.6572 46.9064 31.2032 46.1871 31.9806 46.0807C32.0449 46.0719 32.1102 46.0674 32.1749 46.0674C32.8823 46.0674 33.488 46.5964 33.584 47.2979C33.6356 47.6745 33.5374 48.0488 33.3076 48.3517C33.0777 48.6546 32.7437 48.8498 32.3669 48.9014C32.3026 48.9102 32.2372 48.9147 32.1725 48.9147ZM32.1749 47.0605C32.1552 47.0605 32.1351 47.0618 32.1153 47.0645C31.8802 47.0967 31.7152 47.3143 31.7473 47.5496C31.7764 47.7617 31.9592 47.9217 32.1725 47.9217C32.1922 47.9217 32.2123 47.9204 32.2321 47.9176C32.346 47.902 32.4471 47.843 32.5166 47.7514C32.5861 47.6597 32.6158 47.5466 32.6002 47.4326C32.5712 47.2204 32.3883 47.0605 32.1749 47.0605Z" fill="black" fill-opacity="0.5"/>
<path d="M37.9924 46.1579C37.4247 46.1579 36.9119 45.8214 36.686 45.3006C36.3739 44.5801 36.7056 43.7402 37.4254 43.4281C37.6055 43.35 37.796 43.3103 37.9914 43.3103C38.5591 43.3103 39.0718 43.6468 39.2976 44.1677C39.4489 44.5164 39.4553 44.9033 39.3157 45.257C39.176 45.6106 38.9071 45.8888 38.5582 46.04C38.378 46.1182 38.1877 46.1579 37.9924 46.1579ZM37.9914 44.3033C37.9327 44.3033 37.8752 44.3154 37.8205 44.3392C37.6028 44.4336 37.5026 44.6876 37.597 44.9055C37.6653 45.063 37.8205 45.1649 37.9924 45.1649C38.0509 45.1649 38.1084 45.1528 38.1631 45.1291C38.2686 45.0833 38.35 44.9992 38.3922 44.8922C38.4344 44.7853 38.4325 44.6683 38.3867 44.5627C38.3184 44.4051 38.1632 44.3033 37.9914 44.3033Z" fill="black" fill-opacity="0.5"/>
<path d="M42.851 41.933C42.4202 41.933 42.0174 41.7414 41.7459 41.4073C41.2509 40.7979 41.3438 39.8996 41.9528 39.4048C42.2056 39.1992 42.5243 39.0859 42.8499 39.0859C43.2808 39.0859 43.6836 39.2775 43.955 39.6117C44.1948 39.9068 44.3053 40.2776 44.2663 40.6558C44.2272 41.034 44.0432 41.3744 43.7481 41.6142C43.4951 41.8198 43.1766 41.933 42.851 41.933ZM42.8498 40.079C42.7804 40.079 42.677 40.0957 42.5789 40.1754C42.3947 40.3251 42.3667 40.5967 42.5165 40.7811C42.5985 40.882 42.7205 40.94 42.851 40.94C42.9204 40.94 43.0237 40.9232 43.1218 40.8436C43.2111 40.771 43.2667 40.6681 43.2785 40.5537C43.2903 40.4393 43.2569 40.3272 43.1844 40.2379C43.1023 40.1369 42.9804 40.079 42.8498 40.079Z" fill="black" fill-opacity="0.5"/>
<path d="M46.3889 36.5542C46.0936 36.5542 45.8098 36.4639 45.5681 36.2931C44.9272 35.8398 44.7744 34.9497 45.2273 34.3091C45.4935 33.9321 45.9284 33.707 46.3904 33.707C46.6857 33.707 46.9695 33.7973 47.2111 33.9682C47.5216 34.1876 47.728 34.5148 47.7924 34.8896C47.8568 35.2643 47.7714 35.6417 47.5519 35.9523C47.2856 36.3292 46.8508 36.5542 46.3889 36.5542ZM46.3904 34.7001C46.2504 34.7001 46.1187 34.7681 46.0381 34.8821C45.9011 35.076 45.9475 35.3451 46.1413 35.4822C46.2144 35.5339 46.3 35.5612 46.3889 35.5612C46.5289 35.5612 46.6606 35.4931 46.7411 35.3791C46.8075 35.2851 46.8333 35.1711 46.8139 35.0577C46.7944 34.9443 46.732 34.8455 46.638 34.7791C46.5649 34.7274 46.4793 34.7001 46.3904 34.7001Z" fill="black" fill-opacity="0.5"/>
<path d="M48.3468 30.4203C48.1841 30.4203 48.0234 30.3924 47.8693 30.3375C47.5111 30.2099 47.2241 29.9505 47.061 29.6072C46.8978 29.2636 46.8783 28.8772 47.006 28.519C47.2072 27.9532 47.7461 27.5728 48.3467 27.5728C48.5094 27.5728 48.6701 27.6007 48.8242 27.6556C49.1823 27.783 49.4694 28.0425 49.6325 28.3859C49.7955 28.7294 49.8152 29.1159 49.6876 29.4742C49.4861 30.0401 48.9473 30.4203 48.3468 30.4203ZM48.3467 28.5658C48.1651 28.5658 48.0022 28.6808 47.9413 28.8521C47.9026 28.9606 47.9085 29.0773 47.9578 29.1811C48.0072 29.285 48.0941 29.3635 48.2025 29.4021C48.2494 29.4188 48.2979 29.4273 48.3468 29.4273C48.5283 29.4273 48.6912 29.3123 48.7522 29.141C48.7908 29.0326 48.7849 28.9158 48.7356 28.8119C48.6863 28.708 48.5994 28.6296 48.4911 28.5911C48.4441 28.5743 48.3955 28.5658 48.3467 28.5658Z" fill="black" fill-opacity="0.5"/>
<path d="M48.5776 23.9852C48.5448 23.9852 48.5114 23.984 48.4785 23.9818C48.0992 23.9555 47.7528 23.7832 47.5032 23.4965C47.2534 23.2098 47.1304 22.8429 47.1567 22.4636C47.2077 21.7205 47.831 21.1382 48.5754 21.1382C48.6084 21.1382 48.6418 21.1393 48.6747 21.1416C49.0539 21.1677 49.4003 21.3401 49.65 21.6269C49.8997 21.9136 50.0227 22.2805 49.9965 22.6598C49.9453 23.403 49.322 23.9852 48.5776 23.9852ZM48.5754 22.1312C48.3508 22.1312 48.1627 22.3072 48.1473 22.5319C48.1393 22.6468 48.1764 22.7576 48.2519 22.8442C48.3274 22.931 48.4323 22.9831 48.5471 22.9911C48.7831 23.0074 48.9898 22.8263 49.006 22.5915C49.014 22.4766 48.9767 22.3657 48.9012 22.279C48.8257 22.1923 48.721 22.1402 48.6063 22.1323C48.5958 22.1316 48.5856 22.1312 48.5754 22.1312Z" fill="black" fill-opacity="0.5"/>
<path d="M47.0616 17.727C46.3904 17.727 45.8047 17.2496 45.6687 16.592C45.5916 16.2199 45.6641 15.8397 45.8729 15.5218C46.0817 15.2039 46.4016 14.9864 46.7739 14.9094C46.8691 14.8897 46.9666 14.8796 47.0635 14.8796C47.7344 14.8796 48.3201 15.357 48.4562 16.0147C48.5334 16.387 48.4609 16.767 48.2521 17.0849C48.0433 17.4027 47.7233 17.6201 47.3511 17.6972C47.2557 17.717 47.1583 17.727 47.0616 17.727ZM47.0635 15.8727C47.0342 15.8727 47.0045 15.8758 46.9752 15.8818C46.8626 15.9051 46.7659 15.9709 46.7027 16.067C46.6396 16.1631 46.6177 16.2781 46.641 16.3906C46.6822 16.5897 46.859 16.734 47.0616 16.734C47.0909 16.734 47.1206 16.7309 47.1498 16.7248C47.2623 16.7015 47.3591 16.6358 47.4222 16.5397C47.4853 16.4436 47.5073 16.3287 47.4839 16.2162C47.4428 16.0172 47.266 15.8727 47.0635 15.8727Z" fill="black" fill-opacity="0.5"/>
<path d="M43.917 12.1093C43.3822 12.1093 42.8975 11.8144 42.6521 11.3396C42.4775 11.0021 42.4447 10.6165 42.56 10.254C42.6754 9.89164 42.9249 9.59592 43.2626 9.42129C43.4639 9.31707 43.6898 9.26196 43.9157 9.26196C44.4505 9.26196 44.9351 9.55693 45.1806 10.0318C45.3553 10.3694 45.388 10.755 45.2727 11.1174C45.1574 11.4796 44.9079 11.7753 44.5703 11.95C44.3687 12.0542 44.1428 12.1093 43.917 12.1093ZM43.9157 10.2549C43.8469 10.2549 43.7807 10.2712 43.7187 10.3033C43.6165 10.3561 43.5411 10.4455 43.5062 10.5551C43.4713 10.6647 43.4812 10.7812 43.5341 10.8833C43.6084 11.0271 43.7551 11.1162 43.917 11.1162C43.9858 11.1162 44.0522 11.0999 44.1142 11.0679C44.2162 11.0151 44.2917 10.9257 44.3265 10.8161C44.3614 10.7065 44.3515 10.59 44.2987 10.488C44.2244 10.3442 44.0776 10.2549 43.9157 10.2549Z" fill="black" fill-opacity="0.5"/>
<path d="M39.3717 7.54846C38.9782 7.54846 38.5988 7.38342 38.3307 7.09569C38.0715 6.81784 37.936 6.45539 37.9493 6.07521C37.9626 5.69513 38.123 5.34305 38.4011 5.08378C38.6654 4.83721 39.0101 4.70142 39.3715 4.70142C39.7649 4.70142 40.1444 4.86645 40.4127 5.15418C40.672 5.43218 40.8075 5.79463 40.7942 6.17471C40.7808 6.55469 40.6204 6.90677 40.3423 7.16599C40.0778 7.41261 39.7331 7.54846 39.3717 7.54846ZM39.3715 5.69444C39.2623 5.69444 39.1581 5.73549 39.0782 5.81007C38.9941 5.88852 38.9456 5.99497 38.9416 6.10991C38.9375 6.22486 38.9785 6.33444 39.0569 6.41845C39.1392 6.50688 39.251 6.55544 39.3717 6.55544C39.481 6.55544 39.5853 6.51433 39.6653 6.4397C39.7494 6.3613 39.7979 6.25485 39.8019 6.1399C39.8059 6.02501 39.765 5.91544 39.6866 5.83143C39.6042 5.74305 39.4923 5.69444 39.3715 5.69444Z" fill="black" fill-opacity="0.5"/>
<path d="M33.7643 4.38298C33.5037 4.38298 33.248 4.31104 33.0248 4.17495C32.7002 3.97734 32.4719 3.66483 32.3822 3.29518C32.2925 2.92563 32.352 2.54326 32.5498 2.21864C32.8104 1.791 33.2651 1.53564 33.7662 1.53564C34.0268 1.53564 34.2826 1.60759 34.5059 1.74369C34.8306 1.94135 35.0588 2.25385 35.1485 2.62345C35.2381 2.99296 35.1786 3.37522 34.9808 3.69989C34.7202 4.12764 34.2654 4.38298 33.7643 4.38298ZM33.7663 2.52867C33.6144 2.52867 33.4766 2.60597 33.3978 2.73536C33.3379 2.83352 33.32 2.94911 33.3471 3.06088C33.3742 3.17264 33.4432 3.26712 33.5414 3.32685C33.6091 3.36816 33.6861 3.38991 33.7643 3.38991C33.9162 3.38991 34.054 3.3126 34.1329 3.18311C34.1927 3.08495 34.2107 2.96932 34.1836 2.85756C34.1565 2.74584 34.0876 2.65146 33.9895 2.59168C33.9217 2.55047 33.8446 2.52867 33.7663 2.52867Z" fill="black" fill-opacity="0.5"/>
<path d="M27.5136 2.84754C27.3835 2.84754 27.2537 2.82956 27.1277 2.79411C26.7619 2.69138 26.4578 2.45207 26.2717 2.1204C26.0856 1.78873 26.0398 1.40453 26.1427 1.0385C26.3145 0.427094 26.8778 0 27.5125 0C27.6424 0 27.7722 0.0179228 27.8981 0.053324C28.2641 0.156152 28.5682 0.395471 28.7542 0.72719C28.9402 1.05876 28.986 1.44296 28.8831 1.80894C28.7111 2.42049 28.148 2.84754 27.5136 2.84754ZM27.5125 0.993022C27.3208 0.993022 27.1506 1.12226 27.0986 1.30726C27.0675 1.41799 27.0813 1.53412 27.1376 1.63441C27.1939 1.73471 27.2858 1.80705 27.3964 1.83813C27.4352 1.84901 27.4744 1.85452 27.5136 1.85452C27.7051 1.85452 27.8753 1.72527 27.9273 1.54017C27.9584 1.42955 27.9446 1.31332 27.8883 1.21302C27.8321 1.11273 27.7402 1.04044 27.6296 1.00936C27.5911 0.998533 27.5517 0.993022 27.5125 0.993022Z" fill="black" fill-opacity="0.5"/>
<path d="M20.9996 36.9913C19.6747 36.9913 18.2156 36.5241 16.9752 35.6844C15.2611 34.5241 14.1641 32.7769 13.8864 30.7646C13.8301 30.3571 14.1148 29.9812 14.5222 29.925C14.9296 29.8692 15.3055 30.1535 15.3617 30.5609C15.8772 34.2954 19.5642 35.7218 21.4844 35.4713C25.4423 34.9545 27.3328 33.156 27.1033 30.1259C26.8029 26.1593 22.5938 25.9184 22.4148 25.91C22.0486 25.893 21.7483 25.612 21.7081 25.2476C21.6679 24.8832 21.8979 24.5437 22.2516 24.4474C23.6573 24.0645 24.288 22.6318 24.4094 21.4185C24.549 20.0245 24.0926 18.3179 22.758 17.6475C21.2286 16.8792 19.6588 17.3137 18.6996 17.9765C18.0256 18.4423 17.5779 19.2604 17.5734 19.2686C17.3779 19.6296 16.9267 19.7652 16.5652 19.5708C16.2037 19.3763 16.0673 18.9268 16.2608 18.5647C16.2855 18.5185 16.8766 17.4257 17.8529 16.751C19.1632 15.8455 21.3155 15.2558 23.4265 16.3164C24.3217 16.7661 25.0244 17.5433 25.4585 18.5638C25.8414 19.464 25.9952 20.5305 25.8914 21.5669C25.7582 22.8964 25.2421 24.031 24.4538 24.8237C24.739 24.9201 25.0386 25.0395 25.3405 25.1873C27.2988 26.1457 28.4219 27.8144 28.5884 30.0133C28.8801 33.8653 26.4257 36.3283 21.6773 36.9483C21.4567 36.9772 21.2301 36.9913 20.9996 36.9913Z" fill="black" fill-opacity="0.5"/>
<path d="M32.7109 32.8292C30.668 32.8293 29.0522 31.0175 28.9734 30.9276C28.7023 30.6183 28.7331 30.1478 29.0423 29.8766C29.3516 29.6053 29.8221 29.6362 30.0932 29.9455C30.1081 29.9624 31.7295 31.7653 33.3091 31.2431C34.8426 30.7365 36.3168 29.175 35.8585 26.3108C35.4969 24.3422 34.0024 22.4048 31.5714 22.7962C30.3566 22.9919 29.9745 23.4143 29.4455 23.9989C29.0479 24.4384 28.5973 24.9364 27.7903 25.3497C25.8705 26.333 22.9799 25.8338 22.8578 25.812C22.4529 25.74 22.1831 25.3532 22.2552 24.9483C22.3272 24.5436 22.7134 24.274 23.1181 24.3454C23.1431 24.3498 25.6403 24.7775 27.1114 24.024C27.6758 23.7349 27.9842 23.3941 28.3412 22.9995C28.9328 22.3457 29.6034 21.6046 31.3346 21.3257C34.606 20.7989 36.8244 23.3041 37.325 26.0512C37.326 26.0563 37.3268 26.0613 37.3276 26.0664C37.5851 27.6651 37.3596 29.1363 36.6756 30.3209C36.032 31.4355 35.0294 32.2435 33.7762 32.6575C33.4126 32.7775 33.0556 32.8291 32.7109 32.8292Z" fill="black" fill-opacity="0.5"/>
<path d="M29.6878 18.8381C26.4039 18.8381 24.8309 15.581 24.7655 15.4422C24.5901 15.0701 24.7495 14.6263 25.1216 14.4509C25.4929 14.2758 25.9357 14.4344 26.1117 14.805C26.1254 14.8335 27.3583 17.3486 29.6884 17.3486C29.6915 17.3486 29.6941 17.3486 29.6971 17.3486C31.8943 17.3428 32.7271 15.9388 32.9832 15.3355C33.1439 14.9569 33.581 14.7802 33.9596 14.9409C34.3382 15.1017 34.5148 15.5389 34.3541 15.9175C34.0642 16.6005 32.872 18.8297 29.701 18.8381C29.6967 18.838 29.6922 18.8381 29.6878 18.8381Z" fill="black" fill-opacity="0.5"/>
<path d="M29.602 15.8778C29.4173 15.8778 29.2365 15.8422 29.0645 15.772C28.7127 15.6285 28.4376 15.3562 28.2902 15.0056C28.1428 14.655 28.1408 14.2681 28.2846 13.9161C28.5041 13.378 29.0216 13.0303 29.6026 13.0303C29.7874 13.0303 29.9682 13.0659 30.1402 13.1361C30.4921 13.2796 30.7672 13.5518 30.9145 13.9025C31.0618 14.253 31.0637 14.6399 30.9201 14.9919C30.7004 15.5301 30.183 15.8778 29.602 15.8778ZM29.6026 14.0233C29.4269 14.0233 29.2703 14.1286 29.2038 14.2914C29.1604 14.3979 29.161 14.5148 29.2055 14.6208C29.2501 14.7268 29.3332 14.8092 29.4397 14.8526C29.4921 14.874 29.5466 14.8848 29.6019 14.8848C29.7777 14.8848 29.9343 14.7795 30.0008 14.6166C30.0443 14.5102 30.0436 14.3931 29.9991 14.2871C29.9546 14.1812 29.8715 14.0989 29.7652 14.0555C29.7127 14.0341 29.6581 14.0233 29.6026 14.0233Z" fill="black" fill-opacity="0.5"/>
</svg>
